<svg width="36" height="36" viewBox="0 0 36 36" fill="none" xmlns="http://www.w3.org/2000/svg">
<path d="M23.518 21.944L23.953 23.249H22.528L22.963 21.944C23.038 21.704 23.428 21.704 23.518 21.944ZM30.748 14.999V31.499C30.748 32.744 29.743 33.749 28.498 33.749H7.49805C6.25305 33.749 5.24805 32.744 5.24805 31.499V14.999C5.24805 13.754 6.25305 12.749 7.49805 12.749H9.46305V10.784C9.46305 6.07402 13.288 2.24902 17.998 2.24902C20.278 2.24902 22.423 3.13402 24.028 4.75402C25.633 6.37402 26.533 8.50402 26.533 10.784V12.749H28.498C29.743 12.749 30.748 13.754 30.748 14.999ZM10.963 12.749H25.033V10.784C25.033 8.90902 24.298 7.13902 22.978 5.80402C21.658 4.46902 19.888 3.74902 17.998 3.74902C14.113 3.74902 10.963 6.89902 10.963 10.784V12.749ZM14.248 20.999C14.248 20.579 13.918 20.249 13.498 20.249H10.498C10.078 20.249 9.74805 20.579 9.74805 20.999V22.499C9.74805 22.919 10.078 23.249 10.498 23.249C10.918 23.249 11.248 22.919 11.248 22.499V21.749H12.748V22.184L9.97305 24.959C9.76305 25.169 9.68805 25.499 9.80805 25.769C9.92805 26.054 10.198 26.234 10.498 26.234H13.498C13.918 26.234 14.248 25.904 14.248 25.484C14.248 25.064 13.918 24.734 13.498 24.734H12.313L14.038 23.009C14.173 22.874 14.263 22.679 14.263 22.484V20.984L14.248 20.999ZM16.873 22.499V21.749H19.123C19.543 21.749 19.873 21.419 19.873 20.999C19.873 20.579 19.543 20.249 19.123 20.249H16.123C15.703 20.249 15.373 20.579 15.373 20.999V25.499C15.373 25.919 15.703 26.249 16.123 26.249C16.543 26.249 16.873 25.919 16.873 25.499V23.999H19.123C19.543 23.999 19.873 23.669 19.873 23.249C19.873 22.829 19.543 22.499 19.123 22.499H16.873ZM26.203 25.259L25.693 23.729C25.693 23.729 25.693 23.714 25.693 23.699L24.958 21.479C24.718 20.744 24.028 20.249 23.263 20.249C22.498 20.249 21.808 20.744 21.568 21.479L20.833 23.699C20.833 23.699 20.833 23.714 20.833 23.729L20.323 25.259C20.188 25.649 20.398 26.084 20.803 26.204C21.193 26.339 21.613 26.129 21.748 25.724L22.078 24.734H24.493L24.823 25.724C24.928 26.039 25.213 26.234 25.528 26.234C25.603 26.234 25.693 26.234 25.768 26.189C26.158 26.054 26.368 25.634 26.248 25.244L26.203 25.259Z" fill="url(#paint0_linear_1_34059)"/>
<defs>
<linearGradient id="paint0_linear_1_34059" x1="-2" y1="6.99902" x2="34" y2="33.999" gradientUnits="userSpaceOnUse">
<stop stop-color="#16A249"/>
<stop offset="0.5" stop-color="#83D736"/>
<stop offset="1" stop-color="#60BB25"/>
</linearGradient>
</defs>
</svg>
