<svg width="24" height="24" viewBox="0 0 24 24" fill="none" xmlns="http://www.w3.org/2000/svg">
<path fill-rule="evenodd" clip-rule="evenodd" d="M12.0314 6.45977C11.8583 3.85379 14.0049 1.71016 16.474 1.5C16.8136 4.50529 13.6974 6.754 12.0314 6.45977ZM14.3381 22.0662C15.5556 22.5874 16.8329 22.7598 17.9905 21.6543L17.9884 21.669C19.4493 20.3871 20.3208 18.6533 21 16.8984C17.6061 15.5534 16.7303 10.7617 20.4254 8.57608C19.5284 7.32143 18.1849 6.6237 16.3886 6.48079C15.4329 6.41362 14.5417 6.71657 13.6582 7.01691C13.1596 7.18642 12.6635 7.35509 12.1595 7.45593C11.7577 7.42808 11.3235 7.26884 10.8333 7.08908C10.177 6.8484 9.42048 6.57094 8.50712 6.52282C1.92855 6.85908 1.07419 15.7909 6.86248 21.6543C7.88771 22.579 8.79119 22.7892 10.4935 22.0662C11.8605 21.5009 13.0438 21.5345 14.3381 22.0662Z" fill="white"/>
</svg>
