<svg width="37" height="37" viewBox="0 0 37 37" fill="none" xmlns="http://www.w3.org/2000/svg">
<path d="M35.7856 22.6789C33.3812 32.3218 23.6135 38.1904 13.9684 35.7857C4.32727 33.3816 -1.54191 23.6143 0.863593 13.9719C3.26685 4.32787 13.0346 -1.54126 22.6769 0.862866C32.3214 3.26699 38.19 13.0354 35.7856 22.6789Z" fill="#F7931A" stroke="white" stroke-opacity="0.2" stroke-width="0.648649"/>
<path fill-rule="evenodd" clip-rule="evenodd" d="M26.2587 15.7604C26.6171 13.3652 24.7934 12.0777 22.2999 11.2187L23.1087 7.97424L21.1338 7.48205L20.3463 10.6411C19.8271 10.5117 19.2939 10.3896 18.764 10.2687L19.5571 7.08887L17.5833 6.59668L16.7739 9.84005C16.3441 9.74218 15.9222 9.64543 15.5127 9.54362L15.515 9.53349L12.7914 8.85343L12.266 10.9628C12.266 10.9628 13.7313 11.2986 13.7004 11.3194C14.5002 11.5191 14.6448 12.0484 14.6206 12.4681L13.6992 16.1642C13.7544 16.1783 13.8258 16.1986 13.9046 16.2301L13.8376 16.2133C13.7918 16.2019 13.7444 16.19 13.6959 16.1783L12.4044 21.3561C12.3065 21.5991 12.0584 21.9636 11.4993 21.8252C11.519 21.8539 10.0638 21.4669 10.0638 21.4669L9.08337 23.7276L11.6534 24.3683C11.9404 24.4402 12.224 24.5142 12.5046 24.5873L12.5051 24.5875C12.6918 24.6362 12.8772 24.6845 13.0614 24.7317L12.2441 28.0133L14.2167 28.5055L15.0262 25.2587C15.5651 25.405 16.0882 25.54 16.6001 25.6671L15.7934 28.8987L17.7684 29.3909L18.5857 26.1154C21.9534 26.7527 24.4857 26.4957 25.5517 23.4497C26.4106 20.9972 25.5089 19.5826 23.7371 18.6601C25.0274 18.3625 25.9994 17.5137 26.2587 15.7604ZM21.7464 22.0879C21.1864 24.338 17.6645 23.4078 16.053 22.9821C15.908 22.9438 15.7785 22.9096 15.668 22.8822L16.7525 18.5346C16.887 18.5682 17.0514 18.6051 17.2376 18.6469L17.2377 18.6469C18.9044 19.0209 22.3201 19.7873 21.7464 22.0879ZM17.5726 16.6293C18.9161 16.9879 21.8468 17.77 22.3572 15.7249C22.8785 13.6332 20.0302 13.0026 18.6391 12.6947C18.4826 12.66 18.3446 12.6295 18.2319 12.6014L17.2486 16.5445C17.3415 16.5676 17.4505 16.5967 17.5726 16.6293Z" fill="white"/>
</svg>
