<svg width="36" height="36" viewBox="0 0 36 36" fill="none" xmlns="http://www.w3.org/2000/svg">
<path d="M27.3802 23.5965L21.375 21.9287H18H14.625L8.61975 23.5971C6.18469 24.2732 4.5 26.49 4.5 29.0168V34.8758H18H31.5V29.0168C31.5 26.49 29.8153 24.2732 27.3802 23.5965Z" fill="#85EFAC"/>
<path d="M9 31.501H10.125V34.876H9V31.501Z" fill="#16A249"/>
<path d="M26 31.501H27.125V34.876H26V31.501Z" fill="#16A249"/>
<path d="M21.3754 21.9277H18.0004H14.6254L13.5156 22.236C13.6703 24.5777 15.6199 26.4373 18.0004 26.4373C20.3809 26.4373 22.3306 24.5777 22.4852 22.236L21.3754 21.9277Z" fill="#16A249"/>
<path d="M21.375 17.9912H14.625V21.9287L14.6256 21.9293C14.6256 21.9321 14.625 21.9349 14.625 21.9383C14.625 23.8024 16.1359 25.3133 18 25.3133C19.8641 25.3133 21.375 23.8024 21.375 21.9383C21.375 21.9349 21.3744 21.9321 21.3744 21.9287L21.375 17.9912Z" fill="#88664E"/>
<path d="M24.75 7.86621V13.5008C24.75 17.2285 21.7277 20.2508 18 20.2508C14.2723 20.2508 11.25 17.2285 11.25 13.5008V7.86621H24.75Z" fill="#B1886A"/>
<path d="M24.75 9.56348H25.1398C25.8244 9.56348 26.3503 10.1699 26.2536 10.8482L26.0134 12.5262C25.9341 13.0802 25.4593 13.4914 24.8996 13.4914H24.75V9.56348Z" fill="#B1886A"/>
<path d="M11.2504 9.5625H10.8606C10.176 9.5625 9.6501 10.1689 9.74685 10.8473L9.98704 12.5252C10.0664 13.0793 10.5411 13.4904 11.1008 13.4904H11.2504V9.5625Z" fill="#B1886A"/>
<path d="M24.75 13.4914L23.625 8.99141H18H12.375L11.25 13.4914V6.75098C11.25 3.64429 13.7683 1.12598 16.875 1.12598H19.6875C20.9301 1.12598 21.9375 2.13341 21.9375 3.37598C23.4906 3.37598 24.75 4.63541 24.75 6.18848V13.4914Z" fill="#111111"/>
</svg>
