<svg width="20" height="20" viewBox="0 0 20 20" fill="none" xmlns="http://www.w3.org/2000/svg">
<path d="M19.992 8.06426C19.9723 7.54756 19.9051 7.03377 19.791 6.52943L19.3549 6.46685L19.6265 5.90556C19.4733 5.41155 19.2744 4.93292 19.0323 4.47588L18.7097 4.1933V3.91749C18.4338 3.4802 18.1183 3.06922 17.7671 2.68975L17.4194 2.58039L17.31 2.23362C16.9306 1.8821 16.5196 1.56625 16.0823 1.29007H15.8065L15.5239 0.96749C15.0668 0.725383 14.5882 0.526456 14.0942 0.373296L13.5484 0.644909L13.4703 0.20878C12.966 0.09471 12.4522 0.0274353 11.9355 0.0078125L11.6129 0.322329L11.2903 0.0078125C10.7736 0.0274353 10.2598 0.09471 9.7555 0.20878L9.67744 0.644909L9.13163 0.373296C8.63762 0.526456 8.15899 0.725383 7.70195 0.96749L7.41937 1.29007H7.14356C6.70628 1.56595 6.2953 1.88147 5.91582 2.23265L5.80647 2.58039L5.45969 2.68975C5.10818 3.06918 4.79233 3.48016 4.51614 3.91749V4.1933L4.19356 4.47588C3.95146 4.93292 3.75253 5.41155 3.59937 5.90556L3.87098 6.46685L3.43485 6.52943C3.32078 7.03377 3.25351 7.54756 3.23389 8.06426L3.5484 8.38685L3.23389 8.70943C3.25351 9.22613 3.32078 9.73992 3.43485 10.2443L3.87098 10.3068L3.59937 10.8681C3.75253 11.3621 3.95146 11.8408 4.19356 12.2978L4.51614 12.5804V12.8562C4.79202 13.2935 5.10755 13.7045 5.45873 14.0839L5.80647 14.1933L5.91582 14.5401C6.29526 14.8916 6.70624 15.2074 7.14356 15.4836L7.74195 15.161L7.70195 15.8062C8.15899 16.0483 8.63762 16.2472 9.13163 16.4004L9.67744 16.1288L9.7555 16.5649C10.2598 16.679 10.7736 16.7463 11.2903 16.7659L11.6129 16.4514L11.9355 16.7659C12.4522 16.7463 12.966 16.679 13.4703 16.5649L13.5484 16.1288L14.0942 16.4004C14.5882 16.2472 15.0668 16.0483 15.5239 15.8062L15.8065 15.4836H16.0823C16.5196 15.2077 16.9305 14.8922 17.31 14.541L17.4194 14.1933L17.7661 14.0839C18.1177 13.7045 18.4335 13.2935 18.7097 12.8562V12.5804L19.0323 12.2978C19.2744 11.8408 19.4733 11.3621 19.6265 10.8681L19.3549 10.3223L19.791 10.2443C19.9051 9.73992 19.9723 9.22613 19.992 8.70943L19.6774 8.38685L19.992 8.06426Z" fill="#FFC864"/>
<path d="M8.38711 2.58106C7.22267 2.58038 6.06921 2.80619 4.99098 3.24589C4.82292 3.46235 4.66389 3.6859 4.51711 3.91815L4.51614 4.19396L4.19356 4.47654C3.95146 4.93358 3.75253 5.41221 3.59937 5.90622L3.87098 6.46751L3.43485 6.53009C3.32078 7.03443 3.25351 7.54822 3.23389 8.06493L3.5484 8.38751L3.23389 8.71009C3.25351 9.2268 3.32078 9.74059 3.43485 10.2449L3.87098 10.3075L3.59937 10.8688C3.75253 11.3628 3.95146 11.8414 4.19356 12.2985L4.51614 12.5811V12.8569C4.79202 13.2942 5.10755 13.7051 5.45873 14.0846L5.80647 14.194L5.91582 14.5407C6.29526 14.8923 6.70624 15.2081 7.14356 15.4843L7.74195 15.1617L7.70195 15.8069C8.15899 16.049 8.63762 16.2479 9.13163 16.4011L9.67743 16.1294L9.7555 16.5656C10.2598 16.6796 10.7736 16.7469 11.2903 16.7665L11.6129 16.452L11.9355 16.7665C12.4522 16.7469 12.966 16.6796 13.4703 16.5656L13.5484 16.1294L14.0942 16.4011C14.5882 16.2479 15.0668 16.049 15.5239 15.8069L15.8065 15.4843H16.0823C16.3145 15.3375 16.5381 15.1785 16.7545 15.0104C17.3122 13.6393 17.5242 12.1521 17.3718 10.6798C17.2194 9.20754 16.7074 7.79529 15.8808 6.56744C15.0542 5.33958 13.9384 4.3338 12.6317 3.63865C11.3249 2.9435 9.86727 2.58031 8.38711 2.58106Z" fill="#FCB446"/>
<path d="M11.613 14.8388C15.1761 14.8388 18.0646 11.9503 18.0646 8.38716C18.0646 4.82403 15.1761 1.93555 11.613 1.93555C8.04986 1.93555 5.16138 4.82403 5.16138 8.38716C5.16138 11.9503 8.04986 14.8388 11.613 14.8388Z" fill="#FFAA32"/>
<path d="M5.80653 9.03232C5.80476 7.79511 6.15927 6.58357 6.82771 5.54247C7.49614 4.50138 8.45022 3.67478 9.57591 3.16147C10.7016 2.64816 11.9513 2.46985 13.1756 2.64784C14.4 2.82584 15.5472 3.35262 16.4801 4.16522C15.9009 3.49527 15.1899 2.95189 14.3914 2.569C13.5928 2.1861 12.724 1.97191 11.839 1.93979C10.954 1.90767 10.0719 2.05831 9.24768 2.38231C8.42349 2.70631 7.67494 3.19671 7.04874 3.82291C6.42254 4.44911 5.93214 5.19766 5.60814 6.02185C5.28414 6.84603 5.1335 7.72815 5.16562 8.61314C5.19774 9.49814 5.41193 10.367 5.79483 11.1655C6.17772 11.9641 6.7211 12.6751 7.39105 13.2543C6.36969 12.0849 5.80675 10.5849 5.80653 9.03232Z" fill="#FF9C28"/>
<path d="M11.6129 0.967742C11.6984 0.967742 11.7805 0.933756 11.841 0.87326C11.9015 0.812765 11.9354 0.730715 11.9354 0.645161V0.00806451C11.8283 0.00419354 11.7209 0 11.6129 0C11.5048 0 11.3974 0.00419354 11.2903 0.00806451V0.645161C11.2903 0.730715 11.3243 0.812765 11.3848 0.87326C11.4453 0.933756 11.5273 0.967742 11.6129 0.967742Z" fill="#FFAA32"/>
<path d="M11.6129 15.8066C11.5273 15.8066 11.4453 15.8406 11.3848 15.9011C11.3243 15.9616 11.2903 16.0437 11.2903 16.1292V16.7663C11.3974 16.7702 11.5048 16.7744 11.6129 16.7744C11.7209 16.7744 11.8283 16.7702 11.9354 16.7663V16.1292C11.9354 16.0437 11.9015 15.9616 11.841 15.9011C11.7805 15.8406 11.6984 15.8066 11.6129 15.8066Z" fill="#FFAA32"/>
<path d="M9.69288 1.2206C9.73381 1.20963 9.77217 1.19071 9.80578 1.16491C9.83939 1.13912 9.86759 1.10695 9.88877 1.07026C9.90995 1.03356 9.92369 0.993055 9.92921 0.951048C9.93473 0.909041 9.93192 0.866358 9.92095 0.825436L9.75546 0.208984C9.54482 0.256726 9.33611 0.310275 9.13159 0.373501L9.29772 0.992533C9.30869 1.03346 9.32761 1.07182 9.3534 1.10543C9.3792 1.13904 9.41136 1.16724 9.44806 1.18842C9.48476 1.2096 9.52526 1.22334 9.56727 1.22886C9.60928 1.23438 9.65196 1.23157 9.69288 1.2206Z" fill="#FFAA32"/>
<path d="M13.5328 15.554C13.4919 15.565 13.4535 15.5839 13.4199 15.6097C13.3863 15.6355 13.3581 15.6676 13.3369 15.7043C13.3157 15.741 13.302 15.7815 13.2965 15.8235C13.2909 15.8655 13.2937 15.9082 13.3047 15.9491L13.4702 16.5656C13.6808 16.5179 13.8896 16.4643 14.0941 16.4011L13.9279 15.782C13.917 15.7411 13.8981 15.7028 13.8723 15.6692C13.8465 15.6355 13.8143 15.6073 13.7776 15.5862C13.7409 15.565 13.7004 15.5512 13.6584 15.5457C13.6164 15.5402 13.5737 15.543 13.5328 15.554Z" fill="#FFAA32"/>
<path d="M7.90323 1.96197C7.93996 1.94079 7.97215 1.91257 7.99797 1.87894C8.02378 1.84531 8.04271 1.80691 8.05368 1.76596C8.06464 1.725 8.06743 1.68229 8.06187 1.64026C8.05631 1.59822 8.04253 1.5577 8.0213 1.521L7.70194 0.967773C7.51119 1.06885 7.32506 1.17638 7.14355 1.29035L7.46259 1.84261C7.48366 1.8794 7.51178 1.91168 7.54534 1.9376C7.5789 1.96351 7.61724 1.98256 7.65817 1.99364C7.69909 2.00473 7.7418 2.00764 7.78385 2.0022C7.8259 1.99677 7.86647 1.98309 7.90323 1.96197Z" fill="#FFAA32"/>
<path d="M15.3226 14.8124C15.2858 14.8336 15.2536 14.8618 15.2278 14.8955C15.202 14.9291 15.1831 14.9675 15.1721 15.0084C15.1611 15.0494 15.1584 15.0921 15.1639 15.1341C15.1695 15.1762 15.1833 15.2167 15.2045 15.2534L15.5238 15.8066C15.7145 15.706 15.9006 15.5976 16.0822 15.484L15.7632 14.9318C15.7421 14.895 15.714 14.8627 15.6804 14.8368C15.6469 14.8109 15.6085 14.7918 15.5676 14.7808C15.5267 14.7697 15.484 14.7668 15.4419 14.7722C15.3999 14.7776 15.3593 14.7913 15.3226 14.8124Z" fill="#FFAA32"/>
<path d="M6.36648 3.14016C6.42696 3.07967 6.46093 2.99764 6.46093 2.9121C6.46093 2.82656 6.42696 2.74453 6.36648 2.68403L5.91487 2.23242C5.75723 2.37866 5.60519 2.5307 5.45874 2.68855L5.91035 3.14016C5.97085 3.20064 6.05288 3.23461 6.13842 3.23461C6.22395 3.23461 6.30599 3.20064 6.36648 3.14016Z" fill="#FFAA32"/>
<path d="M16.8593 13.6335C16.7989 13.694 16.7649 13.776 16.7649 13.8616C16.7649 13.9471 16.7989 14.0291 16.8593 14.0896L17.311 14.5413C17.4686 14.395 17.6206 14.243 17.7671 14.0851L17.3155 13.6335C17.255 13.573 17.1729 13.5391 17.0874 13.5391C17.0019 13.5391 16.9198 13.573 16.8593 13.6335Z" fill="#FFAA32"/>
<path d="M6.3665 3.14041C6.41057 3.09612 6.44082 3.03999 6.45359 2.97883C6.46636 2.91767 6.4611 2.85412 6.43844 2.7959C6.20457 2.84783 5.9736 2.90751 5.74683 2.97687L5.91037 3.14041C5.97087 3.20089 6.0529 3.23486 6.13844 3.23486C6.22398 3.23486 6.30601 3.20089 6.3665 3.14041Z" fill="#FF9C28"/>
<path d="M16.8593 13.6339C16.7989 13.6944 16.7649 13.7765 16.7649 13.862C16.7649 13.9475 16.7989 14.0296 16.8593 14.0901L17.0229 14.2536C17.0922 14.0278 17.1519 13.7959 17.2039 13.562C17.1456 13.5393 17.0821 13.5341 17.0209 13.5468C16.9598 13.5596 16.9036 13.5899 16.8593 13.6339Z" fill="#FF9C28"/>
<path d="M5.1878 4.67765C5.20896 4.64094 5.22269 4.60043 5.2282 4.55841C5.2337 4.5164 5.23088 4.47372 5.21989 4.4328C5.20889 4.39188 5.18994 4.35353 5.16412 4.31993C5.13831 4.28634 5.10612 4.25816 5.06941 4.237L4.51618 3.91797C4.40156 4.09969 4.29403 4.28582 4.1936 4.47636L4.74683 4.79571C4.78353 4.81694 4.82405 4.83073 4.86609 4.83628C4.90812 4.84184 4.95083 4.83906 4.99179 4.82809C5.03274 4.81713 5.07114 4.79819 5.10477 4.77238C5.1384 4.74657 5.16662 4.71437 5.1878 4.67765Z" fill="#FFAA32"/>
<path d="M18.038 12.097C18.0168 12.1337 18.0031 12.1742 17.9976 12.2162C17.9921 12.2582 17.9949 12.3009 18.0059 12.3418C18.0169 12.3827 18.0359 12.4211 18.0617 12.4547C18.0875 12.4883 18.1197 12.5165 18.1564 12.5376L18.7096 12.8566C18.8241 12.675 18.9325 12.4889 19.0322 12.2983L18.479 11.9789C18.4423 11.9577 18.4018 11.9439 18.3597 11.9383C18.3177 11.9328 18.275 11.9356 18.234 11.9465C18.1931 11.9575 18.1547 11.9764 18.121 12.0022C18.0874 12.028 18.0592 12.0602 18.038 12.097Z" fill="#FFAA32"/>
<path d="M4.44643 6.46754C4.4574 6.42662 4.46021 6.38394 4.45469 6.34193C4.44917 6.29992 4.43543 6.25941 4.41425 6.22272C4.39307 6.18602 4.36487 6.15386 4.33126 6.12806C4.29765 6.10227 4.25929 6.08335 4.21836 6.07238L3.59933 5.90625C3.53481 6.11077 3.48256 6.31948 3.43481 6.53012L4.05127 6.6956C4.09219 6.70658 4.13487 6.70939 4.17688 6.70387C4.21889 6.69835 4.25939 6.68461 4.29609 6.66343C4.33278 6.64225 4.36495 6.61405 4.39074 6.58044C4.41654 6.54683 4.43546 6.50846 4.44643 6.46754Z" fill="#FFAA32"/>
<path d="M18.7793 10.3074C18.7683 10.3484 18.7655 10.391 18.7711 10.433C18.7766 10.4751 18.7903 10.5156 18.8115 10.5523C18.8327 10.589 18.8609 10.6211 18.8945 10.6469C18.9281 10.6727 18.9665 10.6916 19.0074 10.7026L19.6264 10.8687C19.6909 10.6642 19.7432 10.4555 19.7909 10.2449L19.1745 10.0794C19.1336 10.0684 19.0909 10.0656 19.0489 10.0711C19.0069 10.0766 18.9664 10.0904 18.9297 10.1116C18.893 10.1327 18.8608 10.1609 18.835 10.1945C18.8092 10.2282 18.7903 10.2665 18.7793 10.3074Z" fill="#FFAA32"/>
<path d="M4.19357 8.38703C4.19357 8.30148 4.15959 8.21943 4.09909 8.15893C4.03859 8.09844 3.95655 8.06445 3.87099 8.06445H3.23389C3.23002 8.17155 3.22583 8.27897 3.22583 8.38703C3.22583 8.4951 3.23002 8.60252 3.23389 8.70961H3.87099C3.95655 8.70961 4.03859 8.67563 4.09909 8.61513C4.15959 8.55464 4.19357 8.47259 4.19357 8.38703Z" fill="#FFAA32"/>
<path d="M19.0322 8.38703C19.0322 8.47259 19.0662 8.55464 19.1267 8.61513C19.1872 8.67563 19.2693 8.70961 19.3548 8.70961H19.9919C19.9958 8.60252 20 8.4951 20 8.38703C20 8.27897 19.9958 8.17155 19.9919 8.06445H19.3548C19.2693 8.06445 19.1872 8.09844 19.1267 8.15893C19.0662 8.21943 19.0322 8.30148 19.0322 8.38703Z" fill="#FFAA32"/>
<path d="M4.44643 10.3074C4.43546 10.2665 4.41654 10.2282 4.39074 10.1945C4.36495 10.1609 4.33278 10.1327 4.29609 10.1116C4.25939 10.0904 4.21889 10.0766 4.17688 10.0711C4.13487 10.0656 4.09219 10.0684 4.05127 10.0794L3.43481 10.2449C3.48256 10.4555 3.5361 10.6642 3.59933 10.8687L4.21836 10.7026C4.25929 10.6916 4.29765 10.6727 4.33126 10.6469C4.36487 10.6211 4.39307 10.589 4.41425 10.5523C4.43543 10.5156 4.44917 10.4751 4.45469 10.433C4.46021 10.391 4.4574 10.3484 4.44643 10.3074Z" fill="#FFAA32"/>
<path d="M18.7793 6.46754C18.7903 6.50846 18.8092 6.54683 18.835 6.58044C18.8608 6.61405 18.893 6.64225 18.9297 6.66343C18.9664 6.68461 19.0069 6.69835 19.0489 6.70387C19.0909 6.70939 19.1336 6.70658 19.1745 6.6956L19.7909 6.53012C19.7432 6.31948 19.6896 6.11077 19.6264 5.90625L19.0074 6.07238C18.9665 6.08335 18.9281 6.10227 18.8945 6.12806C18.8609 6.15386 18.8327 6.18602 18.8115 6.22272C18.7903 6.25941 18.7766 6.29992 18.7711 6.34193C18.7655 6.38394 18.7683 6.42662 18.7793 6.46754Z" fill="#FFAA32"/>
<path d="M5.1878 12.097C5.16662 12.0602 5.1384 12.028 5.10477 12.0022C5.07114 11.9764 5.03274 11.9575 4.99179 11.9465C4.95083 11.9356 4.90812 11.9328 4.86609 11.9383C4.82405 11.9439 4.78353 11.9577 4.74683 11.9789L4.1936 12.2983C4.29468 12.489 4.40221 12.6751 4.51618 12.8566L5.06844 12.5376C5.10523 12.5165 5.13751 12.4884 5.16343 12.4549C5.18934 12.4213 5.20839 12.383 5.21947 12.342C5.23056 12.3011 5.23347 12.2584 5.22803 12.2163C5.2226 12.1743 5.20892 12.1337 5.1878 12.097Z" fill="#FFAA32"/>
<path d="M18.038 4.67765C18.0592 4.71437 18.0874 4.74657 18.121 4.77238C18.1547 4.79819 18.1931 4.81713 18.234 4.82809C18.275 4.83906 18.3177 4.84184 18.3597 4.83628C18.4018 4.83073 18.4423 4.81694 18.479 4.79571L19.0322 4.47636C18.9316 4.28571 18.8232 4.09958 18.7096 3.91797L18.1574 4.237C18.1206 4.25807 18.0883 4.2862 18.0624 4.31976C18.0365 4.35331 18.0174 4.39165 18.0063 4.43258C17.9953 4.47351 17.9923 4.51622 17.9978 4.55827C18.0032 4.60032 18.0169 4.64088 18.038 4.67765Z" fill="#FFAA32"/>
<path d="M6.36648 13.6335C6.30599 13.573 6.22395 13.5391 6.13842 13.5391C6.05288 13.5391 5.97085 13.573 5.91035 13.6335L5.45874 14.0851C5.60498 14.2428 5.75702 14.3948 5.91487 14.5413L6.36648 14.0896C6.42696 14.0291 6.46093 13.9471 6.46093 13.8616C6.46093 13.776 6.42696 13.694 6.36648 13.6335Z" fill="#FFAA32"/>
<path d="M16.8593 3.14016C16.9198 3.20064 17.0019 3.23461 17.0874 3.23461C17.1729 3.23461 17.255 3.20064 17.3155 3.14016L17.7671 2.68855C17.6208 2.5307 17.4688 2.37866 17.311 2.23242L16.8593 2.68403C16.7989 2.74453 16.7649 2.82656 16.7649 2.9121C16.7649 2.99764 16.7989 3.07967 16.8593 3.14016Z" fill="#FFAA32"/>
<path d="M7.90323 14.8127C7.86653 14.7915 7.82601 14.7778 7.784 14.7723C7.74199 14.7668 7.6993 14.7696 7.65838 14.7806C7.61747 14.7916 7.57911 14.8105 7.54552 14.8363C7.51192 14.8622 7.48374 14.8943 7.46259 14.9311L7.14355 15.4843C7.32517 15.5988 7.5113 15.7072 7.70194 15.8069L8.0213 15.2536C8.04253 15.2169 8.05631 15.1764 8.06187 15.1344C8.06743 15.0923 8.06464 15.0496 8.05368 15.0087C8.04271 14.9677 8.02378 14.9293 7.99797 14.8957C7.97215 14.8621 7.93996 14.8338 7.90323 14.8127Z" fill="#FFAA32"/>
<path d="M15.3226 1.96197C15.3593 1.98313 15.3998 1.99686 15.4418 2.00237C15.4838 2.00787 15.5265 2.00505 15.5674 1.99405C15.6083 1.98306 15.6467 1.96411 15.6803 1.93829C15.7139 1.91248 15.742 1.88029 15.7632 1.84358L16.0822 1.29035C15.9007 1.17573 15.7146 1.0682 15.5238 0.967773L15.2045 1.521C15.1833 1.5577 15.1695 1.59822 15.1639 1.64026C15.1584 1.68229 15.1611 1.725 15.1721 1.76596C15.1831 1.80691 15.202 1.84531 15.2278 1.87894C15.2536 1.91257 15.2858 1.94079 15.3226 1.96197Z" fill="#FFAA32"/>
<path d="M9.69288 15.554C9.65196 15.543 9.60928 15.5402 9.56727 15.5457C9.52526 15.5512 9.48476 15.565 9.44806 15.5862C9.41136 15.6073 9.3792 15.6355 9.3534 15.6692C9.32761 15.7028 9.30869 15.7411 9.29772 15.782L9.13159 16.4011C9.33611 16.4656 9.54482 16.5179 9.75546 16.5656L9.92095 15.9491C9.93192 15.9082 9.93473 15.8655 9.92921 15.8235C9.92369 15.7815 9.90995 15.741 9.88877 15.7043C9.86759 15.6676 9.83939 15.6355 9.80578 15.6097C9.77217 15.5839 9.73381 15.565 9.69288 15.554Z" fill="#FFAA32"/>
<path d="M13.5328 1.2206C13.5737 1.23157 13.6164 1.23438 13.6584 1.22886C13.7004 1.22334 13.7409 1.2096 13.7776 1.18842C13.8143 1.16724 13.8465 1.13904 13.8723 1.10543C13.8981 1.07182 13.917 1.03346 13.9279 0.992533L14.0941 0.373501C13.8896 0.308984 13.6808 0.256726 13.4702 0.208984L13.3047 0.825436C13.2937 0.866358 13.2909 0.909041 13.2965 0.951048C13.302 0.993055 13.3157 1.03356 13.3369 1.07026C13.3581 1.10695 13.3863 1.13912 13.4199 1.16491C13.4535 1.19071 13.4919 1.20963 13.5328 1.2206Z" fill="#FFAA32"/>
<path d="M17.409 11.2021C17.3038 8.95189 16.3626 6.82196 14.7695 5.22922C13.1765 3.63649 11.0464 2.69563 8.79614 2.59082C7.87098 3.0393 7.06651 3.70257 6.44988 4.52528C5.83326 5.34798 5.42237 6.30624 5.2515 7.32008C5.08064 8.33392 5.15476 9.37392 5.46769 10.3533C5.78061 11.3326 6.32325 12.2229 7.05032 12.9499C7.77739 13.6768 8.66779 14.2193 9.64721 14.532C10.6266 14.8448 11.6666 14.9187 12.6804 14.7476C13.6943 14.5766 14.6524 14.1655 15.475 13.5487C16.2976 12.9319 16.9607 12.1274 17.409 11.2021Z" fill="#FF9C28"/>
<path d="M16.7661 11.2899C16.7465 10.7731 16.6792 10.2594 16.5652 9.75501L16.129 9.69243L16.4006 9.13114C16.2475 8.63714 16.0486 8.1585 15.8064 7.70146L15.4839 7.41888V7.14308C15.208 6.70579 14.8925 6.29481 14.5413 5.91533L14.1935 5.80598L14.0842 5.4592C13.7048 5.10769 13.2938 4.79184 12.8564 4.51566H12.5806L12.2981 4.19308C11.841 3.95097 11.3624 3.75204 10.8684 3.59888L10.3226 3.8705L10.2445 3.43437C9.74017 3.3203 9.22638 3.25302 8.70967 3.2334L8.38709 3.54791L8.06451 3.2334C7.5478 3.25302 7.03401 3.3203 6.52967 3.43437L6.45161 3.8705L5.9058 3.59888C5.41179 3.75204 4.93316 3.95097 4.47612 4.19308L4.19354 4.51566H3.91773C3.48045 4.79153 3.06947 5.10706 2.68999 5.45824L2.58064 5.80598L2.23386 5.91533C1.88235 6.29477 1.5665 6.70575 1.29031 7.14308V7.41888L0.967734 7.70146C0.725627 8.1585 0.5267 8.63714 0.373541 9.13114L0.645153 9.69243L0.209024 9.75501C0.0949541 10.2594 0.0276795 10.7731 0.00805664 11.2899L0.322573 11.6124L0.00805664 11.935C0.0276795 12.4517 0.0949541 12.9655 0.209024 13.4699L0.645153 13.5324L0.373541 14.0937C0.5267 14.5877 0.725627 15.0664 0.967734 15.5234L1.29031 15.806V16.0818C1.56619 16.5191 1.88171 16.9301 2.2329 17.3095L2.58064 17.4189L2.68999 17.7657C3.06943 18.1172 3.48041 18.433 3.91773 18.7092L4.51612 18.3866L4.47612 19.0318C4.93316 19.2739 5.41179 19.4728 5.9058 19.626L6.45161 19.3544L6.52967 19.7905C7.03401 19.9046 7.5478 19.9718 8.06451 19.9915L8.38709 19.6769L8.70967 19.9915C9.22638 19.9718 9.74017 19.9046 10.2445 19.7905L10.3226 19.3544L10.8684 19.626C11.3624 19.4728 11.841 19.2739 12.2981 19.0318L12.5806 18.7092H12.8564C13.2937 18.4333 13.7047 18.1178 14.0842 17.7666L14.1935 17.4189L14.5403 17.3095C14.8918 16.9301 15.2077 16.5191 15.4839 16.0818V15.806L15.8064 15.5234C16.0486 15.0664 16.2475 14.5877 16.4006 14.0937L16.129 13.5479L16.5652 13.4699C16.6792 12.9655 16.7465 12.4517 16.7661 11.935L16.4516 11.6124L16.7661 11.2899Z" fill="#FFC864"/>
<path d="M8.38716 18.0644C11.9503 18.0644 14.8388 15.1759 14.8388 11.6127C14.8388 8.04962 11.9503 5.16113 8.38716 5.16113C4.82403 5.16113 1.93555 8.04962 1.93555 11.6127C1.93555 15.1759 4.82403 18.0644 8.38716 18.0644Z" fill="#FFAA32"/>
<path d="M2.5807 12.2579C2.57893 11.0207 2.93344 9.80915 3.60188 8.76806C4.27031 7.72697 5.22439 6.90037 6.35008 6.38706C7.47578 5.87375 8.72547 5.69543 9.94981 5.87343C11.1741 6.05143 12.3213 6.57821 13.2543 7.39081C12.6751 6.72086 11.9641 6.17748 11.1655 5.79458C10.367 5.41169 9.49814 5.19749 8.61314 5.16537C7.72815 5.13325 6.84603 5.28389 6.02185 5.60789C5.19766 5.93189 4.44911 6.4223 3.82291 7.0485C3.19671 7.6747 2.70631 8.42325 2.38231 9.24743C2.05831 10.0716 1.90767 10.9537 1.93979 11.8387C1.97191 12.7237 2.1861 13.5926 2.569 14.3911C2.95189 15.1897 3.49527 15.9007 4.16522 16.4798C3.14386 15.3105 2.58092 13.8105 2.5807 12.2579Z" fill="#FF9C28"/>
<path d="M8.38703 4.19333C8.47259 4.19333 8.55464 4.15934 8.61513 4.09885C8.67563 4.03835 8.70961 3.9563 8.70961 3.87075V3.23365C8.60252 3.22978 8.4951 3.22559 8.38703 3.22559C8.27897 3.22559 8.17155 3.22978 8.06445 3.23365V3.87075C8.06445 3.9563 8.09844 4.03835 8.15893 4.09885C8.21943 4.15934 8.30148 4.19333 8.38703 4.19333Z" fill="#FFAA32"/>
<path d="M8.38703 19.0322C8.30148 19.0322 8.21943 19.0662 8.15893 19.1267C8.09844 19.1872 8.06445 19.2693 8.06445 19.3548V19.9919C8.17155 19.9958 8.27897 20 8.38703 20C8.4951 20 8.60252 19.9958 8.70961 19.9919V19.3548C8.70961 19.2693 8.67563 19.1872 8.61513 19.1267C8.55464 19.0662 8.47259 19.0322 8.38703 19.0322Z" fill="#FFAA32"/>
<path d="M6.46705 4.44618C6.50798 4.43522 6.54634 4.41629 6.57995 4.3905C6.61356 4.3647 6.64176 4.33254 6.66294 4.29584C6.68412 4.25915 6.69786 4.21864 6.70338 4.17663C6.7089 4.13463 6.70609 4.09194 6.69512 4.05102L6.52963 3.43457C6.31899 3.48231 6.11028 3.53586 5.90576 3.59909L6.07189 4.21812C6.08286 4.25904 6.10178 4.29741 6.12757 4.33102C6.15337 4.36463 6.18553 4.39283 6.22223 4.41401C6.25892 4.43518 6.29943 4.44893 6.34144 4.45445C6.38345 4.45997 6.42613 4.45716 6.46705 4.44618Z" fill="#FFAA32"/>
<path d="M10.3072 18.7796C10.2663 18.7905 10.2279 18.8095 10.1943 18.8353C10.1607 18.861 10.1325 18.8932 10.1113 18.9299C10.0901 18.9666 10.0764 19.0071 10.0709 19.0491C10.0653 19.0911 10.0682 19.1338 10.0791 19.1747L10.2446 19.7912C10.4553 19.7434 10.664 19.6899 10.8685 19.6267L10.7024 19.0076C10.6914 18.9667 10.6725 18.9283 10.6467 18.8947C10.6209 18.8611 10.5887 18.8329 10.552 18.8117C10.5153 18.7906 10.4748 18.7768 10.4328 18.7713C10.3908 18.7658 10.3481 18.7686 10.3072 18.7796Z" fill="#FFAA32"/>
<path d="M4.6774 5.18755C4.71413 5.16637 4.74632 5.13816 4.77214 5.10452C4.79795 5.07089 4.81688 5.0325 4.82785 4.99154C4.83881 4.95059 4.8416 4.90787 4.83604 4.86584C4.83048 4.82381 4.8167 4.78328 4.79547 4.74659L4.47611 4.19336C4.28557 4.29443 4.09945 4.40196 3.91772 4.51594L4.23676 5.0682C4.25783 5.10499 4.28595 5.13727 4.31951 5.16318C4.35307 5.1891 4.39141 5.20814 4.43234 5.21923C4.47326 5.23031 4.51597 5.23322 4.55802 5.22779C4.60007 5.22235 4.64064 5.20868 4.6774 5.18755Z" fill="#FFAA32"/>
<path d="M12.0967 18.038C12.06 18.0592 12.0278 18.0874 12.002 18.121C11.9762 18.1547 11.9572 18.1931 11.9463 18.234C11.9353 18.275 11.9325 18.3177 11.9381 18.3597C11.9436 18.4018 11.9574 18.4423 11.9787 18.479L12.298 19.0322C12.4887 18.9316 12.6748 18.8232 12.8564 18.7096L12.5374 18.1574C12.5163 18.1206 12.4882 18.0883 12.4546 18.0624C12.4211 18.0365 12.3827 18.0174 12.3418 18.0063C12.3009 17.9953 12.2582 17.9923 12.2161 17.9978C12.1741 18.0032 12.1335 18.0169 12.0967 18.038Z" fill="#FFAA32"/>
<path d="M3.14065 6.36575C3.20113 6.30526 3.2351 6.22322 3.2351 6.13768C3.2351 6.05215 3.20113 5.97011 3.14065 5.90962L2.68904 5.45801C2.53119 5.60424 2.37915 5.75629 2.23291 5.91414L2.68452 6.36575C2.74502 6.42622 2.82705 6.4602 2.91259 6.4602C2.99812 6.4602 3.08016 6.42622 3.14065 6.36575Z" fill="#FFAA32"/>
<path d="M13.6335 16.8591C13.573 16.9196 13.5391 17.0016 13.5391 17.0872C13.5391 17.1727 13.573 17.2547 13.6335 17.3152L14.0851 17.7668C14.2428 17.6206 14.3948 17.4686 14.5413 17.3107L14.0896 16.8591C14.0291 16.7986 13.9471 16.7646 13.8616 16.7646C13.776 16.7646 13.694 16.7986 13.6335 16.8591Z" fill="#FFAA32"/>
<path d="M1.96197 7.90323C1.98313 7.86653 1.99686 7.82601 2.00237 7.784C2.00787 7.74199 2.00505 7.6993 1.99405 7.65838C1.98306 7.61747 1.96411 7.57911 1.93829 7.54552C1.91248 7.51192 1.88029 7.48374 1.84358 7.46259L1.29035 7.14355C1.17573 7.32528 1.0682 7.5114 0.967773 7.70194L1.521 8.0213C1.5577 8.04253 1.59822 8.05631 1.64026 8.06187C1.68229 8.06743 1.725 8.06464 1.76596 8.05368C1.80691 8.04271 1.84531 8.02378 1.87894 7.99797C1.91257 7.97215 1.94079 7.93996 1.96197 7.90323Z" fill="#FFAA32"/>
<path d="M14.8122 15.3226C14.791 15.3593 14.7773 15.3998 14.7718 15.4418C14.7663 15.4838 14.7691 15.5265 14.7801 15.5674C14.7911 15.6083 14.81 15.6467 14.8359 15.6803C14.8617 15.7139 14.8939 15.742 14.9306 15.7632L15.4838 16.0822C15.5983 15.9006 15.7067 15.7145 15.8064 15.5238L15.2531 15.2045C15.2164 15.1833 15.1759 15.1695 15.1339 15.1639C15.0919 15.1584 15.0491 15.1611 15.0082 15.1721C14.9672 15.1831 14.9288 15.202 14.8952 15.2278C14.8616 15.2536 14.8334 15.2858 14.8122 15.3226Z" fill="#FFAA32"/>
<path d="M1.2206 9.69313C1.23157 9.6522 1.23438 9.60952 1.22886 9.56751C1.22334 9.52551 1.2096 9.485 1.18842 9.4483C1.16724 9.41161 1.13904 9.37944 1.10543 9.35365C1.07182 9.32785 1.03346 9.30893 0.992533 9.29796L0.373501 9.13184C0.308984 9.33635 0.256726 9.54506 0.208984 9.75571L0.825436 9.92119C0.866358 9.93217 0.909041 9.93498 0.951048 9.92945C0.993055 9.92393 1.03356 9.91019 1.07026 9.88901C1.10695 9.86783 1.13912 9.83963 1.16491 9.80602C1.19071 9.77241 1.20963 9.73405 1.2206 9.69313Z" fill="#FFAA32"/>
<path d="M15.5535 13.533C15.5425 13.5739 15.5397 13.6166 15.5452 13.6586C15.5508 13.7006 15.5645 13.7412 15.5857 13.7778C15.6069 13.8145 15.6351 13.8467 15.6687 13.8725C15.7023 13.8983 15.7406 13.9172 15.7816 13.9282L16.4006 14.0943C16.4651 13.8898 16.5174 13.6811 16.5651 13.4704L15.9487 13.305C15.9077 13.294 15.8651 13.2912 15.823 13.2967C15.781 13.3022 15.7405 13.316 15.7038 13.3371C15.6671 13.3583 15.635 13.3865 15.6092 13.4201C15.5834 13.4537 15.5645 13.4921 15.5535 13.533Z" fill="#FFAA32"/>
<path d="M0.967742 11.6126C0.967742 11.5271 0.933756 11.445 0.87326 11.3845C0.812765 11.324 0.730715 11.29 0.645161 11.29H0.00806451C0.00419354 11.3971 0 11.5046 0 11.6126C0 11.7207 0.00419354 11.8281 0.00806451 11.9352H0.645161C0.730715 11.9352 0.812765 11.9012 0.87326 11.8407C0.933756 11.7802 0.967742 11.6982 0.967742 11.6126Z" fill="#FFAA32"/>
<path d="M15.8064 11.6126C15.8064 11.6982 15.8404 11.7802 15.9009 11.8407C15.9614 11.9012 16.0434 11.9352 16.129 11.9352H16.7661C16.7699 11.8281 16.7741 11.7207 16.7741 11.6126C16.7741 11.5046 16.7699 11.3971 16.7661 11.29H16.129C16.0434 11.29 15.9614 11.324 15.9009 11.3845C15.8404 11.445 15.8064 11.5271 15.8064 11.6126Z" fill="#FFAA32"/>
<path d="M1.2206 13.533C1.20963 13.4921 1.19071 13.4537 1.16491 13.4201C1.13912 13.3865 1.10695 13.3583 1.07026 13.3371C1.03356 13.316 0.993055 13.3022 0.951048 13.2967C0.909041 13.2912 0.866358 13.294 0.825436 13.305L0.208984 13.4704C0.256726 13.6811 0.310275 13.8898 0.373501 14.0943L0.992533 13.9282C1.03346 13.9172 1.07182 13.8983 1.10543 13.8725C1.13904 13.8467 1.16724 13.8145 1.18842 13.7778C1.2096 13.7412 1.22334 13.7006 1.22886 13.6586C1.23438 13.6166 1.23157 13.5739 1.2206 13.533Z" fill="#FFAA32"/>
<path d="M15.5535 9.69313C15.5645 9.73405 15.5834 9.77241 15.6092 9.80602C15.635 9.83963 15.6671 9.86783 15.7038 9.88901C15.7405 9.91019 15.781 9.92393 15.823 9.92945C15.8651 9.93498 15.9077 9.93217 15.9487 9.92119L16.5651 9.75571C16.5174 9.54506 16.4638 9.33635 16.4006 9.13184L15.7816 9.29796C15.7406 9.30893 15.7023 9.32785 15.6687 9.35365C15.6351 9.37944 15.6069 9.41161 15.5857 9.4483C15.5645 9.485 15.5508 9.52551 15.5452 9.56751C15.5397 9.60952 15.5425 9.6522 15.5535 9.69313Z" fill="#FFAA32"/>
<path d="M1.96197 15.3226C1.94079 15.2858 1.91257 15.2536 1.87894 15.2278C1.84531 15.202 1.80691 15.1831 1.76596 15.1721C1.725 15.1611 1.68229 15.1584 1.64026 15.1639C1.59822 15.1695 1.5577 15.1833 1.521 15.2045L0.967773 15.5238C1.06885 15.7146 1.17638 15.9007 1.29035 16.0822L1.84261 15.7632C1.8794 15.7421 1.91168 15.714 1.9376 15.6804C1.96351 15.6469 1.98256 15.6085 1.99364 15.5676C2.00473 15.5267 2.00764 15.484 2.0022 15.4419C1.99677 15.3999 1.98309 15.3593 1.96197 15.3226Z" fill="#FFAA32"/>
<path d="M14.8122 7.90323C14.8334 7.93996 14.8616 7.97215 14.8952 7.99797C14.9288 8.02378 14.9672 8.04271 15.0082 8.05368C15.0491 8.06464 15.0919 8.06743 15.1339 8.06187C15.1759 8.05631 15.2165 8.04253 15.2532 8.0213L15.8064 7.70194C15.7057 7.5113 15.5973 7.32517 15.4838 7.14355L14.9315 7.46259C14.8947 7.48366 14.8625 7.51178 14.8366 7.54534C14.8106 7.5789 14.7916 7.61724 14.7805 7.65817C14.7694 7.69909 14.7665 7.7418 14.7719 7.78385C14.7774 7.8259 14.7911 7.86647 14.8122 7.90323Z" fill="#FFAA32"/>
<path d="M3.14065 16.8591C3.08016 16.7986 2.99812 16.7646 2.91259 16.7646C2.82705 16.7646 2.74502 16.7986 2.68452 16.8591L2.23291 17.3107C2.37915 17.4683 2.53119 17.6204 2.68904 17.7668L3.14065 17.3152C3.20113 17.2547 3.2351 17.1727 3.2351 17.0872C3.2351 17.0016 3.20113 16.9196 3.14065 16.8591Z" fill="#FFAA32"/>
<path d="M13.6335 6.36575C13.694 6.42622 13.776 6.4602 13.8616 6.4602C13.9471 6.4602 14.0291 6.42622 14.0896 6.36575L14.5413 5.91414C14.395 5.7565 14.243 5.60446 14.0851 5.45801L13.6335 5.90962C13.573 5.97011 13.5391 6.05215 13.5391 6.13768C13.5391 6.22322 13.573 6.30526 13.6335 6.36575Z" fill="#FFAA32"/>
<path d="M4.6774 18.0383C4.6407 18.0171 4.60018 18.0034 4.55817 17.9979C4.51616 17.9923 4.47347 17.9952 4.43255 18.0062C4.39164 18.0172 4.35328 18.0361 4.31969 18.0619C4.28609 18.0877 4.25791 18.1199 4.23676 18.1566L3.91772 18.7099C4.09934 18.8244 4.28547 18.9328 4.47611 19.0324L4.79547 18.4792C4.8167 18.4425 4.83048 18.402 4.83604 18.36C4.8416 18.3179 4.83881 18.2752 4.82785 18.2343C4.81688 18.1933 4.79795 18.1549 4.77214 18.1213C4.74632 18.0876 4.71413 18.0594 4.6774 18.0383Z" fill="#FFAA32"/>
<path d="M12.0967 5.18755C12.1334 5.20872 12.1739 5.22245 12.216 5.22795C12.258 5.23346 12.3007 5.23063 12.3416 5.21964C12.3825 5.20865 12.4208 5.1897 12.4544 5.16388C12.488 5.13806 12.5162 5.10588 12.5374 5.06917L12.8564 4.51594C12.6749 4.40132 12.4888 4.29379 12.298 4.19336L11.9787 4.74659C11.9574 4.78328 11.9436 4.82381 11.9381 4.86584C11.9325 4.90787 11.9353 4.95059 11.9463 4.99154C11.9572 5.0325 11.9762 5.07089 12.002 5.10452C12.0278 5.13816 12.06 5.16637 12.0967 5.18755Z" fill="#FFAA32"/>
<path d="M6.46705 18.7796C6.42613 18.7686 6.38345 18.7658 6.34144 18.7713C6.29943 18.7768 6.25892 18.7906 6.22223 18.8117C6.18553 18.8329 6.15337 18.8611 6.12757 18.8947C6.10178 18.9283 6.08286 18.9667 6.07189 19.0076L5.90576 19.6267C6.11028 19.6912 6.31899 19.7434 6.52963 19.7912L6.69512 19.1747C6.70609 19.1338 6.7089 19.0911 6.70338 19.0491C6.69786 19.0071 6.68412 18.9666 6.66294 18.9299C6.64176 18.8932 6.61356 18.861 6.57995 18.8353C6.54634 18.8095 6.50798 18.7905 6.46705 18.7796Z" fill="#FFAA32"/>
<path d="M10.3072 4.44618C10.3481 4.45716 10.3908 4.45997 10.4328 4.45445C10.4748 4.44893 10.5153 4.43518 10.552 4.41401C10.5887 4.39283 10.6209 4.36463 10.6467 4.33102C10.6725 4.29741 10.6914 4.25904 10.7024 4.21812L10.8685 3.59909C10.664 3.53457 10.4553 3.48231 10.2446 3.43457L10.0791 4.05102C10.0682 4.09194 10.0653 4.13463 10.0709 4.17663C10.0764 4.21864 10.0901 4.25915 10.1113 4.29584C10.1325 4.33254 10.1607 4.3647 10.1943 4.3905C10.2279 4.41629 10.2663 4.43522 10.3072 4.44618Z" fill="#FFAA32"/>
<path d="M8.38722 7.6748L9.54012 10.0109L12.1182 10.3854L10.2527 12.2038L10.693 14.7716L8.38722 13.5593L6.08141 14.7716L6.52173 12.2038L4.65625 10.3854L7.23431 10.0109L8.38722 7.6748Z" fill="#FFC864"/>
</svg>
