<svg width="36" height="36" viewBox="0 0 36 36" fill="none" xmlns="http://www.w3.org/2000/svg">
<g clip-path="url(#clip0_1_33982)">
<path d="M30.0023 30.7986H3.6C1.61016 30.7986 0 29.1885 0 27.1986V11.2025C0 9.2127 1.61016 7.60254 3.6 7.60254H30.0023C31.9922 7.60254 33.6023 9.2127 33.6023 11.2025V27.2057C33.6023 29.1885 31.9922 30.7986 30.0023 30.7986Z" fill="#FF9D00"/>
<path d="M32.5477 29.7436C31.8937 30.3975 30.9938 30.7982 30.0023 30.7982H3.6C2.60859 30.7982 1.70859 30.3975 1.05469 29.7436L14.2523 16.5459C15.6586 15.1396 17.9367 15.1396 19.343 16.5459L32.5477 29.7436Z" fill="#FFBE1D"/>
<path d="M32.5477 8.65723L19.343 21.8549C17.9367 23.2611 15.6586 23.2611 14.2523 21.8549L1.05469 8.65723C1.70859 8.00332 2.60859 7.60254 3.6 7.60254H30.0023C30.9938 7.60254 31.8937 8.00332 32.5477 8.65723Z" fill="#FFE000"/>
<path d="M30.0025 17.1994C33.315 17.1994 36.0002 14.5142 36.0002 11.2018C36.0002 7.88934 33.315 5.2041 30.0025 5.2041C26.6901 5.2041 24.0049 7.88934 24.0049 11.2018C24.0049 14.5142 26.6901 17.1994 30.0025 17.1994Z" fill="#00DD77"/>
<path d="M33.8205 8.53633C33.8064 8.14961 33.4548 7.86836 33.0752 7.93164C31.69 8.17773 30.8603 7.73477 30.4103 7.35508C30.1783 7.15117 29.8267 7.15117 29.5947 7.35508C29.1517 7.73477 28.315 8.17773 26.9298 7.93164C26.5502 7.86836 26.1916 8.14961 26.1845 8.53633C26.1423 10.1043 26.3955 13.634 29.4541 15.0824C29.7986 15.2441 30.1994 15.2441 30.5439 15.0824C33.6025 13.634 33.8627 10.1043 33.8205 8.53633ZM32.1963 10.3574L29.658 12.8957C29.4259 13.1277 29.0463 13.1277 28.8072 12.8957L27.8017 11.8902C27.5697 11.6582 27.5697 11.2785 27.8017 11.0395C28.0338 10.8074 28.4134 10.8074 28.6525 11.0395L29.2291 11.616L31.3455 9.49961C31.5775 9.26758 31.9572 9.26758 32.1963 9.49961C32.4283 9.73867 32.4283 10.1184 32.1963 10.3574Z" fill="white"/>
</g>
<defs>
<clipPath id="clip0_1_33982">
<rect width="36" height="36" fill="white"/>
</clipPath>
</defs>
</svg>
