<svg width="24" height="24" viewBox="0 0 24 24" fill="none" xmlns="http://www.w3.org/2000/svg">
<mask id="mask0_651_1989" style="mask-type:luminance" maskUnits="userSpaceOnUse" x="1" y="1" width="22" height="22">
<path fill-rule="evenodd" clip-rule="evenodd" d="M22.2558 10.0909H12.2442V14.1477H18.007C17.4698 16.725 15.2233 18.2045 12.2442 18.2045C8.72791 18.2045 5.89535 15.4364 5.89535 12C5.89535 8.56364 8.72791 5.79545 12.2442 5.79545C13.7581 5.79545 15.1256 6.32045 16.2 7.17955L19.3256 4.125C17.4209 2.50227 14.9791 1.5 12.2442 1.5C6.28605 1.5 1.5 6.17727 1.5 12C1.5 17.8227 6.28605 22.5 12.2442 22.5C17.6163 22.5 22.5 18.6818 22.5 12C22.5 11.3795 22.4023 10.7114 22.2558 10.0909Z" fill="white"/>
</mask>
<g mask="url(#mask0_651_1989)">
<path d="M0.523193 18.2045V5.79541L8.82552 12L0.523193 18.2045Z" fill="#FBBC05"/>
</g>
<mask id="mask1_651_1989" style="mask-type:luminance" maskUnits="userSpaceOnUse" x="1" y="1" width="22" height="22">
<path fill-rule="evenodd" clip-rule="evenodd" d="M22.2558 10.0909H12.2442V14.1477H18.007C17.4698 16.725 15.2233 18.2045 12.2442 18.2045C8.72791 18.2045 5.89535 15.4364 5.89535 12C5.89535 8.56364 8.72791 5.79545 12.2442 5.79545C13.7581 5.79545 15.1256 6.32045 16.2 7.17955L19.3256 4.125C17.4209 2.50227 14.9791 1.5 12.2442 1.5C6.28605 1.5 1.5 6.17727 1.5 12C1.5 17.8227 6.28605 22.5 12.2442 22.5C17.6163 22.5 22.5 18.6818 22.5 12C22.5 11.3795 22.4023 10.7114 22.2558 10.0909Z" fill="white"/>
</mask>
<g mask="url(#mask1_651_1989)">
<path d="M0.523193 5.79541L8.82552 12L12.2441 9.08859L23.9651 7.22723V0.54541H0.523193V5.79541Z" fill="#EA4335"/>
</g>
<mask id="mask2_651_1989" style="mask-type:luminance" maskUnits="userSpaceOnUse" x="1" y="1" width="22" height="22">
<path fill-rule="evenodd" clip-rule="evenodd" d="M22.2558 10.0909H12.2442V14.1477H18.007C17.4698 16.725 15.2233 18.2045 12.2442 18.2045C8.72791 18.2045 5.89535 15.4364 5.89535 12C5.89535 8.56364 8.72791 5.79545 12.2442 5.79545C13.7581 5.79545 15.1256 6.32045 16.2 7.17955L19.3256 4.125C17.4209 2.50227 14.9791 1.5 12.2442 1.5C6.28605 1.5 1.5 6.17727 1.5 12C1.5 17.8227 6.28605 22.5 12.2442 22.5C17.6163 22.5 22.5 18.6818 22.5 12C22.5 11.3795 22.4023 10.7114 22.2558 10.0909Z" fill="white"/>
</mask>
<g mask="url(#mask2_651_1989)">
<path d="M0.523193 18.2045L15.1744 7.22723L19.0325 7.7045L23.9651 0.54541V23.4545H0.523193V18.2045Z" fill="#34A853"/>
</g>
<mask id="mask3_651_1989" style="mask-type:luminance" maskUnits="userSpaceOnUse" x="1" y="1" width="22" height="22">
<path fill-rule="evenodd" clip-rule="evenodd" d="M22.2558 10.0909H12.2442V14.1477H18.007C17.4698 16.725 15.2233 18.2045 12.2442 18.2045C8.72791 18.2045 5.89535 15.4364 5.89535 12C5.89535 8.56364 8.72791 5.79545 12.2442 5.79545C13.7581 5.79545 15.1256 6.32045 16.2 7.17955L19.3256 4.125C17.4209 2.50227 14.9791 1.5 12.2442 1.5C6.28605 1.5 1.5 6.17727 1.5 12C1.5 17.8227 6.28605 22.5 12.2442 22.5C17.6163 22.5 22.5 18.6818 22.5 12C22.5 11.3795 22.4023 10.7114 22.2558 10.0909Z" fill="white"/>
</mask>
<g mask="url(#mask3_651_1989)">
<path d="M23.9651 23.4545L8.82556 12L6.87207 10.5681L23.9651 5.79541V23.4545Z" fill="#4285F4"/>
</g>
</svg>
