<svg width="36" height="36" viewBox="0 0 36 36" fill="none" xmlns="http://www.w3.org/2000/svg">
<path fill-rule="evenodd" clip-rule="evenodd" d="M4.86714 17.2176L14.6063 21.3902L18.7823 31.1327C19.1783 32.0563 20.0951 32.6458 21.0998 32.6222C22.1033 32.5997 22.9931 31.9674 23.3453 31.0281L32.4701 6.69657C32.8088 5.79319 32.5883 4.77507 31.9065 4.09332C31.2248 3.41157 30.2066 3.19107 29.3033 3.52969L4.97176 12.6546C4.03126 13.0067 3.40014 13.8954 3.37764 14.9001C3.35401 15.9047 3.94351 16.8216 4.86714 17.2176Z" fill="#ADC5FF"/>
<path fill-rule="evenodd" clip-rule="evenodd" d="M31.9059 4.11328L14.6045 21.4102H14.6056L18.7816 31.1527C19.1776 32.0763 20.0945 32.6658 21.0991 32.6422C22.1026 32.6197 22.9925 31.9874 23.3446 31.048L32.4695 6.71653C32.8081 5.81316 32.5876 4.79503 31.9059 4.11328Z" fill="#477CFF"/>
<path fill-rule="evenodd" clip-rule="evenodd" d="M16.5489 17.8777L13.3652 21.0581C12.9264 21.4969 12.9264 22.2101 13.3652 22.6489C13.8039 23.0888 14.5161 23.0888 14.9559 22.65L18.1386 19.4696C18.5784 19.0309 18.5784 18.3176 18.1397 17.8789C17.7009 17.439 16.9877 17.439 16.5489 17.8777Z" fill="#FFCC00"/>
<path fill-rule="evenodd" clip-rule="evenodd" d="M18.1347 17.874L13.3613 22.6463L13.3636 22.6474C13.8023 23.0873 14.5145 23.0873 14.9543 22.6485L18.137 19.4681C18.5768 19.0294 18.5768 18.3161 18.1381 17.8774L18.1347 17.874Z" fill="#FFCC00"/>
</svg>
