<svg width="36" height="36" viewBox="0 0 36 36" fill="none" xmlns="http://www.w3.org/2000/svg">
<g clip-path="url(#clip0_1_33998)">
<path d="M31.9927 4.23457L22.3729 33.9583C21.9672 35.2113 20.7816 36.0438 19.465 36.0003L7.29808 35.5961C7.29808 35.5961 6.08232 35.5496 5.10862 34.8521C4.2901 34.2663 3.64304 33.2205 4.03407 31.3569C4.93406 27.0633 9.29824 3.53242 9.29824 3.53242C9.29824 3.53242 9.7878 1.34219 12.0347 1.18391C12.5474 1.14776 27.88 0.0671485 28.7675 0.00461465C29.0864 -0.0178851 29.3991 0.103148 29.6202 0.334352L31.566 2.36864C32.0401 2.86449 32.2045 3.5813 31.9927 4.23457Z" fill="#0032AD"/>
<path d="M28.6244 4.02633C28.6244 4.02633 20.7045 29.6846 19.903 31.4C19.1008 33.1162 16.9765 32.9758 16.9765 32.9758C7.59443 32.9758 8.11099 32.9836 7.77799 32.9595C4.72501 32.7438 5.42328 30.4348 5.42328 30.4348L9.92944 6.03734C9.92944 6.03734 10.3088 3.85719 10.8155 3.36453C11.3221 2.87264 12.4052 2.72212 12.4052 2.72212L14.5388 2.61893C14.4635 3.78194 15.7577 3.78194 15.7577 3.78194C16.6048 3.76595 22.8074 3.62289 23.5418 3.21944C24.3293 2.78807 24.5729 1.66308 24.5729 1.66308L27.0867 1.5498C29.5058 1.5498 28.6244 4.02633 28.6244 4.02633Z" fill="#ADC5FF"/>
<path d="M31.9925 4.23457L22.3727 33.9583C21.9669 35.2113 20.7814 36.0438 19.4648 36.0003L7.29786 35.5961C7.29786 35.5961 6.08209 35.5496 5.1084 34.8521C6.04951 34.2368 6.93786 33.6053 7.77733 32.959C8.09792 32.9823 7.48639 32.9753 16.9759 32.9753C16.9759 32.9753 19.1001 33.1157 19.9024 31.3995C20.7038 29.6841 28.6237 4.02586 28.6237 4.02586C28.6237 4.02586 29.5051 1.54934 27.086 1.54934L24.5722 1.66261C24.5722 1.66261 24.3286 2.7876 23.5411 3.21898C23.3363 3.33148 22.7117 3.42303 21.8994 3.49751C21.8986 2.23675 21.849 1.21339 21.8218 0.494178L28.7673 0.00461465C29.0862 -0.0178851 29.3988 0.103148 29.6199 0.334352L31.5658 2.36864C32.0398 2.86449 32.2043 3.5813 31.9925 4.23457Z" fill="#00298F"/>
<path d="M28.6238 4.02633C28.6238 4.02633 20.7038 29.6846 19.9024 31.4C19.1002 33.1162 16.9759 32.9758 16.9759 32.9758C7.59378 32.9758 8.11034 32.9836 7.77734 32.9595C20.582 23.1147 21.9041 10.0803 21.8994 3.49797C22.7118 3.42349 23.3363 3.33194 23.5411 3.21944C24.3286 2.78807 24.5722 1.66308 24.5722 1.66308L27.086 1.5498C29.5051 1.5498 28.6238 4.02633 28.6238 4.02633Z" fill="#D6E2FF"/>
<path d="M20.0017 15.9633C15.8341 17.9039 10.8506 15.7485 10.5991 11.9187C10.4835 10.225 11.3525 8.60661 12.8181 7.48783C15.3969 5.51638 19.3232 5.45455 21.7334 7.40791C24.7609 9.86248 23.8634 14.1665 20.0017 15.9633Z" fill="#79E9B3"/>
<path d="M20.7544 9.62432C15.1217 14.9124 15.5121 14.5491 15.4452 14.603C15.0715 14.8889 14.5375 14.8554 14.2038 14.5161L12.3821 12.6657C12.0183 12.2964 12.0229 11.7005 12.393 11.3366C12.7631 10.9728 13.3582 10.9774 13.722 11.3475L14.899 12.5431C16.5703 10.9736 15.5448 11.9364 19.4672 8.25417C19.8459 7.89805 20.4409 7.91744 20.7963 8.29529C21.1516 8.6739 21.133 9.26898 20.7544 9.62432Z" fill="white"/>
<path d="M20.9734 19.9423C20.9734 20.0276 20.9044 20.0975 20.8182 20.0975H9.38759C9.30225 20.0975 9.23242 20.0276 9.23242 19.9423C9.23242 19.8569 9.30225 19.7871 9.38759 19.7871H20.8182C20.9044 19.7871 20.9734 19.8569 20.9734 19.9423Z" fill="#A3A3F5"/>
<path d="M19.8875 23.9765C19.8875 24.0618 19.8184 24.1316 19.7323 24.1316H8.30166C8.21631 24.1316 8.14648 24.0618 8.14648 23.9765C8.14648 23.8911 8.21631 23.8213 8.30166 23.8213H19.7323C19.8184 23.8213 19.8875 23.8911 19.8875 23.9765Z" fill="#A3A3F5"/>
<path d="M20.002 15.9626C21.0222 12.8576 21.5118 9.92332 21.7337 7.40723C24.7611 9.86179 23.8637 14.1658 20.002 15.9626Z" fill="#14D2AA"/>
<path d="M13.1684 27.9305C13.1682 27.9307 13.1682 27.9308 13.168 27.931C13.141 27.8854 13.0918 27.8545 13.0349 27.8545H7.31923C7.23389 27.8545 7.16406 27.9243 7.16406 28.0097C7.16406 28.095 7.23389 28.1648 7.31923 28.1648C13.4516 28.1648 13.039 28.1681 13.0726 28.1597C13.1729 28.1343 13.2208 28.0185 13.1684 27.9305Z" fill="#A3A3F5"/>
</g>
<defs>
<clipPath id="clip0_1_33998">
<rect width="36" height="36" fill="white"/>
</clipPath>
</defs>
</svg>
