<svg width="37" height="36" viewBox="0 0 37 36" fill="none" xmlns="http://www.w3.org/2000/svg">
<path fill-rule="evenodd" clip-rule="evenodd" d="M6.91561 2.40381L0.351337 16.1921C0.300066 16.2973 0.323279 16.4237 0.408612 16.5039L18.1371 33.4921C18.2418 33.5925 18.4069 33.5925 18.5115 33.4921L36.2401 16.505C36.3254 16.4248 36.3486 16.2984 36.2973 16.1931L29.7331 2.40487C29.6898 2.3103 29.5952 2.24975 29.4912 2.25002H7.15956C7.05504 2.24872 6.95951 2.30895 6.91561 2.40381Z" fill="#50AF95" stroke="white" stroke-opacity="0.2" stroke-width="0.648649"/>
<path fill-rule="evenodd" clip-rule="evenodd" d="M20.6021 17.6077C20.4748 17.6172 19.8172 17.6565 18.3504 17.6565C17.1837 17.6565 16.3553 17.6215 16.0647 17.6077C11.5559 17.4093 8.19053 16.6245 8.19053 15.6847C8.19053 14.745 11.5559 13.9612 16.0647 13.7597V16.826C16.3596 16.8472 17.2038 16.897 18.3705 16.897C19.7706 16.897 20.4716 16.8387 20.5979 16.827V13.7618C25.0971 13.9623 28.455 14.7471 28.455 15.6847C28.455 16.6223 25.0981 17.4072 20.5979 17.6066L20.6021 17.6077ZM20.6021 13.4447V10.7008H26.8811V6.5166H9.78573V10.7008H16.0636V13.4436C10.9609 13.678 7.12354 14.6888 7.12354 15.9C7.12354 17.1113 10.9609 18.121 16.0636 18.3565V27.1491H20.601V18.3533C25.6921 18.1189 29.5231 17.1092 29.5231 15.899C29.5231 14.6888 25.6953 13.6791 20.601 13.4436L20.6021 13.4447Z" fill="white"/>
</svg>
