<svg width="22" height="22" viewBox="0 0 22 22" fill="none" xmlns="http://www.w3.org/2000/svg">
<g clip-path="url(#clip0_1511_21551)">
<g clip-path="url(#clip1_1511_21551)">
<path d="M-4 0H26.25V22H-4" fill="#BD3D44"/>
<path d="M-4 2.53418H26.25H-4ZM-4 5.9121H26.25H-4ZM-4 9.30376H26.25H-4ZM-4 12.6954H26.25H-4ZM-4 16.0871H26.25H-4ZM-4 19.4788H26.25H-4Z" fill="black"/>
<path d="M-4 1.68652V3.38236H26.25V1.68652H-4ZM-4 5.06444V6.76027H26.25V5.06444H-4ZM-4 8.45611V10.1519H26.25V8.45611H-4ZM-4 11.8478V13.5436H26.25V11.8478H-4ZM-4 15.2394V16.9353H26.25V15.2394H-4ZM-4 18.6311V20.3269H26.25V18.6311H-4Z" fill="white"/>
<path d="M-4 0H13.2425V11.8479H-4" fill="#192F5D"/>
<path d="M11.7867 9.99141L12.2121 11.2289L11.125 10.4497H12.4484L11.3613 11.2289L11.7867 9.99141ZM8.95076 9.99141L9.37615 11.2289L8.28904 10.4497H9.61248L8.52537 11.2289L8.95076 9.99141ZM6.06755 9.99141L6.49294 11.2289L5.40583 10.4497H6.72927L5.64216 11.2289L6.06755 9.99141ZM3.18435 9.99141L3.60974 11.2289L2.52263 10.4497H3.84607L2.75896 11.2289L3.18435 9.99141ZM0.301147 9.99141L0.726538 11.2289L-0.360571 10.4497H0.962866L-0.124243 11.2289L0.301147 9.99141ZM-2.58206 9.99141L-2.15667 11.2289L-3.24377 10.4497H-1.92034L-3.00745 11.2289L-2.58206 9.99141ZM10.3687 8.79974L10.7941 10.0372L9.70701 9.25807H11.0304L9.94333 10.0372L10.3687 8.79974ZM7.48552 8.79974L7.91091 10.0372L6.8238 9.25807H8.14724L7.06013 10.0372L7.48552 8.79974ZM4.64958 8.79974L5.07498 10.0372L3.98787 9.25807H5.3113L4.22419 10.0372L4.64958 8.79974ZM1.76638 8.79974L2.19177 10.0372L1.10466 9.25807H2.4281L1.34099 10.0372L1.76638 8.79974ZM-1.11682 8.79974L-0.691431 10.0372L-1.77854 9.25807H-0.455103L-1.54221 10.0372L-1.11682 8.79974ZM11.7867 7.60807L12.2121 8.84557L11.125 8.06641H12.4484L11.3613 8.84557L11.7867 7.60807ZM8.95076 7.60807L9.37615 8.84557L8.28904 8.06641H9.61248L8.52537 8.84557L8.95076 7.60807ZM6.06755 7.60807L6.49294 8.84557L5.40583 8.06641H6.72927L5.64216 8.84557L6.06755 7.60807ZM3.18435 7.60807L3.60974 8.84557L2.52263 8.06641H3.84607L2.75896 8.84557L3.18435 7.60807ZM0.301147 7.60807L0.726538 8.84557L-0.360571 8.06641H0.962866L-0.124243 8.84557L0.301147 7.60807ZM-2.58206 7.60807L-2.15667 8.84557L-3.24377 8.06641H-1.92034L-3.00745 8.84557L-2.58206 7.60807ZM10.3687 6.46224L10.7941 7.69974L9.70701 6.92057H11.0304L9.94333 7.69974L10.3687 6.46224ZM7.48552 6.46224L7.91091 7.69974L6.8238 6.92057H8.14724L7.06013 7.69974L7.48552 6.46224ZM4.64958 6.46224L5.07498 7.69974L3.98787 6.92057H5.3113L4.22419 7.69974L4.64958 6.46224ZM1.76638 6.46224L2.19177 7.69974L1.10466 6.92057H2.4281L1.34099 7.69974L1.76638 6.46224ZM-1.11682 6.46224L-0.691431 7.69974L-1.77854 6.92057H-0.455103L-1.54221 7.69974L-1.11682 6.46224ZM11.7867 5.27057L12.2121 6.50807L11.125 5.72891H12.4484L11.3613 6.50807L11.7867 5.27057ZM8.95076 5.27057L9.37615 6.50807L8.28904 5.72891H9.61248L8.52537 6.50807L8.95076 5.27057ZM6.06755 5.27057L6.49294 6.50807L5.40583 5.72891H6.72927L5.64216 6.50807L6.06755 5.27057ZM3.18435 5.27057L3.60974 6.50807L2.52263 5.72891H3.84607L2.75896 6.50807L3.18435 5.27057ZM0.301147 5.27057L0.726538 6.50807L-0.360571 5.72891H0.962866L-0.124243 6.50807L0.301147 5.27057ZM-2.58206 5.27057L-2.15667 6.50807L-3.24377 5.72891H-1.92034L-3.00745 6.50807L-2.58206 5.27057ZM10.3687 4.07891L10.7941 5.31641L9.70701 4.53724H11.0304L9.94333 5.31641L10.3687 4.07891ZM7.48552 4.07891L7.91091 5.31641L6.8238 4.53724H8.14724L7.06013 5.31641L7.48552 4.07891ZM4.64958 4.07891L5.07498 5.31641L3.98787 4.53724H5.3113L4.22419 5.31641L4.64958 4.07891ZM1.76638 4.07891L2.19177 5.31641L1.10466 4.53724H2.4281L1.34099 5.31641L1.76638 4.07891ZM-1.11682 4.07891L-0.691431 5.31641L-1.77854 4.53724H-0.455103L-1.54221 5.31641L-1.11682 4.07891ZM11.7867 2.88724L12.2121 4.12474L11.125 3.34557H12.4484L11.3613 4.12474L11.7867 2.88724ZM8.95076 2.88724L9.37615 4.12474L8.28904 3.34557H9.61248L8.52537 4.12474L8.95076 2.88724ZM6.06755 2.88724L6.49294 4.12474L5.40583 3.34557H6.72927L5.64216 4.12474L6.06755 2.88724ZM3.18435 2.88724L3.60974 4.12474L2.52263 3.34557H3.84607L2.75896 4.12474L3.18435 2.88724ZM0.301147 2.88724L0.726538 4.12474L-0.360571 3.34557H0.962866L-0.124243 4.12474L0.301147 2.88724ZM-2.58206 2.88724L-2.15667 4.12474L-3.24377 3.34557H-1.92034L-3.00745 4.12474L-2.58206 2.88724ZM10.3687 1.69557L10.7941 2.93307L9.70701 2.15391H11.0304L9.94333 2.93307L10.3687 1.69557ZM7.48552 1.69557L7.91091 2.93307L6.8238 2.15391H8.14724L7.06013 2.93307L7.48552 1.69557ZM4.64958 1.69557L5.07498 2.93307L3.98787 2.15391H5.3113L4.22419 2.93307L4.64958 1.69557ZM1.76638 1.69557L2.19177 2.93307L1.10466 2.15391H2.4281L1.34099 2.93307L1.76638 1.69557ZM-1.11682 1.69557L-0.691431 2.93307L-1.77854 2.15391H-0.455103L-1.54221 2.93307L-1.11682 1.69557ZM11.7867 0.503906L12.2121 1.74141L11.125 0.96224H12.4484L11.3613 1.74141L11.7867 0.503906ZM8.95076 0.503906L9.37615 1.74141L8.28904 0.96224H9.61248L8.52537 1.74141L8.95076 0.503906ZM6.06755 0.503906L6.49294 1.74141L5.40583 0.96224H6.72927L5.64216 1.74141L6.06755 0.503906ZM3.18435 0.503906L3.60974 1.74141L2.52263 0.96224H3.84607L2.75896 1.74141L3.18435 0.503906ZM0.301147 0.503906L0.726538 1.74141L-0.360571 0.96224H0.962866L-0.124243 1.74141L0.301147 0.503906ZM-2.58206 0.503906L-2.15667 1.74141L-3.24377 0.96224H-1.92034L-3.00745 1.74141L-2.58206 0.503906Z" fill="white"/>
</g>
</g>
<rect x="0.5" y="0.5" width="21" height="21" rx="10.5" stroke="white" stroke-opacity="0.48" stroke-linejoin="bevel"/>
<defs>
<clipPath id="clip0_1511_21551">
<rect x="1" y="1" width="20" height="20" rx="10" fill="white"/>
</clipPath>
<clipPath id="clip1_1511_21551">
<rect width="29.3333" height="22" fill="white" transform="translate(-4)"/>
</clipPath>
</defs>
</svg>
