<svg width="122" height="175" viewBox="0 0 122 175" fill="none" xmlns="http://www.w3.org/2000/svg">
<g clip-path="url(#clip0_1_32739)">
<path d="M103.725 37.9421C103.576 37.2639 103.197 36.6587 102.651 36.2303C101.31 35.3854 99.729 35.0071 98.1519 35.1537C97.2093 33.2712 96.5851 31.2447 96.3049 29.1571C97.0655 29.1695 97.8128 28.9559 98.4526 28.5434L98.7963 28.4465C100.31 27.7468 100.461 25.4751 99.505 24.1402C98.4106 22.8714 96.9755 21.9446 95.3706 21.4702C96.5089 21.5456 97.5183 22.2992 98.5922 22.6437C99.6661 22.9882 101.223 22.6437 101.352 21.4702C101.371 21.1032 101.312 20.7364 101.18 20.3936L100.536 18.3804C100.432 17.8151 100.117 17.3108 99.6553 16.97C99.2653 16.8115 98.858 16.6995 98.4419 16.6363C97.164 16.2918 96.5089 14.7415 95.2202 14.3862C94.248 14.2815 93.2652 14.426 92.3638 14.8061C91.4188 15.0321 90.1623 14.8061 89.8724 13.9125C91.1455 13.2624 92.249 12.3222 93.094 11.1672C93.5007 10.5761 93.6918 9.86264 93.6351 9.14686C93.5784 8.43109 93.2773 7.75679 92.7826 7.23758C91.8276 6.62422 90.6802 6.38649 89.5609 6.5701C88.3152 6.63469 86.7581 6.9146 86.436 8.12039C86.0065 8.00799 85.5584 7.9858 85.12 8.0552C84.6815 8.12459 84.2621 8.28408 83.888 8.52365C83.5139 8.76323 83.1932 9.07772 82.9461 9.4474C82.699 9.81708 82.5307 10.234 82.4519 10.6719L79.2303 10.349C80.1323 9.38001 81.378 8.78788 82.1834 7.72205C82.9888 6.65622 82.817 4.72911 81.5284 4.49226C81.0458 4.49297 80.5641 4.44973 80.0894 4.36307C79.7672 4.24464 79.4987 3.94319 79.1551 3.93243C78.8991 3.95074 78.6551 4.04858 78.4571 4.21235L71.681 8.64793C72.2823 7.21605 72.8944 5.79495 73.5065 4.34154C74.1186 2.88813 74.516 1.20864 73.3347 0.401191C72.1535 -0.406256 70.5427 0.745706 70.3064 2.11298C69.9938 2.04199 69.6695 2.04028 69.3562 2.10798C69.0429 2.17568 68.7481 2.31115 68.4924 2.50493C68.2367 2.69871 68.0264 2.94612 67.876 3.22987C67.7256 3.51362 67.6388 3.82688 67.6217 4.14775C67.1684 3.96039 66.6662 3.92776 66.1926 4.05492C65.7189 4.18208 65.3002 4.46194 65.0009 4.85134C64.7017 5.24074 64.5385 5.71804 64.5367 6.2096C64.5349 6.70116 64.6944 7.17968 64.9907 7.57133C63.8504 7.59419 62.7374 7.92523 61.7691 8.5295C61.7353 8.18038 61.608 7.8469 61.4009 7.56423C61.1937 7.28157 60.9143 7.06021 60.5921 6.9235C60.2699 6.78679 59.9168 6.73981 59.5702 6.78751C59.2236 6.83521 58.8962 6.97583 58.6227 7.19452C58.6549 6.51018 58.483 5.83173 58.1287 5.24588C58.0333 5.1088 57.9097 4.99374 57.7663 4.90841C57.623 4.82308 57.463 4.76944 57.2973 4.7511C57.1316 4.73275 56.9638 4.75011 56.8053 4.80202C56.6468 4.85393 56.5012 4.93919 56.3783 5.05209C56.4766 4.58804 56.4283 4.10481 56.24 3.66957C56.0517 3.23433 55.7328 2.86873 55.3277 2.62361C54.9226 2.37849 54.4513 2.26602 53.9794 2.30185C53.5076 2.33768 53.0586 2.52003 52.6949 2.82353L51.621 1.46703C51.0443 1.41148 50.4637 1.52418 49.9494 1.79157C49.435 2.05897 49.0086 2.46966 48.7216 2.97426C48.2491 4.05085 49.0437 5.53656 50.182 5.43966C49.3873 5.43966 49.5592 6.71005 50.0317 7.36677L51.9969 10.1013C51.5837 9.71226 51.0525 9.47325 50.4879 9.42251C49.9234 9.37177 49.3582 9.51222 48.8826 9.82141C48.7003 9.63191 48.4818 9.48119 48.2401 9.37824C47.9984 9.27529 47.7385 9.22223 47.4759 9.22223C47.2132 9.22223 46.9533 9.27529 46.7116 9.37824C46.4699 9.48119 46.2514 9.63191 46.0691 9.82141C45.9009 9.56841 45.6632 9.36973 45.3847 9.24945C45.1062 9.12916 44.7988 9.09243 44.4999 9.1437C44.201 9.19498 43.9234 9.33206 43.7006 9.53833C43.4778 9.74461 43.3195 10.0112 43.2448 10.3059C43.0408 9.77835 42.3213 9.74606 41.7628 9.81065C40.9491 9.8087 40.1584 10.0818 39.5185 10.5858C38.9493 11.1456 38.9493 12.3299 39.701 12.6098C39.0138 12.2222 38.1332 12.9758 38.1224 13.7725C38.1532 14.1612 38.2646 14.5391 38.4495 14.8821C38.6345 15.2251 38.8888 15.5255 39.1963 15.7642C39.8333 16.2311 40.3793 16.8114 40.8071 17.476C40.1341 17.0477 39.33 16.8758 38.5412 16.9916C37.127 16.9295 35.7189 17.2141 34.4391 17.8205C34.2028 17.2607 33.4189 17.2392 32.8282 17.3576C30.9698 17.7461 29.2667 18.6747 27.9314 20.0276C27.3085 20.6627 26.7501 21.6209 27.1797 22.3961C27.4018 22.7422 27.7136 23.0213 28.0817 23.2035L32.4309 25.9058C30.0522 26.6516 27.9699 28.1326 26.4817 30.1368C25.6118 30.6428 24.5057 30.6966 23.711 31.3211C22.9164 31.9455 22.9808 33.6142 23.9903 33.6142C23.7587 33.7854 23.5732 34.0115 23.4502 34.2722C23.3272 34.5329 23.2706 34.8201 23.2855 35.1082C23.3004 35.3962 23.3863 35.676 23.5356 35.9226C23.6848 36.1691 23.8926 36.3748 24.1406 36.521C24.2743 36.7201 24.4331 36.901 24.6131 37.0593C24.9596 37.3385 25.3572 37.547 25.7836 37.673C26.0093 37.9714 26.3045 38.2098 26.6433 38.3675C26.9821 38.5251 27.3543 38.5971 27.7274 38.5773C26.9019 39.268 26.2039 40.0989 25.6655 41.032C25.3018 41.6363 25.1095 42.3286 25.1095 43.0344C25.1095 43.7402 25.3018 44.4326 25.6655 45.0369C25.6655 45.1015 25.7729 45.1553 25.8159 45.2092C25.8678 45.4561 25.9687 45.6902 26.1126 45.8973C26.2565 46.1044 26.4404 46.2805 26.6535 46.4149C26.479 46.745 26.4258 47.1261 26.5031 47.4915C25.7907 47.7757 25.1672 48.2458 24.6972 48.8531C24.2272 49.4604 23.9279 50.1827 23.8303 50.9451C23.7328 51.7076 23.8406 52.4822 24.1426 53.1888C24.4445 53.8953 24.9296 54.508 25.5474 54.9631C26.5461 55.6737 28.4039 55.5445 28.5005 54.3172C28.7372 54.8057 29.0902 55.2283 29.5285 55.5475C29.9668 55.8668 30.4768 56.0728 31.0134 56.1474C30.8169 56.5455 30.7044 56.98 30.683 57.4236C30.6616 57.8673 30.7317 58.3106 30.8889 58.7259C31.0461 59.1412 31.2871 59.5195 31.5968 59.8372C31.9064 60.1548 32.2781 60.4051 32.6886 60.5722C32.285 60.9676 31.9854 61.4572 31.8166 61.9971C31.6479 62.537 31.6153 63.1105 31.7216 63.6661C31.828 64.2218 32.0701 64.7423 32.4263 65.1813C32.7824 65.6202 33.2415 65.9638 33.7625 66.1813C33.5361 66.838 33.5792 67.558 33.8823 68.1829C34.1854 68.8078 34.7236 69.2863 35.3787 69.5133C36.0338 69.7403 36.7519 69.6971 37.3752 69.3933C37.9985 69.0894 38.4759 68.5498 38.7023 67.8931C39.1067 68.8845 39.7846 69.7397 40.6568 70.3584C40.8797 70.4979 41.1287 70.5903 41.3885 70.63C41.6483 70.6697 41.9135 70.6559 42.1677 70.5894C42.422 70.5229 42.6601 70.4051 42.8675 70.2432C43.0748 70.0813 43.247 69.8788 43.3737 69.6479C43.566 70.1436 43.866 70.5902 44.2519 70.9553C44.6378 71.3204 45.0999 71.5949 45.6046 71.7588C46.1094 71.9226 46.6443 71.9719 47.1704 71.9028C47.6965 71.8338 48.2007 71.6483 48.6464 71.3597C48.6407 71.9477 48.8564 72.5161 49.2504 72.9517C49.6444 73.3873 50.1877 73.6579 50.7719 73.7095C51.3561 73.7611 51.9383 73.59 52.4022 73.2303C52.8662 72.8706 53.1777 72.3487 53.2748 71.7688L59.267 71.715C60.5974 71.7369 61.9271 71.6396 63.2403 71.4243C64.9106 71.08 66.475 70.3419 67.8043 69.2711C68.1876 68.8096 68.7222 68.4999 69.3124 68.3974C69.9026 68.2948 70.51 68.4061 71.0259 68.7113C72.619 69.1709 74.3029 69.2144 75.9175 68.8375C77.5321 68.4606 79.0237 67.6759 80.2505 66.5581C80.6043 66.1731 81.0133 65.8429 81.4639 65.5784C82.0315 65.3757 82.6352 65.295 83.2358 65.3415C84.7135 65.3137 86.1818 65.1003 87.6065 64.7063C88.2294 64.5977 88.8234 64.362 89.3517 64.0139C89.88 63.6657 90.3313 63.2125 90.6778 62.6823C91.2469 61.5519 90.5811 59.8078 89.3139 59.8293C89.2448 59.4232 89.2688 59.0066 89.3841 58.6111C89.4995 58.2157 89.7032 57.8517 89.9798 57.547C90.2719 57.2565 90.6615 57.0856 91.0725 57.0677C91.4836 57.0498 91.8865 57.1861 92.2027 57.4501C92.3359 57.5991 92.4293 57.7795 92.4742 57.9745C92.519 58.1695 92.5139 58.3727 92.4592 58.5651C92.4045 58.7576 92.3021 58.933 92.1614 59.075C92.0208 59.217 91.8466 59.3209 91.655 59.3772C93.0188 60.3138 95.1236 59.0004 95.1558 57.3424C95.1065 56.5198 94.7454 55.7473 94.1465 55.1829C93.5476 54.6185 92.7562 54.3049 91.9342 54.3064C92.2665 53.1202 92.2997 51.8698 92.0308 50.6675C92.4702 51.189 93.0916 51.5229 93.7681 51.6009C94.4445 51.6789 95.1252 51.4953 95.6713 51.0874C95.993 51.6318 96.4232 52.104 96.935 52.4744C97.4468 52.8449 98.0292 53.1057 98.6459 53.2406C99.2665 53.3543 99.9073 53.2505 100.461 52.9466C101.014 52.6428 101.446 52.1574 101.685 51.5718C101.773 51.2765 101.792 50.9646 101.739 50.6608C101.687 50.357 101.564 50.0696 101.382 49.8212C101.2 49.5728 100.963 49.3702 100.689 49.2294C100.416 49.0885 100.113 49.0133 99.8057 49.0095C99.9855 48.6452 100.069 48.2408 100.049 47.8348C100.028 47.4289 99.9047 47.0349 99.6893 46.6905C99.474 46.3461 99.1742 46.0628 98.8186 45.8676C98.463 45.6723 98.0634 45.5717 97.658 45.5752C97.7721 44.7634 97.6134 43.9365 97.207 43.2251C96.8007 42.5136 96.1697 41.9579 95.4136 41.6456C95.6611 41.7817 95.9353 41.8617 96.2169 41.8802C96.4986 41.8986 96.7808 41.855 97.0438 41.7524C97.3069 41.6498 97.5443 41.4907 97.7395 41.2862C97.9346 41.0818 98.0827 40.837 98.1734 40.569C98.9358 41.7748 100.794 41.4841 102.029 40.752C102.591 40.5518 103.068 40.1627 103.377 39.6505C103.686 39.1384 103.809 38.5348 103.725 37.9421Z" fill="#272727"/>
<path d="M103.715 37.9412C103.765 38.0978 103.79 38.2612 103.79 38.4257C103.802 38.9285 103.639 39.4198 103.328 39.8145C102.793 40.4406 102.105 40.9156 101.331 41.1925C100.838 41.3819 100.312 41.4698 99.7841 41.4509C99.4725 41.4498 99.1656 41.3739 98.8892 41.2297C98.6127 41.0855 98.3746 40.8771 98.1948 40.6219H98.3237C98.2238 40.897 98.0655 41.1471 97.8599 41.3549C97.6542 41.5628 97.406 41.7234 97.1324 41.8258C96.8588 41.9281 96.5663 41.9697 96.2751 41.9478C95.9839 41.9258 95.701 41.8408 95.4457 41.6985L95.5316 41.5478C96.3064 41.8663 96.9541 42.4331 97.3737 43.1595C97.7934 43.886 97.9612 44.7313 97.8512 45.5635L97.7438 45.4451C98.1519 45.4245 98.5581 45.5135 98.9205 45.7027C99.2829 45.892 99.5885 46.1747 99.8056 46.5217C100.061 46.8803 100.211 47.3037 100.237 47.7435C100.264 48.1833 100.166 48.6217 99.956 49.0086L99.8379 48.8256C100.295 48.8096 100.745 48.9516 101.11 49.2279C101.476 49.5043 101.735 49.8982 101.846 50.3436C101.986 50.8129 101.963 51.3162 101.779 51.7703C101.596 52.2245 101.263 52.6022 100.837 52.8413C100.41 53.1095 99.9258 53.2736 99.4241 53.3203C98.9224 53.3671 98.4168 53.2952 97.9478 53.1105C96.9801 52.7011 96.1624 52.0016 95.6068 51.108H95.8108C95.2357 51.5401 94.5178 51.7361 93.8035 51.6561C93.0892 51.5761 92.4322 51.2261 91.9663 50.6773L92.2348 50.5481C92.5056 51.775 92.4762 53.0494 92.1489 54.2624L91.9986 54.0686C92.8149 54.0852 93.6019 54.3773 94.2322 54.8976C94.565 55.1561 94.8408 55.4808 95.0422 55.8514C95.2437 56.222 95.3664 56.6303 95.4027 57.0508C95.4144 57.4929 95.3118 57.9305 95.1048 58.321C94.8978 58.7115 94.5935 59.0417 94.2215 59.2793C93.8565 59.5615 93.4147 59.7259 92.9546 59.7509C92.4944 59.7759 92.0374 59.6602 91.6442 59.4193L91.2683 59.1502H91.7194C91.9536 59.0821 92.1535 58.9277 92.279 58.7181C92.4044 58.5084 92.4462 58.259 92.3959 58.0197C92.3374 57.7674 92.1901 57.5446 91.981 57.3923C91.7719 57.2401 91.5151 57.1685 91.2576 57.1907C90.9764 57.1976 90.7019 57.2776 90.4609 57.4229C90.2199 57.5682 90.0208 57.7739 89.883 58.0197C89.6003 58.5503 89.4949 59.1579 89.5824 59.7531L89.3998 59.5916C89.627 59.5934 89.8511 59.6444 90.0568 59.741C90.2625 59.8376 90.445 59.9776 90.5918 60.1514C90.879 60.4872 91.0652 60.8979 91.1287 61.3357C91.201 61.7809 91.1412 62.2376 90.9569 62.6491C90.7725 63.064 90.4972 63.432 90.1515 63.7257C89.4668 64.2564 88.6811 64.6411 87.8427 64.8561C87.0138 65.0841 86.1707 65.2567 85.3191 65.3729C83.6224 65.7282 81.6679 65.0391 80.5511 66.611C79.2089 67.8918 77.5278 68.7588 75.7079 69.1087C74.7868 69.3009 73.8428 69.3589 72.9051 69.2809C71.9685 69.1664 71.0445 68.9646 70.1453 68.678C69.7309 68.5653 69.2892 68.6154 68.9103 68.818C68.5363 69.0689 68.1777 69.3422 67.8364 69.6362C67.0534 70.2307 66.1937 70.716 65.2806 71.0788C63.3983 71.7344 61.4074 72.0195 59.4173 71.9186L53.4036 71.9832L53.6184 71.7894C53.5437 72.4513 53.2137 73.0578 52.699 73.4791C52.1843 73.9004 51.5257 74.1032 50.8638 74.0441C50.202 73.9851 49.5894 73.6689 49.157 73.1631C48.7246 72.6573 48.5066 72.002 48.5497 71.3372L48.9148 71.531C48.4389 71.84 47.9005 72.0389 47.3385 72.1135C46.7765 72.1881 46.2049 72.1365 45.6653 71.9623C45.1256 71.7882 44.6314 71.4959 44.2183 71.1066C43.8052 70.7173 43.4837 70.2408 43.277 69.7116H43.7172C43.6113 69.984 43.4388 70.2254 43.2155 70.4136C42.9922 70.6017 42.7253 70.7305 42.4393 70.7882C41.8688 70.9288 41.267 70.8601 40.7426 70.5944C39.7795 69.9742 39.0297 69.0722 38.5949 68.0105H39.0352C38.939 68.397 38.7635 68.7591 38.5198 69.0737C38.2762 69.3883 37.9697 69.6485 37.6201 69.8376C37.2704 70.0268 36.8853 70.1407 36.4893 70.1722C36.0932 70.2036 35.6949 70.1519 35.3199 70.0203C34.945 69.8888 34.6015 69.6802 34.3115 69.408C34.0214 69.1358 33.7912 68.8059 33.6355 68.4395C33.4799 68.073 33.4021 67.6781 33.4073 67.2798C33.4126 66.8815 33.5006 66.4887 33.6658 66.1265L33.8269 66.4387C33.2741 66.2288 32.7853 65.8781 32.4087 65.4213C32.0321 64.9645 31.7807 64.4172 31.6791 63.8333C31.5243 63.2235 31.5374 62.5831 31.7171 61.9802C31.8967 61.3772 32.2362 60.8345 32.6993 60.4098L32.7745 60.8404C32.3294 60.6618 31.9262 60.3926 31.5901 60.0499C31.2541 59.7072 30.9925 59.2983 30.822 58.8492C30.6515 58.4 30.5756 57.9203 30.5993 57.4403C30.623 56.9603 30.7457 56.4904 30.9596 56.0603L31.1422 56.4264C30.5645 56.3458 30.0155 56.1239 29.5436 55.7803C29.0716 55.4367 28.6912 54.982 28.436 54.4562L28.9193 54.3701C28.8958 54.6867 28.7539 54.9828 28.522 55.1991C28.3019 55.4033 28.0311 55.5446 27.738 55.6081C27.1817 55.7295 26.6019 55.6807 26.0735 55.4682C25.5694 55.2137 25.1203 54.8622 24.7517 54.4336C24.3832 54.005 24.1025 53.5079 23.9258 52.9705C23.7346 52.426 23.6523 51.8491 23.6836 51.2728C23.7149 50.6964 23.8592 50.1319 24.1083 49.6115C24.6096 48.5479 25.4969 47.7162 26.589 47.2861L26.4279 47.5767C26.3443 47.1588 26.4089 46.7247 26.6105 46.3494L26.7071 46.6832C26.4639 46.5293 26.254 46.3281 26.0898 46.0913C25.9256 45.8546 25.8105 45.5873 25.7513 45.3051L25.8158 45.4235C25.404 44.8913 25.1411 44.2586 25.0543 43.5906C24.9675 42.9226 25.0598 42.2435 25.3218 41.6232C25.8521 40.3649 26.6817 39.256 27.738 38.3934L27.9313 38.8348C27.5188 38.8577 27.107 38.7784 26.7324 38.6038C26.3578 38.4291 26.0319 38.1646 25.7836 37.8335L25.9124 37.9304C25.1902 37.7311 24.5599 37.2857 24.1298 36.6708L24.205 36.7462C23.9308 36.5821 23.7012 36.3529 23.5363 36.0788C23.3715 35.8046 23.2766 35.494 23.26 35.1743C23.2448 34.8418 23.3067 34.5103 23.4408 34.2058C23.575 33.9013 23.7778 33.6322 24.0332 33.4195L24.1942 33.8824C24.0369 33.8851 23.8813 33.8493 23.7409 33.778C23.6006 33.7067 23.4797 33.6021 23.3888 33.4733C23.2235 33.2317 23.1304 32.9479 23.1204 32.6551C23.1066 32.3682 23.1574 32.0818 23.2689 31.8172C23.3804 31.5525 23.5499 31.3164 23.7647 31.1263C24.656 30.4373 25.7513 30.3942 26.5567 29.9205L26.4708 29.9851C28.0013 27.9466 30.1308 26.4405 32.5597 25.6788L32.4953 26.1417L30.5086 24.9036L28.9945 23.967C28.4637 23.665 27.9542 23.3269 27.4695 22.955C27.2064 22.7117 27.0357 22.3845 26.9863 22.0291C26.9502 21.6904 27.0059 21.3483 27.1474 21.0386C27.4104 20.4667 27.7953 19.9595 28.2749 19.5529C29.1624 18.7304 30.1924 18.0773 31.314 17.6258C31.8748 17.405 32.4531 17.2321 33.0429 17.109C33.3624 17.0497 33.69 17.0497 34.0094 17.109C34.171 17.1484 34.3221 17.2227 34.452 17.3269C34.5819 17.4311 34.6874 17.5625 34.7611 17.7119L34.396 17.5935C35.416 17.0659 36.5452 16.7857 37.6928 16.7753C38.2512 16.7753 38.7667 16.7215 39.3681 16.7753C39.9787 16.7651 40.5754 16.9582 41.0648 17.3244L40.6675 17.6366C40.1842 16.6676 38.9922 16.1616 38.2942 15.0743C38.0919 14.8029 37.9646 14.4829 37.925 14.1464C37.8854 13.81 37.9349 13.469 38.0687 13.1579C38.2239 12.8428 38.4761 12.5861 38.7882 12.4258C38.9536 12.3382 39.138 12.2923 39.3251 12.2923C39.5123 12.2923 39.6966 12.3382 39.862 12.4258L39.6473 12.8888C39.4838 12.8257 39.3369 12.7259 39.2178 12.5972C39.0987 12.4684 39.0105 12.3141 38.96 12.1459C38.8739 11.836 38.8739 11.5084 38.96 11.1985C39.035 10.8862 39.2036 10.6044 39.4432 10.3911C39.6613 10.1811 39.9211 10.0197 40.2057 9.91738C40.737 9.73854 41.2894 9.62996 41.8487 9.5944C42.1403 9.5462 42.4377 9.5462 42.7293 9.5944C42.9038 9.62626 43.0677 9.70095 43.2063 9.81179C43.345 9.92262 43.4541 10.0662 43.524 10.2296H43.03C43.1144 9.88192 43.2986 9.56666 43.5598 9.32284C43.8211 9.07902 44.1479 8.91733 44.4998 8.85776C44.8518 8.79819 45.2134 8.84336 45.5401 8.98768C45.8667 9.132 46.1439 9.36913 46.3375 9.66976H45.9187C46.1203 9.44065 46.3681 9.25715 46.6459 9.13146C46.9236 9.00577 47.2248 8.94077 47.5295 8.94077C47.8342 8.94077 48.1355 9.00577 48.4132 9.13146C48.6909 9.25715 48.9388 9.44065 49.1403 9.66976H48.7967C49.3179 9.3217 49.9414 9.16097 50.5655 9.21376C51.1895 9.26655 51.7773 9.52975 52.2331 9.96045L51.8572 10.2942L50.1927 7.96874C49.8625 7.58229 49.6238 7.12588 49.4947 6.63376C49.4354 6.36063 49.4354 6.07791 49.4947 5.80478C49.5391 5.64051 49.6328 5.49392 49.7632 5.38491C49.904 5.27603 50.0797 5.22244 50.2571 5.23419V5.72942C49.9204 5.74599 49.5865 5.66032 49.2991 5.48361C49.0118 5.3069 48.7842 5.04736 48.6463 4.73895C48.489 4.45417 48.4004 4.13649 48.3873 3.81124C48.3743 3.48599 48.4372 3.16219 48.5711 2.86567C48.8806 2.33131 49.3365 1.89717 49.8847 1.61475C50.4329 1.33233 51.0504 1.21348 51.6639 1.27231H51.7713L51.8465 1.35843C52.2223 1.82137 52.5874 2.27354 52.9203 2.71495H52.5659C52.9695 2.3786 53.4677 2.17676 53.991 2.13753C54.5144 2.0983 55.0369 2.22363 55.4859 2.49607C55.9349 2.76852 56.288 3.17452 56.4961 3.65757C56.7041 4.14062 56.7568 4.67667 56.6467 5.19112L56.2171 4.98657C56.3565 4.82201 56.5388 4.6996 56.7437 4.63305C56.9485 4.5665 57.1678 4.55844 57.3769 4.60976C57.7697 4.68019 58.1221 4.89522 58.3649 5.21265C58.7373 5.82816 58.9238 6.53865 58.9018 7.25819L58.483 7.10746C58.7871 6.84233 59.1595 6.66832 59.5576 6.60532C59.9556 6.54233 60.3634 6.59289 60.7341 6.75123C61.1049 6.90957 61.4238 7.16931 61.6542 7.50074C61.8847 7.83217 62.0175 8.22193 62.0375 8.62546L61.6724 8.41014C62.6803 7.7845 63.8376 7.44238 65.0229 7.41968L64.8403 7.79648C64.5183 7.36377 64.3461 6.83739 64.35 6.29751C64.354 5.75763 64.5339 5.23384 64.8622 4.8059C65.1905 4.37797 65.6494 4.06935 66.1689 3.92705C66.6884 3.78474 67.24 3.81655 67.7398 4.01763L67.4176 4.23295C67.4351 3.87564 67.5307 3.52654 67.6975 3.2103C67.8643 2.89407 68.0983 2.6184 68.3831 2.40277C68.6678 2.18715 68.9963 2.03682 69.3453 1.9624C69.6943 1.88798 70.0554 1.89129 70.403 1.97209L70.1131 2.15512C70.2314 1.55189 70.5538 1.0081 71.0258 0.615586C71.4816 0.197433 72.0838 -0.0231475 72.7011 0.00192582C73.0141 0.0387587 73.312 0.157666 73.5646 0.346675C73.8173 0.535683 74.0158 0.788115 74.1401 1.07852C74.3509 1.6273 74.3993 2.22538 74.2797 2.80108C74.0384 3.8612 73.6781 4.89052 73.2058 5.86938L71.9494 8.78695L71.6272 8.5178L75.826 5.77249L77.8771 4.4375C78.2093 4.18468 78.5697 3.97152 78.951 3.80231C79.0745 3.77242 79.2026 3.76749 79.328 3.78782C79.4534 3.80816 79.5735 3.85334 79.6812 3.92074C79.8745 4.0284 80.0356 4.14682 80.186 4.21142C80.5366 4.30035 80.8996 4.32947 81.2598 4.29754C81.4865 4.30563 81.7088 4.3616 81.9124 4.46178C82.116 4.56196 82.2961 4.70411 82.4411 4.87891C82.6796 5.23667 82.826 5.6481 82.8673 6.07643C82.9085 6.50476 82.8432 6.93666 82.6774 7.33355C82.338 8.04323 81.8198 8.65182 81.1739 9.09917C80.5609 9.53008 79.9828 10.0089 79.445 10.531L79.3161 10.1865L82.5377 10.5203L82.3122 10.6925C82.3981 10.2219 82.5805 9.77423 82.8479 9.37793C83.1153 8.98163 83.4619 8.64531 83.8657 8.39028C84.2695 8.13524 84.7217 7.96704 85.1937 7.89633C85.6657 7.82562 86.1472 7.85395 86.6077 7.9795L86.3607 8.1087C86.4891 7.75067 86.7063 7.43133 86.9919 7.1808C87.2775 6.93028 87.622 6.75683 87.993 6.67682C88.669 6.49699 89.3663 6.41007 90.0656 6.41844C90.7573 6.37027 91.452 6.44684 92.1167 6.64453C92.4454 6.75885 92.7469 6.94036 93.002 7.17758C93.2571 7.41479 93.4603 7.70253 93.5987 8.02257C93.8376 8.65593 93.9018 9.34214 93.7846 10.009C93.6675 10.6759 93.3732 11.2988 92.9329 11.8122C92.088 12.7448 91.089 13.5242 89.9797 14.1161L90.0549 13.9116C90.142 14.1334 90.2883 14.327 90.4776 14.4713C90.667 14.6156 90.8922 14.705 91.1287 14.7298C91.6391 14.8136 92.1622 14.773 92.6536 14.6113C93.1604 14.4368 93.6814 14.3071 94.2107 14.2238C94.7594 14.1327 95.3225 14.2395 95.8001 14.5252C96.7236 15.0958 97.2713 16.0109 98.1197 16.42C98.5785 16.5627 99.0445 16.6813 99.5157 16.7753C99.7465 16.8935 99.9499 17.059 100.113 17.2612C100.276 17.4634 100.394 17.6977 100.461 17.9488L101.309 20.608C101.398 20.836 101.435 21.0813 101.416 21.3255C101.398 21.5697 101.324 21.8065 101.202 22.0183C100.926 22.4097 100.511 22.6796 100.042 22.7719C99.6033 22.8689 99.1489 22.8689 98.7103 22.7719C98.2998 22.6587 97.9007 22.5074 97.5183 22.3198C96.8305 21.9259 96.0775 21.6596 95.2954 21.5339V21.297C96.2123 21.6272 97.0938 22.0492 97.9264 22.5566C98.7139 23.0318 99.3536 23.7178 99.7734 24.5376C100.12 25.3164 100.185 26.1922 99.956 27.0137C99.8553 27.3983 99.6538 27.7488 99.3725 28.029C99.0911 28.3091 98.7401 28.5087 98.3559 28.6071C97.7163 29.0202 96.9689 29.2338 96.2082 29.2208L96.3048 29.1239C96.5774 31.2022 97.1906 33.2211 98.1197 35.099H98.066C99.0799 35.0883 100.091 35.2114 101.073 35.465C101.764 35.6593 102.393 36.0303 102.898 36.5416C103.189 36.8494 103.408 37.2167 103.543 37.6182C103.59 37.7462 103.619 37.8803 103.629 38.0166C103.507 37.481 103.235 36.9916 102.845 36.6062C102.347 36.0961 101.725 35.7251 101.041 35.5296C100.065 35.2861 99.0607 35.1739 98.0552 35.1959C97.1031 33.307 96.4681 31.2737 96.1759 29.1777V29.07H96.2833C97.0178 29.0856 97.7399 28.8792 98.3559 28.4779C98.7053 28.3845 99.0236 28.1997 99.2784 27.9425C99.5331 27.6852 99.7151 27.3647 99.8056 27.0137C100.024 26.238 99.9589 25.4098 99.6231 24.6775C99.2185 23.9023 98.6045 23.2568 97.8512 22.815C97.0245 22.3235 96.1546 21.9091 95.2524 21.5769L94.5115 21.2862H95.3061C96.1215 21.4007 96.9082 21.6673 97.6257 22.0722C97.9885 22.2565 98.3701 22.4009 98.764 22.5028C99.1639 22.5889 99.5775 22.5889 99.9775 22.5028C100.374 22.4212 100.726 22.1948 100.965 21.8676C101.061 21.6867 101.117 21.4871 101.128 21.2826C101.139 21.0781 101.106 20.8736 101.03 20.6834L100.267 18.0242C100.214 17.8114 100.117 17.6123 99.9818 17.4398C99.8468 17.2673 99.6769 17.1252 99.4835 17.0229C99.0041 16.9339 98.5307 16.8153 98.066 16.6676C97.1102 16.1939 96.5625 15.2681 95.7249 14.7728C94.8873 14.2776 93.8349 14.5898 92.8255 14.8913C92.2902 15.0727 91.7189 15.1208 91.1609 15.0312C90.8518 15.0024 90.5573 14.8858 90.312 14.6951C90.0666 14.5045 89.8805 14.2476 89.7757 13.9546V13.8254L89.8938 13.7608C90.9628 13.1825 91.9252 12.4251 92.7395 11.5215C93.1395 11.0611 93.4075 10.5007 93.5153 9.89978C93.6231 9.29889 93.5665 8.67996 93.3517 8.1087C93.2166 7.8233 93.0206 7.5712 92.7775 7.37025C92.5343 7.16931 92.2501 7.02446 91.9449 6.94597C91.3211 6.76539 90.6698 6.69973 90.0226 6.75218C89.3596 6.74746 88.6988 6.83073 88.0575 6.9998C87.7469 7.06016 87.4572 7.1999 87.2164 7.4055C86.9756 7.6111 86.7918 7.87557 86.6829 8.17329L86.6292 8.36708L86.4359 8.30249C86.0335 8.20466 85.6154 8.18972 85.207 8.25859C84.7987 8.32746 84.4085 8.4787 84.0601 8.70316C83.7117 8.92761 83.4124 9.2206 83.1803 9.56439C82.9481 9.90819 82.788 10.2956 82.7096 10.7033V10.8863H82.527L79.3054 10.5633H78.8973L79.1765 10.2619C79.7215 9.71206 80.3105 9.20796 80.9377 8.75466C81.5505 8.34473 82.0406 7.77532 82.3552 7.10746C82.4913 6.77747 82.5468 6.41963 82.5169 6.0638C82.487 5.70796 82.3726 5.36445 82.1834 5.06193C82.0762 4.93231 81.9416 4.82831 81.7892 4.75753C81.6369 4.68675 81.4707 4.65098 81.3028 4.65282C80.8796 4.68601 80.454 4.64223 80.0464 4.52363C79.6276 4.31908 79.3591 4.04993 79.0799 4.14682C78.735 4.302 78.4074 4.49326 78.1026 4.71742L76.0623 6.06316L71.8742 8.80849L71.2621 9.20682L71.552 8.53934C71.9601 7.5704 72.3789 6.60146 72.7977 5.62175C73.2642 4.67415 73.6244 3.67759 73.8716 2.65035C73.9784 2.1622 73.9411 1.65343 73.7642 1.18618C73.6708 0.969566 73.5225 0.781145 73.3342 0.639537C73.1459 0.497929 72.9239 0.408036 72.6903 0.378733C72.1934 0.397336 71.717 0.582456 71.3374 0.904489C70.9578 1.22652 70.6968 1.66687 70.5963 2.15512V2.4135L70.3493 2.33814C70.0713 2.28059 69.7841 2.28346 69.5072 2.34657C69.2304 2.40967 68.9702 2.53154 68.7443 2.70396C68.5184 2.87637 68.3319 3.09533 68.1976 3.34609C68.0632 3.59684 67.984 3.87356 67.9653 4.15759V4.5021L67.6431 4.37291C67.2384 4.20705 66.7905 4.17895 66.3683 4.2929C65.946 4.40686 65.5728 4.65656 65.3057 5.00372C65.0387 5.35087 64.8927 5.77628 64.8901 6.21465C64.8875 6.65302 65.0285 7.08013 65.2914 7.43044L65.5706 7.80725H65.1088C64.0101 7.83047 62.9379 8.15032 62.0053 8.73313L61.6187 8.98074V8.52857C61.583 8.22797 61.469 7.94211 61.288 7.69978C61.107 7.45745 60.8655 7.2672 60.5879 7.14822C60.3102 7.02924 60.0062 6.98571 59.7064 7.02202C59.4067 7.05834 59.1217 7.17321 58.8803 7.35508L58.4937 7.74265V7.20435C58.523 6.57843 58.37 5.95749 58.0535 5.41721C57.7528 4.98657 56.9796 4.80354 56.6789 5.20188L56.0024 6.10623L56.2494 5.02963C56.336 4.61599 56.292 4.18557 56.1234 3.79814C55.9549 3.41071 55.6702 3.08551 55.3089 2.86771C54.9476 2.6499 54.5276 2.5503 54.1073 2.58273C53.6869 2.61516 53.2871 2.77802 52.9633 3.04869L52.77 3.19941L52.6089 3.01639L51.535 1.65988L51.7176 1.74601C51.2003 1.6955 50.6793 1.79189 50.2141 2.02414C49.7488 2.2564 49.3581 2.61517 49.0866 3.05946C48.6463 3.90997 49.3229 5.29878 50.2786 5.21265V5.70788C50.1175 5.70788 50.0639 5.70789 50.0102 5.92321C49.962 6.11399 49.962 6.31379 50.0102 6.50456C50.1164 6.93324 50.3267 7.32897 50.6222 7.65653L52.2868 9.97121L51.9109 10.305C51.541 9.9557 51.0652 9.74052 50.5593 9.6937C50.0533 9.64687 49.5462 9.77109 49.1188 10.0466L48.9363 10.1865L48.7859 10.0143C48.6277 9.85051 48.4383 9.7203 48.2289 9.63137C48.0196 9.54244 47.7945 9.49661 47.5671 9.49661C47.3397 9.49661 47.1146 9.54244 46.9052 9.63137C46.6959 9.7203 46.5064 9.85051 46.3482 10.0143L46.0905 10.3265L45.9294 9.96045C45.7837 9.75942 45.5849 9.60315 45.3554 9.50925C45.1259 9.41534 44.8748 9.38753 44.6304 9.42892C44.386 9.47032 44.1579 9.5793 43.972 9.74358C43.786 9.90786 43.6494 10.1209 43.5776 10.3588L43.4702 11.6292L43.0837 10.4126C42.987 10.0896 42.4286 10.025 41.9346 10.0789C41.4234 10.1133 40.9185 10.2109 40.4312 10.3696C40.2117 10.4387 40.0122 10.56 39.8495 10.723C39.6869 10.8861 39.5659 11.0862 39.4969 11.3062C39.3788 11.7476 39.4969 12.2644 39.8835 12.3828L39.6688 12.8565C39.3144 12.6412 38.7882 12.9426 38.5949 13.3733C38.5051 13.6043 38.4767 13.8547 38.5125 14.1001C38.5483 14.3454 38.647 14.5772 38.7989 14.7728C39.3681 15.7095 40.5708 16.2047 41.2044 17.3782L41.8058 18.4548L40.8071 17.6473C40.0661 17.0552 38.8633 17.249 37.8002 17.2705C36.7329 17.2765 35.6815 17.5308 34.7289 18.0134L34.4712 18.1749L34.3638 17.895C34.2242 17.5289 33.6014 17.4751 33.0967 17.5827C32.5379 17.6897 31.9911 17.852 31.4644 18.0672C30.4026 18.4931 29.4273 19.1097 28.5864 19.8867C28.1608 20.2435 27.8166 20.6877 27.5769 21.1894C27.4524 21.4041 27.4058 21.6554 27.4449 21.9006C27.484 22.1459 27.6066 22.3701 27.7917 22.5351C28.2434 22.8865 28.7208 23.2032 29.22 23.4825L30.7341 24.4191L32.7315 25.6572L33.2148 25.9587L32.6671 26.1309C30.3426 26.8631 28.3065 28.3093 26.8467 30.2651C25.8802 30.8141 24.8171 30.868 24.1191 31.4386C23.9687 31.573 23.8501 31.7394 23.7721 31.9257C23.6941 32.112 23.6585 32.3134 23.6681 32.5151C23.6681 32.935 23.8936 33.2688 24.2265 33.2472H25.0426L24.3875 33.7532C24.1955 33.9141 24.0432 34.1174 23.9426 34.3471C23.842 34.5769 23.7958 34.8268 23.8076 35.0774C23.818 35.3141 23.8885 35.5442 24.0126 35.7458C24.1366 35.9475 24.3101 36.1139 24.5164 36.2294C24.8754 36.7546 25.4078 37.1359 26.0198 37.306H26.1057V37.3706C26.3072 37.632 26.5686 37.8409 26.8677 37.9796C27.1668 38.1182 27.4948 38.1826 27.8239 38.1673L28.5971 38.0919L28.0172 38.6087C27.032 39.4109 26.2516 40.4369 25.7406 41.6016C25.504 42.1331 25.415 42.7188 25.483 43.2968C25.5511 43.8748 25.7736 44.4236 26.1272 44.8852V44.9498C26.2159 45.3898 26.4746 45.7768 26.8467 46.0264L27.0508 46.1449L26.9434 46.3602C26.7982 46.634 26.7526 46.9499 26.8145 47.2538V47.4691L26.6105 47.5444C25.638 47.9268 24.8471 48.6658 24.3983 49.6115C24.1781 50.0721 24.0514 50.572 24.0256 51.0821C23.9998 51.5922 24.0753 52.1023 24.2479 52.5829C24.3966 53.0557 24.6373 53.4942 24.9562 53.8731C25.2751 54.2519 25.6658 54.5636 26.1057 54.7899C26.539 54.9622 27.0132 55.0034 27.4695 54.9084C27.6537 54.9057 27.8329 54.848 27.9841 54.7424C28.1353 54.6369 28.2515 54.4885 28.3179 54.3162L28.3823 53.3365L28.8012 54.2301C29.0215 54.6798 29.3479 55.0687 29.7521 55.3633C30.1563 55.6578 30.6261 55.8491 31.1207 55.9204H31.4859L31.3033 56.2541C31.1243 56.6195 31.0222 57.0178 31.0031 57.4243C30.9841 57.8309 31.0485 58.237 31.1925 58.6176C31.3365 58.9981 31.5569 59.345 31.8401 59.6366C32.1234 59.9282 32.4633 60.1584 32.8389 60.3129L33.2685 60.4528L32.9141 60.7435C32.5201 61.1102 32.233 61.5774 32.0836 62.0952C31.9341 62.6129 31.9279 63.1616 32.0657 63.6826C32.1526 64.1847 32.3687 64.6554 32.6927 65.0482C33.0166 65.4409 33.4372 65.7421 33.9128 65.9219L34.149 65.9973L34.0631 66.2342C33.8782 66.8468 33.9371 67.5073 34.2274 68.0774C34.5177 68.6474 35.0169 69.0826 35.6202 69.2917C36.2068 69.442 36.828 69.373 37.3675 69.0976C37.907 68.8222 38.3281 68.3592 38.5519 67.7952L38.7345 67.2569L38.9922 67.7629C39.3772 68.7361 40.0475 69.5694 40.9145 70.153C41.1058 70.2665 41.3177 70.3407 41.5379 70.3713C41.7581 70.4019 41.9822 70.3882 42.1971 70.3311C42.412 70.274 42.6134 70.1746 42.7896 70.0386C42.9657 69.9027 43.1132 69.7329 43.2233 69.5393L43.4488 68.8611L43.6636 69.5501C43.8408 70.0264 44.1277 70.4541 44.5009 70.7983C44.8741 71.1426 45.3231 71.3936 45.8113 71.531C46.2686 71.6775 46.7528 71.7197 47.2284 71.6545C47.7041 71.5893 48.1591 71.4184 48.5604 71.1542L48.9363 70.8635V71.348C48.9349 71.8939 49.1405 72.4199 49.5113 72.8196C49.8821 73.2194 50.3905 73.463 50.9337 73.5012C51.4438 73.5091 51.94 73.3347 52.3336 73.0092C52.7271 72.6837 52.9922 72.2284 53.0814 71.7248V71.531H53.2747H59.2992C61.2341 71.6328 63.1703 71.3586 65.0014 70.7236C65.8806 70.3801 66.7082 69.9163 67.4606 69.3455C67.8339 69.0312 68.2286 68.7435 68.6418 68.4843C69.1207 68.2323 69.6768 68.1708 70.199 68.312C71.0791 68.6015 71.9855 68.8034 72.9051 68.9149C73.8062 68.9889 74.7132 68.9382 75.6005 68.7642C77.3411 68.4229 78.9496 67.5942 80.2397 66.3741C80.5567 66.0391 80.918 65.7494 81.3135 65.5128C81.7343 65.3036 82.197 65.1931 82.6666 65.1899C83.5245 65.1946 84.3817 65.1442 85.2332 65.0391C86.068 64.9328 86.8936 64.7637 87.7031 64.5331C88.4845 64.3244 89.2153 63.958 89.8508 63.4565C90.1532 63.228 90.3899 62.9235 90.537 62.5737C90.6841 62.2239 90.7363 61.8414 90.6884 61.4648C90.6703 61.1025 90.5243 60.7585 90.2764 60.4942C90.0285 60.2299 89.695 60.0626 89.3354 60.0222H89.1743V59.8499C89.0836 59.1757 89.2076 58.49 89.5287 57.8905C89.6968 57.5919 89.9398 57.3425 90.2337 57.1669C90.5275 56.9913 90.8619 56.8956 91.2039 56.8893C91.541 56.8547 91.8791 56.9451 92.1541 57.1435C92.4292 57.3419 92.6222 57.6345 92.6966 57.9659C92.7674 58.2969 92.7057 58.6424 92.525 58.9283C92.3443 59.2142 92.0588 59.4176 91.7301 59.4947L91.8053 59.1825C92.1376 59.3724 92.5183 59.4604 92.9001 59.4356C93.2819 59.4107 93.648 59.274 93.953 59.0425C94.2888 58.8483 94.5659 58.5667 94.755 58.2274C94.9441 57.8881 95.038 57.5039 95.0269 57.1154C94.9235 56.3685 94.5549 55.6841 93.9888 55.1877C93.4227 54.6914 92.697 54.4163 91.9449 54.4131H91.7408V54.2086C92.0713 53.0477 92.1046 51.8221 91.8375 50.645L91.6979 49.9991L92.106 50.5266C92.5243 51.0103 93.1088 51.3186 93.7434 51.3904C94.3779 51.4622 95.0162 51.2922 95.5316 50.9142L95.6605 50.8173L95.7464 50.9465C96.2638 51.7965 97.0336 52.4628 97.9478 52.8521C98.3762 53.0278 98.8401 53.0989 99.3012 53.0596C99.7624 53.0203 100.208 52.8716 100.6 52.626C100.977 52.4135 101.273 52.0811 101.44 51.6814C101.607 51.2816 101.637 50.8374 101.524 50.419C101.429 50.0273 101.204 49.6797 100.886 49.4332C100.568 49.1866 100.175 49.0559 99.7734 49.0624H99.5372L99.6553 48.8471C99.814 48.5053 99.8854 48.1293 99.863 47.7529C99.8406 47.3765 99.7251 47.0117 99.5269 46.6912C99.3288 46.3708 99.0542 46.1048 98.7279 45.9174C98.4016 45.7299 98.0339 45.6268 97.6579 45.6173H97.529V45.4774C97.6381 44.6924 97.487 43.8933 97.099 43.2028C96.7109 42.5123 96.1075 41.9687 95.3813 41.6555L95.4564 41.494C95.6924 41.6232 95.9536 41.6996 96.2219 41.7178C96.4901 41.736 96.7591 41.6955 97.0103 41.5993C97.2615 41.5031 97.4889 41.3534 97.6767 41.1604C97.8645 40.9675 98.0083 40.736 98.0982 40.482V40.3205L98.1948 40.4604C98.3545 40.7022 98.5715 40.9005 98.8264 41.0377C99.0812 41.1748 99.366 41.2465 99.6553 41.2463C100.171 41.2704 100.686 41.1898 101.169 41.0095C101.929 40.748 102.609 40.2958 103.145 39.696C103.446 39.315 103.616 38.8467 103.629 38.3611C103.747 38.1027 103.704 37.9412 103.715 37.9412Z" fill="#8F8F8F"/>
<path d="M76.8571 81.8492C76.7605 78.6732 76.6853 76.1755 76.7175 76.1755C76.7497 76.1755 87.5314 74.6145 87.7891 63.7947C87.918 58.5732 87.2951 47.7964 86.6293 38.0424C86.2815 32.9867 84.0476 28.2476 80.3722 24.7684C76.6968 21.2892 71.8495 19.3249 66.7949 19.2666H65.721C54.4883 19.7941 48.6572 29.6558 49.4841 40.8954L50.6331 82.0645L57.0764 97.729C63.4552 104.738 77.2329 91.3448 76.8678 81.8599L76.8571 81.8492Z" fill="#C78976"/>
<path d="M76.7819 76.1579C71.7961 76.0943 66.9328 74.5998 62.7678 71.8516C62.7678 71.8516 65.9895 80.1414 76.7819 79.2909V76.1579Z" fill="#8B5D54"/>
<path d="M82.4629 47.6717C82.4603 48.0737 82.302 48.4589 82.0215 48.7461C81.741 49.0333 81.3602 49.2001 80.9595 49.2113C80.7634 49.2229 80.5669 49.1956 80.3814 49.131C80.1958 49.0664 80.0248 48.9657 79.8781 48.8346C79.7315 48.7036 79.6121 48.5449 79.5267 48.3675C79.4414 48.1901 79.3918 47.9976 79.3809 47.8009C79.3807 47.3971 79.5377 47.0092 79.8185 46.7196C80.0993 46.4301 80.4817 46.2618 80.8843 46.2506C81.0813 46.239 81.2785 46.2667 81.4648 46.332C81.651 46.3973 81.8225 46.4989 81.9693 46.6311C82.1161 46.7632 82.2353 46.9232 82.32 47.1019C82.4047 47.2805 82.4533 47.4742 82.4629 47.6717Z" fill="#272727"/>
<path d="M84.331 42.4737C84.1377 42.6675 82.9779 41.7847 81.3242 41.7739C79.6704 41.7632 78.4355 42.5706 78.2637 42.3661C78.0918 42.1615 78.371 41.9139 78.908 41.5371C79.6311 41.0497 80.4851 40.7944 81.3564 40.805C82.2198 40.8134 83.0582 41.0961 83.7511 41.6125C84.2558 42.0323 84.4277 42.3984 84.331 42.4737Z" fill="#272727"/>
<path d="M67.8257 48.4739C67.8258 48.8767 67.6685 49.2635 67.3874 49.5513C67.1063 49.8391 66.724 50.005 66.3223 50.0135C66.1261 50.0281 65.929 50.0028 65.7428 49.9392C65.5566 49.8755 65.3851 49.7748 65.2387 49.6431C65.0923 49.5114 64.9739 49.3514 64.8907 49.1727C64.8075 48.994 64.7611 48.8002 64.7544 48.6031C64.7515 48.2014 64.9065 47.8146 65.1858 47.5265C65.4652 47.2383 65.8464 47.0721 66.2471 47.0636C66.4439 47.049 66.6415 47.0742 66.8283 47.1377C67.0151 47.2012 67.1873 47.3018 67.3346 47.4334C67.4818 47.5649 67.6012 47.7249 67.6856 47.9036C67.77 48.0824 67.8176 48.2763 67.8257 48.4739Z" fill="#272727"/>
<path d="M68.0515 42.9659C67.8582 43.1704 66.6984 42.2876 65.0447 42.2769C63.3909 42.2661 62.1559 43.0736 61.9841 42.869C61.8123 42.6645 62.0915 42.4168 62.6284 42.04C63.3516 41.5527 64.2056 41.2973 65.0769 41.3079C65.9405 41.3148 66.7793 41.5977 67.4716 42.1154C68.0515 42.4707 68.1696 42.8798 68.0515 42.9659Z" fill="#272727"/>
<path d="M73.8717 55.8215C74.7503 55.5517 75.6598 55.3962 76.5779 55.3585C76.9967 55.3585 77.4047 55.2401 77.4799 54.9494C77.5135 54.5124 77.4203 54.0749 77.2114 53.6898C76.8249 52.6132 76.4168 51.5366 75.998 50.46C74.312 45.8307 73.0878 42.0303 73.2811 41.9657C73.4744 41.9011 74.9778 45.5938 76.6638 50.2124L77.8343 53.4422C78.0916 53.9586 78.16 54.5492 78.0276 55.1109C77.9645 55.2591 77.869 55.3911 77.7482 55.4973C77.6273 55.6035 77.4843 55.6812 77.3296 55.7246C77.0938 55.7803 76.8524 55.8092 76.6101 55.8107C75.701 55.9248 74.7816 55.9284 73.8717 55.8215Z" fill="#272727"/>
<path d="M68.5343 37.3517C68.3625 37.8038 66.7087 37.567 64.765 37.7823C62.8213 37.9976 61.232 38.5144 60.985 38.1161C60.8669 37.9115 61.146 37.4916 61.7796 37.0395C62.6319 36.5103 63.5932 36.1829 64.5906 36.0821C65.588 35.9814 66.5952 36.11 67.5356 36.4581C68.2443 36.7811 68.6095 37.1364 68.5343 37.3517Z" fill="#272727"/>
<path d="M83.73 36.8779C83.44 37.2655 82.291 36.8779 80.9164 36.8779C79.5419 36.8779 78.3821 37.1579 78.1136 36.7703C77.9955 36.5765 78.1673 36.1997 78.6721 35.8336C79.3487 35.3934 80.1422 35.1683 80.9487 35.1877C81.7594 35.1928 82.548 35.4526 83.2038 35.9305C83.687 36.3073 83.8481 36.6949 83.73 36.8779Z" fill="#272727"/>
<path d="M75.4829 60.0965C75.2997 60.7393 75.0248 61.3521 74.6667 61.916C74.4881 62.2005 74.2511 62.4437 73.9715 62.6293C73.692 62.8149 73.3762 62.9388 73.0451 62.9926C72.6891 63.008 72.3349 62.9345 72.0143 62.7785C71.6938 62.6225 71.417 62.389 71.2088 62.099C70.8054 61.511 70.5986 60.8099 70.6182 60.0965C70.6182 59.4506 70.8652 58.6754 71.4988 58.5678C71.7667 58.5463 72.0358 58.5907 72.2827 58.697L75.6869 59.892" fill="#8B5D54"/>
<path d="M74.2799 62.9268C73.6792 62.9905 73.072 62.9468 72.4866 62.7976C71.8925 62.594 71.3925 62.1807 71.0798 61.6349C70.9079 61.3058 70.8058 60.9446 70.7799 60.5741C70.754 60.2035 70.8049 59.8316 70.9294 59.4817C70.9971 59.2989 71.0872 59.1253 71.1979 58.9649C71.3268 58.8142 71.3053 58.825 71.4449 58.8357C71.5845 58.8465 71.81 58.9649 71.9926 59.0188L72.551 59.2233C73.2812 59.4709 73.9363 59.697 74.4947 59.8693C75.0812 60.1233 75.7051 60.2796 76.3418 60.3322C75.8245 59.9606 75.2519 59.6736 74.6451 59.4817C74.1081 59.2448 73.4638 58.9865 72.7443 58.7065L72.1859 58.4912C71.9835 58.402 71.7754 58.3265 71.563 58.2651C71.4032 58.2085 71.2288 58.2085 71.069 58.2651C70.9272 58.3337 70.8052 58.4375 70.7147 58.5666C70.5754 58.7715 70.46 58.9919 70.371 59.2233C70.2109 59.6582 70.1491 60.1232 70.19 60.5849C70.2308 61.0466 70.3733 61.4935 70.6073 61.8933C70.7993 62.2161 71.0542 62.4969 71.3567 62.7189C71.6593 62.9408 72.0034 63.0994 72.3684 63.1852C72.8425 63.3185 73.344 63.3185 73.8181 63.1852C74.1403 63.0668 74.2906 62.9268 74.2799 62.9268Z" fill="#272727"/>
<path d="M89.4645 29.0301C89.4189 28.4875 89.34 27.9482 89.2282 27.4153C88.9263 26.6298 88.4313 25.9336 87.7892 25.3913C85.7274 23.3565 83.5474 21.2679 80.9594 20.5896C79.3701 20.1805 77.7378 20.3313 76.1377 19.9437C75.1606 19.6344 74.2001 19.275 73.2597 18.8671C69.3111 17.5739 65.0921 17.3474 61.0283 18.2104C58.7279 18.5333 56.5029 19.2623 54.4562 20.3635C52.208 21.8151 50.2187 23.6347 48.5714 25.7465C45.787 28.8688 43.5666 32.4537 42.01 36.3402C40.7283 39.5102 40.3998 42.9869 41.065 46.3418C41.8489 49.6793 44.2007 52.6722 47.068 53.1352L48.0774 51.7571L49.6775 49.7331C49.409 50.5406 49.6775 50.4867 50.354 50.8097C50.5229 50.8988 50.7085 50.9515 50.899 50.9641C51.0894 50.9768 51.2804 50.9493 51.4595 50.8834C51.6387 50.8174 51.802 50.7145 51.939 50.5812C52.076 50.448 52.1836 50.2874 52.2548 50.1099C52.8347 50.7666 53.9622 49.9484 53.726 49.0333C54.4025 49.3455 55.165 48.4089 54.8965 47.6122C55.6697 47.8383 55.9704 46.5356 56.3355 45.7389C56.5073 45.2868 56.7758 44.8777 56.9906 44.447C57.7085 43.0243 58.0066 41.4258 57.8496 39.8392C58.6276 38.4643 59 36.8963 58.9235 35.3175C58.9235 34.3162 58.9987 33.315 59.0416 32.3138C59.2027 32.0662 59.3638 31.8185 59.5356 31.5709C59.5563 31.9082 59.6827 32.2303 59.8968 32.4912C60.1108 32.7522 60.4016 32.9388 60.7276 33.0243C61.33 33.1284 61.9493 33.0689 62.521 32.8521L64.2607 32.3568L65.399 32.5829C65.2643 33.5766 65.4606 34.587 65.9574 35.4574C66.124 36.1185 66.5248 36.6963 67.085 37.0831C67.227 37.1263 67.3778 37.1314 67.5224 37.0979C67.667 37.0644 67.8004 36.9934 67.909 36.892C68.0177 36.7907 68.098 36.6626 68.1418 36.5204C68.1857 36.3782 68.1915 36.227 68.1588 36.0819C68.2689 36.1697 68.3976 36.2312 68.535 36.2616C68.6724 36.2921 68.8149 36.2906 68.9517 36.2574C69.0884 36.2241 69.2158 36.16 69.3241 36.0699C69.4323 35.9797 69.5186 35.866 69.5764 35.7374C69.8502 35.1575 69.9366 34.5063 69.8233 33.8748C69.6568 32.3344 69.0404 30.8776 68.0514 29.6869L71.359 32.3245C71.574 32.5399 71.8528 32.6796 72.1536 32.7229C72.1506 32.843 72.1739 32.9624 72.222 33.0724C72.2701 33.1825 72.3419 33.2806 72.4321 33.3597C72.5223 33.4389 72.6288 33.4971 72.744 33.5303C72.8592 33.5635 72.9803 33.5709 73.0987 33.5519C73.5411 33.3905 73.9184 33.0879 74.1725 32.6906C74.8598 31.8401 75.5363 30.4297 74.7954 29.6008C74.8814 29.5537 74.9563 29.4889 75.0153 29.4104C75.0742 29.332 75.1158 29.2419 75.1371 29.146C75.1585 29.0502 75.1591 28.9509 75.1391 28.8548C75.119 28.7587 75.0787 28.668 75.0209 28.5887L78.7257 30.968C78.3606 30.7958 78.017 31.3771 78.1351 31.8185C78.2809 32.2296 78.5659 32.5763 78.9405 32.7982C78.6773 33.3198 78.587 33.9119 78.6828 34.4885C78.0062 33.9717 77.1472 35.1022 77.4264 35.985C77.5725 36.3839 77.842 36.7255 78.1956 36.9599C78.5491 37.1942 78.9682 37.3091 79.3915 37.2877C79.7353 37.3116 80.0758 37.2071 80.3474 36.9945C80.619 36.7818 80.8026 36.4759 80.8627 36.1357C81.6359 36.2326 82.291 35.0591 81.9366 34.2732C82.5272 34.5962 82.9246 33.5626 82.8924 32.7982C82.837 31.4714 82.5423 30.1655 82.0225 28.944C82.0368 28.968 82.0557 28.9888 82.0783 29.0051C82.1008 29.0215 82.1264 29.033 82.1536 29.0391C82.1808 29.0451 82.2089 29.0455 82.2362 29.0403C82.2635 29.0351 82.2895 29.0243 82.3125 29.0086C82.3491 28.9663 82.3716 28.9136 82.3769 28.8579L84.5784 33.1643C85.2909 34.3693 85.7683 35.6992 85.9851 37.0831C86.0496 37.6537 86.1784 38.4396 86.6616 38.4504C86.7945 38.4505 86.9234 38.4049 87.0268 38.3212C88.3996 37.3777 89.4078 35.9906 89.8833 34.3916C90.0849 33.8347 90.2008 33.2502 90.2269 32.6583C90.0668 31.4309 89.8119 30.2179 89.4645 29.0301Z" fill="#272727"/>
<path d="M74.0866 27.5279C74.2936 27.2717 74.424 26.9618 74.4625 26.6343C74.477 26.4523 74.4497 26.2693 74.3827 26.0995C74.3156 25.9296 74.2107 25.7775 74.0758 25.6546C73.9008 25.501 73.687 25.3987 73.4578 25.3588C73.2286 25.3189 72.9929 25.343 72.7765 25.4286L72.508 25.547L72.6046 25.2671C72.6818 25.006 72.6769 24.7274 72.5904 24.4692C72.5039 24.211 72.3402 23.9859 72.1214 23.8244C71.8672 23.6596 71.5632 23.5898 71.2628 23.6272C70.9624 23.6646 70.6847 23.8068 70.4784 24.029L70.2421 23.8352C70.2799 23.7842 70.3055 23.7253 70.3173 23.6629C70.3383 23.5648 70.3386 23.4634 70.3183 23.3651C70.2979 23.2669 70.2574 23.174 70.1992 23.0923C70.0563 22.9208 69.8519 22.8125 69.63 22.7909C69.408 22.7709 69.1843 22.8003 68.9749 22.877C68.7525 23.0102 68.5028 23.0911 68.2447 23.1139C67.9226 23.1139 67.7615 22.8555 67.5897 22.7694C67.4199 22.6529 67.2358 22.5588 67.042 22.4895C66.6975 22.3685 66.3325 22.3173 65.9681 22.3387C65.4262 22.3626 64.9018 22.5379 64.454 22.8447C64.1318 23.06 64.0029 23.2323 63.9814 23.2215C64.0729 23.0332 64.2094 22.8705 64.3788 22.7478C64.8307 22.3859 65.3807 22.1684 65.9574 22.1234C66.3557 22.0895 66.7569 22.1334 67.1386 22.2526C67.3499 22.3252 67.5518 22.4228 67.74 22.5433C67.944 22.6617 68.1051 22.834 68.2662 22.834C68.4831 22.7998 68.6911 22.723 68.8783 22.6079C69.1354 22.5121 69.4106 22.4754 69.6837 22.5002C69.9794 22.5302 70.2523 22.6728 70.4462 22.8986C70.5459 23.0202 70.6177 23.1623 70.6567 23.3149C70.6956 23.4674 70.7008 23.6266 70.6717 23.7814C70.6397 23.8794 70.5965 23.9733 70.5428 24.0613L70.3066 23.8675C70.5625 23.5905 70.9089 23.4143 71.2831 23.3709C71.6573 23.3275 72.0346 23.4196 72.3469 23.6306C72.6126 23.8292 72.8087 24.107 72.9071 24.4242C73.0055 24.7414 73.0011 25.0817 72.8946 25.3963L72.7228 25.2348C72.9831 25.1367 73.2655 25.113 73.5385 25.1662C73.8115 25.2194 74.0644 25.3475 74.2692 25.5362C74.4214 25.6828 74.536 25.8641 74.6033 26.0647C74.6707 26.2652 74.6886 26.4791 74.6557 26.6882C74.6301 26.9502 74.5252 27.1981 74.3551 27.3987C74.2729 27.4556 74.1823 27.4992 74.0866 27.5279Z" fill="#8F8F8F"/>
<path d="M81.6681 28.8093C81.9063 28.5629 82.0765 28.2587 82.1621 27.9265C82.2462 27.5601 82.1887 27.1754 82.001 26.8499C81.869 26.6341 81.6867 26.4537 81.4697 26.3243C81.2526 26.1949 81.0075 26.1203 80.7553 26.1071H80.5406L80.6694 25.924C80.8597 25.6958 80.9931 25.4254 81.0585 25.1352C81.1238 24.845 81.1193 24.5434 81.0453 24.2553C80.9921 24.1085 80.905 23.9763 80.7912 23.8697C80.6773 23.763 80.5399 23.6849 80.3902 23.6416C80.2441 23.5788 80.0821 23.5626 79.9265 23.5953C79.7708 23.6281 79.629 23.7082 79.5204 23.8247L78.7472 24.8044L79.2734 23.6739C79.3684 23.47 79.4176 23.2477 79.4176 23.0226C79.4176 22.7975 79.3684 22.5752 79.2734 22.3713C79.1751 22.1591 79.0253 21.975 78.8377 21.8358C78.6501 21.6966 78.4307 21.6068 78.1995 21.5746C77.859 21.5184 77.5096 21.5831 77.2116 21.7576L76.8787 21.9621L76.9861 21.5853C77.1471 21.0578 76.578 20.5087 76.0518 20.5087C75.4996 20.4766 74.9523 20.6279 74.4947 20.9394L74.2154 21.1224L74.2799 20.7994C74.316 20.5955 74.2926 20.3855 74.2126 20.1945C74.1326 20.0035 73.9994 19.8398 73.8289 19.7228C73.5143 19.4982 73.1409 19.371 72.755 19.3568C72.1142 19.3058 71.4696 19.3752 70.8542 19.5613C70.3085 19.739 69.7858 19.9811 69.2971 20.2827C69.2971 20.2827 69.4045 20.1535 69.6515 19.9812C70.575 19.3685 71.6707 19.0703 72.7765 19.1307C73.2016 19.1484 73.6139 19.2824 73.9685 19.5183C74.1688 19.6634 74.3264 19.86 74.4247 20.0873C74.5229 20.3147 74.5582 20.5644 74.5269 20.8102L74.3228 20.6702C74.8129 20.2848 75.4182 20.0762 76.041 20.0781C76.3892 20.1074 76.7142 20.2646 76.9538 20.5195C77.0937 20.6565 77.1937 20.8291 77.2429 21.0189C77.2921 21.2086 77.2887 21.4082 77.233 21.5961L77.0075 21.4238C77.3698 21.2207 77.7883 21.1414 78.1995 21.1978C78.483 21.2355 78.7525 21.3439 78.9833 21.5132C79.2141 21.6825 79.3988 21.9072 79.5204 22.1667C79.6367 22.4104 79.697 22.6771 79.697 22.9472C79.697 23.2174 79.6367 23.4841 79.5204 23.7278L79.2841 23.5663C79.4311 23.4075 79.6225 23.2968 79.8333 23.2488C80.044 23.2008 80.2643 23.2176 80.4654 23.2971C80.6536 23.3576 80.8253 23.461 80.9669 23.5993C81.1085 23.7375 81.2162 23.9068 81.2815 24.0938C81.3699 24.4215 81.3759 24.7661 81.299 25.0967C81.2222 25.4274 81.065 25.7338 80.8413 25.9886L80.7553 25.8056C81.0419 25.8282 81.3184 25.9217 81.5602 26.0776C81.8019 26.2335 82.0013 26.4471 82.1406 26.6992C82.2471 26.887 82.3144 27.0945 82.3384 27.3092C82.3624 27.5239 82.3426 27.7413 82.2802 27.948C82.1994 28.2007 82.0637 28.4324 81.8829 28.6263C81.754 28.777 81.6681 28.8201 81.6681 28.8093Z" fill="#8F8F8F"/>
<path d="M97.7761 28.8128C97.7625 28.6567 97.7151 28.5056 97.6372 28.3699C97.5593 28.2341 97.4528 28.1171 97.3251 28.0268C97.0295 27.8147 96.6664 27.7189 96.3049 27.7577C95.8165 27.8304 95.3443 27.987 94.9089 28.2206L94.7478 28.296V28.113C94.7197 27.8159 94.5899 27.5379 94.3804 27.3259C94.171 27.114 93.8948 26.9812 93.5988 26.9502C92.869 26.9152 92.1448 27.0948 91.5155 27.467L90.6134 27.8976L91.3544 27.2409C91.4413 27.1281 91.5049 26.9992 91.5417 26.8616C91.5785 26.724 91.5876 26.5804 91.5687 26.4392C91.5497 26.298 91.5029 26.162 91.4311 26.039C91.3593 25.9161 91.2639 25.8086 91.1504 25.7229C90.87 25.5472 90.5563 25.4317 90.2292 25.3835C89.9021 25.3353 89.5685 25.3556 89.2496 25.443H89.1637L88.5838 25.5507L89.0456 25.1739C89.1636 25.0462 89.2513 24.8933 89.302 24.7268C89.3526 24.5603 89.365 24.3844 89.3381 24.2124C89.3113 24.0404 89.2459 23.8767 89.1468 23.7337C89.0478 23.5907 88.9177 23.4721 88.7664 23.3867C88.4498 23.2522 88.1007 23.2142 87.7626 23.2774C87.4246 23.3405 87.1126 23.5021 86.8656 23.742L86.2964 24.2803L86.6508 23.5697C86.8506 23.1529 86.9341 22.6896 86.8925 22.229C86.8509 21.7684 86.6858 21.3277 86.4146 20.9536C86.1995 20.6604 85.9201 20.4206 85.598 20.2526C85.276 20.0846 84.9197 19.9929 84.5568 19.9847C84.0762 19.9562 83.597 20.0605 83.1715 20.2861C82.8708 20.4368 82.7419 20.566 82.7205 20.5553L82.8171 20.4476C82.9116 20.3539 83.016 20.2709 83.1285 20.2C83.5607 19.9339 84.0606 19.7993 84.5675 19.8124C84.9613 19.8119 85.35 19.9019 85.7037 20.0755C86.0574 20.2491 86.3667 20.5016 86.6079 20.8136C86.9101 21.2242 87.0965 21.7087 87.1475 22.2164C87.1985 22.7241 87.1123 23.2362 86.8978 23.6989L86.6831 23.5374C86.9657 23.2504 87.3294 23.0573 87.725 22.9842C88.1206 22.911 88.5291 22.9613 88.8952 23.1283C89.0957 23.2352 89.2677 23.3887 89.3966 23.5761C89.5256 23.7634 89.6077 23.9791 89.6362 24.2049C89.6882 24.4306 89.6777 24.6662 89.6058 24.8863C89.5338 25.1065 89.4032 25.3027 89.2281 25.4538L89.11 25.1846H89.2067C89.5686 25.0866 89.9472 25.0666 90.3174 25.126C90.6876 25.1854 91.041 25.3228 91.3544 25.5291C91.6434 25.7681 91.8345 26.1053 91.8913 26.4765C91.9295 26.6588 91.9199 26.8478 91.8634 27.0251C91.807 27.2025 91.7056 27.3622 91.5692 27.4885L91.4188 27.2517C92.1006 26.8635 92.8808 26.6838 93.6632 26.7349C94.0169 26.778 94.3439 26.9456 94.5858 27.2078C94.8277 27.4701 94.9689 27.8099 94.9841 28.1668L94.8337 28.0591C95.2967 27.8342 95.794 27.6887 96.3049 27.6285C96.6948 27.6068 97.0784 27.7337 97.3788 27.9838C97.5767 28.14 97.7136 28.361 97.7654 28.6082C97.8084 28.7266 97.7869 28.8128 97.7761 28.8128Z" fill="#8F8F8F"/>
<path d="M88.0898 14.2861C88.0898 14.2861 87.9716 14.383 87.7032 14.4584C87.3275 14.5557 86.942 14.6098 86.5541 14.6199C85.9781 14.6098 85.409 14.7468 84.9004 15.0182C84.76 15.0993 84.6398 15.2111 84.5487 15.3453C84.4575 15.4796 84.3979 15.6327 84.3742 15.7934C84.3375 15.958 84.3554 16.1301 84.4252 16.2836C84.495 16.4371 84.6128 16.5636 84.7608 16.6439L84.5675 16.8054C84.4708 16.4286 83.9768 16.224 83.4936 16.0087C83.0379 15.7739 82.549 15.6105 82.0439 15.5242C81.7983 15.4818 81.5467 15.4904 81.3047 15.5497C81.0627 15.609 80.8354 15.7176 80.6371 15.8687C80.4496 15.9937 80.3009 16.169 80.2079 16.3745C80.1149 16.5801 80.0813 16.8077 80.1109 17.0315L80.1968 17.3867L79.8961 17.1714C79.3111 16.743 78.6015 16.5198 77.8772 16.5362C77.3042 16.5312 76.738 16.6602 76.2235 16.913C75.7716 17.1581 75.3619 17.4744 75.01 17.8497C75.0611 17.7175 75.1377 17.5968 75.2355 17.4944C75.4895 17.1976 75.7952 16.9496 76.1376 16.7623C76.6696 16.4727 77.2614 16.3105 77.8665 16.2886C78.6352 16.2635 79.3904 16.4945 80.0143 16.9453L79.7995 17.0853C79.7538 16.8098 79.787 16.5269 79.8954 16.2696C80.0038 16.0123 80.1828 15.7912 80.4116 15.6319C80.6409 15.4585 80.9025 15.3329 81.181 15.2626C81.4595 15.1924 81.7493 15.1788 82.0331 15.2228C82.5727 15.3115 83.0947 15.486 83.5795 15.7395C83.8151 15.8489 84.0445 15.9711 84.2668 16.1056C84.5113 16.2431 84.6924 16.4711 84.7715 16.7408L84.8359 17.0207L84.5782 16.9023C84.3783 16.7923 84.2185 16.6213 84.122 16.4142C84.0254 16.2071 83.9972 15.9746 84.0413 15.7503C84.0722 15.5545 84.1472 15.3684 84.2608 15.206C84.3743 15.0437 84.5233 14.9095 84.6963 14.8137C85.2448 14.5381 85.8558 14.4119 86.4682 14.4476C86.8489 14.447 87.2291 14.4218 87.6065 14.3723C87.7638 14.3251 87.9259 14.2962 88.0898 14.2861Z" fill="#8F8F8F"/>
<path d="M72.7549 9.80035C72.4908 9.82989 72.2312 9.89134 71.9817 9.98337C71.7055 10.1026 71.4623 10.2874 71.273 10.5217C71.0174 10.8212 70.8799 11.2041 70.8864 11.5983V11.7705H70.7253C70.4915 11.7431 70.2555 11.7993 70.059 11.9293C69.8625 12.0593 69.7182 12.2547 69.6514 12.4811C69.5212 13.0306 69.551 13.606 69.7374 14.139L69.877 14.7204L69.4689 14.2682L69.4045 14.2036C69.2632 14.0684 69.0931 13.9671 68.9071 13.9074C68.721 13.8477 68.5239 13.8312 68.3306 13.8591C67.9608 13.9023 67.622 14.0875 67.3856 14.3759C67.1874 14.6305 67.0448 14.9241 66.9671 15.2375C66.8894 15.551 66.8783 15.8773 66.9345 16.1953C67.0174 16.6399 67.1696 17.0686 67.3856 17.4657C67.4774 17.6075 67.553 17.7592 67.6111 17.9179C67.6111 17.9179 67.4715 17.7995 67.2782 17.5303C67.0212 17.1354 66.8358 16.698 66.7305 16.2384C66.6505 15.8859 66.6485 15.5201 66.7245 15.1667C66.8006 14.8133 66.9529 14.4809 67.1708 14.1929C67.313 14.0125 67.4906 13.8633 67.6926 13.7545C67.8947 13.6458 68.1169 13.5798 68.3454 13.5606C68.5739 13.5414 68.8039 13.5695 69.0212 13.6431C69.2385 13.7166 69.4384 13.8341 69.6085 13.9883L69.6944 14.0852L69.4259 14.2144C69.2323 13.6223 69.2137 12.9867 69.3722 12.3842C69.4592 12.0986 69.6462 11.8541 69.8988 11.6958C70.1514 11.5375 70.4526 11.4761 70.7468 11.5229L70.5857 11.6413C70.6087 11.2578 70.7444 10.8896 70.9756 10.5831C71.2068 10.2766 71.5232 10.0455 71.8851 9.91877C72.0815 9.84991 72.2895 9.82063 72.4972 9.83264C72.6905 9.76805 72.7549 9.78958 72.7549 9.80035Z" fill="#8F8F8F"/>
<path d="M60.4589 20.0347C60.4589 20.0347 60.3086 20.0347 60.0508 20.0347C59.6951 19.9207 59.3689 19.7295 59.0951 19.4749C58.6806 19.0903 58.3955 18.5862 58.2789 18.0322C58.2789 17.7411 58.1847 17.4577 58.0105 17.2248C57.8279 17.031 57.4521 16.9233 57.1944 16.6004C56.9619 16.2948 56.8547 15.9117 56.8946 15.5295C56.9345 15.1473 57.1186 14.7948 57.4091 14.5441V14.7594C56.8138 14.318 56.3256 13.7476 55.9809 13.0907C55.829 12.8457 55.7336 12.5698 55.7017 12.2832C55.7017 12.2832 55.852 12.5631 56.1312 13.0045C56.5069 13.5883 56.9963 14.09 57.5702 14.4795L57.7205 14.5871L57.5809 14.7055C57.3577 14.9132 57.2189 15.1962 57.1911 15.5003C57.1634 15.8043 57.2487 16.1079 57.4306 16.3527C57.6024 16.6004 57.9461 16.6972 58.2253 16.9664C58.436 17.2416 58.5528 17.5776 58.5582 17.9246C58.6483 18.4318 58.8876 18.9005 59.2454 19.2703C59.5969 19.6012 60.009 19.8608 60.4589 20.0347Z" fill="#8F8F8F"/>
<path d="M56.8294 23.0095C56.8294 23.0095 56.7435 23.0095 56.5824 23.0741C56.3431 23.0962 56.1022 23.0962 55.8629 23.0741C54.9944 22.9743 54.1811 22.5968 53.5433 21.9975H53.7366C53.5434 22.2801 53.2955 22.521 53.0078 22.706C52.72 22.8909 52.3982 23.0161 52.0614 23.0741C51.6861 23.1544 51.2983 23.1544 50.923 23.0741C50.5142 22.9884 50.1532 22.7497 49.9136 22.4066C49.8502 22.2706 49.7964 22.1303 49.7525 21.9867C49.7103 21.877 49.6353 21.783 49.5378 21.7176C49.3209 21.5873 49.0797 21.503 48.829 21.47C48.5482 21.4354 48.2755 21.3515 48.0236 21.2224C47.8895 21.1577 47.7744 21.0592 47.6897 20.9365C47.605 20.8138 47.5535 20.6712 47.5404 20.5226L47.7336 20.641C47.1681 20.9232 46.5201 20.992 45.9081 20.8348C45.4416 20.7291 45.0094 20.5069 44.6516 20.1888C44.4174 19.9831 44.2243 19.7347 44.0825 19.4567C44.0288 19.3606 43.9959 19.2542 43.9858 19.1445C44.1879 19.4896 44.4455 19.7988 44.7483 20.0596C45.1034 20.337 45.5194 20.5252 45.9618 20.6087C46.5174 20.7381 47.101 20.6617 47.6048 20.3934L47.8088 20.2965V20.5118C47.824 20.6127 47.8645 20.7082 47.9264 20.7891C47.9884 20.8701 48.0699 20.934 48.1632 20.9747C48.3906 21.081 48.6335 21.15 48.8827 21.1793C49.1803 21.2181 49.466 21.3209 49.7203 21.4807C49.8599 21.5764 49.9682 21.7112 50.0317 21.8683C50.0962 22.0298 50.1177 22.159 50.1714 22.2559C50.3783 22.5269 50.6756 22.7141 51.009 22.7834C51.3383 22.8528 51.6784 22.8528 52.0077 22.7834C52.617 22.6794 53.1609 22.339 53.5218 21.836L53.6185 21.7176L53.7259 21.8253C54.3163 22.3942 55.0654 22.7696 55.8736 22.9019C56.475 23.031 56.8294 22.9772 56.8294 23.0095Z" fill="#8F8F8F"/>
<path d="M33.9559 34.2879C33.9559 34.2879 33.9559 34.2879 33.9559 34.191C33.922 34.0892 33.8969 33.9848 33.8807 33.8787C33.7973 33.4812 33.7973 33.0705 33.8807 32.673C34.0198 32.0613 34.2402 31.4711 34.5358 30.9181C34.7008 30.5631 34.8986 30.2243 35.1264 29.9061C35.2582 29.7297 35.4222 29.5799 35.6096 29.4647C35.7161 29.3933 35.8389 29.3499 35.9665 29.3386C36.0941 29.3274 36.2225 29.3485 36.3399 29.4001L36.168 29.5401C36.0923 29.1487 36.1347 28.7436 36.29 28.3765C36.4453 28.0095 36.7063 27.6973 37.0397 27.4799C37.373 27.2625 37.7635 27.1498 38.1611 27.1563C38.5587 27.1627 38.9454 27.288 39.2716 27.5161L39.0353 27.656C39.0135 27.4377 39.0441 27.2173 39.1244 27.0132C39.2047 26.8091 39.3325 26.6272 39.4971 26.4825C39.669 26.335 39.8751 26.2331 40.0964 26.1861C40.3178 26.139 40.5474 26.1484 40.7642 26.2134C41.0033 26.2886 41.2182 26.4261 41.3871 26.6117L41.1293 26.7409C41.1085 26.607 41.1211 26.4701 41.1661 26.3423C41.2111 26.2145 41.287 26.0999 41.3871 26.0088C41.5606 25.8292 41.7859 25.7087 42.0314 25.6643C42.4791 25.6268 42.9292 25.7008 43.3415 25.8796L43.1697 25.955C43.4184 25.4511 43.854 25.0647 44.3832 24.8784C44.8554 24.7143 45.3608 24.6699 45.8544 24.7492C46.687 24.932 47.4848 25.2483 48.2169 25.6859L48.0666 25.8366C48.0214 25.756 47.9977 25.6652 47.9977 25.5728C47.9977 25.4804 48.0214 25.3896 48.0666 25.309C48.1476 25.173 48.2672 25.0643 48.4102 24.9968C48.6492 24.8623 48.9201 24.7953 49.1941 24.803C49.6125 24.8296 50.0248 24.9166 50.4183 25.0614C50.6663 25.1502 50.904 25.2657 51.1271 25.4059C51.2108 25.4467 51.2871 25.5013 51.3526 25.5674C51.3526 25.5674 51.0197 25.3844 50.3861 25.1799C49.9998 25.0582 49.5988 24.9894 49.1941 24.9753C48.9519 24.9776 48.7147 25.0445 48.5068 25.1691C48.2921 25.2875 48.1095 25.5244 48.2384 25.7289L48.4317 26.0519L48.088 25.8796C47.3775 25.4694 46.6049 25.1785 45.8007 25.0184C45.3495 24.9486 44.8881 24.993 44.4583 25.1476C43.9995 25.2906 43.6143 25.6073 43.3845 26.0304L43.3308 26.1488H43.2126C42.8443 25.9882 42.443 25.918 42.0421 25.9442C41.6878 25.9442 41.3227 26.3318 41.3871 26.6763L41.473 27.2038L41.1186 26.8055C40.9888 26.6593 40.8218 26.5514 40.6354 26.4933C40.4681 26.4455 40.2918 26.4392 40.1216 26.4748C39.9514 26.5104 39.7923 26.587 39.6581 26.6978C39.529 26.8102 39.4285 26.9519 39.365 27.1111C39.3015 27.2702 39.2768 27.4423 39.293 27.613V27.9359L39.0246 27.7529C38.7319 27.5525 38.3857 27.4453 38.0312 27.4453C37.6768 27.4453 37.3306 27.5525 37.0379 27.7529C36.7804 27.9504 36.58 28.2131 36.4574 28.5139C36.3347 28.8148 36.2941 29.1429 36.3399 29.4647V29.7016L36.1251 29.5939C35.7814 29.4324 35.4163 29.7339 35.1908 30.0245C34.9662 30.3259 34.7686 30.6465 34.6002 30.9827C34.2991 31.5152 34.0646 32.0829 33.9022 32.673C33.8105 33.2093 33.8287 33.7588 33.9559 34.2879Z" fill="#8F8F8F"/>
<path d="M36.3828 42.9506C36.3229 42.8954 36.2689 42.834 36.2217 42.7676C36.0727 42.587 35.9364 42.3964 35.8136 42.197C35.6093 41.8741 35.4944 41.5025 35.4807 41.1204C35.4815 40.8767 35.5404 40.6368 35.6525 40.4206C35.777 40.1595 35.9958 39.9555 36.2646 39.85V40.0223C36.1026 39.8145 36.0001 39.5665 35.9679 39.3048C35.9357 39.0431 35.9752 38.7775 36.0821 38.5366C36.2144 38.2598 36.4319 38.0329 36.7026 37.8895C36.9733 37.746 37.2828 37.6936 37.5855 37.7399L37.4566 37.966C37.3048 37.7775 37.2168 37.5456 37.2052 37.3036C37.1936 37.0617 37.2591 36.8224 37.3922 36.6202C37.5338 36.421 37.7163 36.2544 37.9274 36.1319C38.1386 36.0093 38.3736 35.9335 38.6164 35.9097C38.8428 35.9046 39.0686 35.8866 39.2929 35.8558C39.4755 35.8558 39.5829 35.6728 39.6688 35.4575C39.7488 35.2174 39.8608 34.9893 40.0017 34.7792C40.1704 34.5569 40.4086 34.3977 40.6783 34.3271C41.1994 34.2061 41.7326 34.1447 42.2676 34.144C42.5005 34.1537 42.733 34.1158 42.9509 34.0325C43.1687 33.9492 43.3674 33.8223 43.5348 33.6596C43.6705 33.4638 43.7925 33.2587 43.8999 33.0459C44.107 32.73 44.4208 32.4994 44.7837 32.3966C45.1466 32.2938 45.5343 32.3256 45.8758 32.4861L45.7147 32.6906C45.568 32.487 45.489 32.2421 45.489 31.9909C45.489 31.7396 45.568 31.4947 45.7147 31.2911C45.9755 30.9423 46.3599 30.7072 46.7886 30.6343C47.4497 30.5353 48.1235 30.5608 48.7752 30.7097C49.1902 30.7935 49.5965 30.916 49.9887 31.0758C50.1302 31.1246 50.264 31.1935 50.386 31.2803C50.386 31.2803 49.8062 31.0435 48.743 30.8604C48.1105 30.7516 47.4641 30.7516 46.8315 30.8604C46.4643 30.923 46.1364 31.128 45.9188 31.431C45.8112 31.5898 45.7537 31.7774 45.7537 31.9693C45.7537 32.1613 45.8112 32.3488 45.9188 32.5076L46.2731 32.9598L45.7577 32.7122C45.5775 32.6221 45.3791 32.5753 45.1778 32.5753C44.9765 32.5753 44.778 32.6221 44.5979 32.7122C44.4125 32.8176 44.2544 32.9651 44.1361 33.1428C44.0238 33.362 43.8983 33.5741 43.7603 33.778C43.578 33.9878 43.345 34.1472 43.0837 34.2409C42.8289 34.3188 42.5657 34.3658 42.2998 34.3809C41.7867 34.382 41.2753 34.4397 40.7749 34.5532C40.5625 34.6046 40.3735 34.7259 40.238 34.8977C40.1077 35.0845 40.0097 35.2919 39.948 35.5113C39.9026 35.6453 39.8265 35.7667 39.7258 35.8658C39.6251 35.9649 39.5026 36.0389 39.3681 36.0819C39.1332 36.1165 38.8966 36.1381 38.6594 36.1465C38.4495 36.1507 38.2433 36.2034 38.0571 36.3005C37.8708 36.3976 37.7094 36.5365 37.5855 36.7064C37.4805 36.8541 37.4241 37.031 37.4241 37.2124C37.4241 37.3937 37.4805 37.5706 37.5855 37.7184L37.8432 38.009L37.4566 37.9444C37.2119 37.9085 36.9622 37.9505 36.7425 38.0645C36.5229 38.1784 36.3445 38.3586 36.2324 38.5796C36.1397 38.7801 36.1028 39.002 36.1255 39.2218C36.1482 39.4416 36.2296 39.6512 36.3613 39.8285L36.4579 39.9469H36.3076C36.1009 40.0387 35.9262 40.1902 35.8057 40.3819C35.6853 40.5736 35.6244 40.797 35.631 41.0235C35.6158 41.4008 35.709 41.7744 35.8995 42.1001C36.0756 42.3748 36.2369 42.6587 36.3828 42.9506Z" fill="#8F8F8F"/>
<path d="M35.4487 59.2816C35.3439 59.2805 35.2409 59.2547 35.1479 59.2062C34.874 59.1016 34.6252 58.9402 34.4177 58.7325C34.0836 58.3985 33.8684 57.9633 33.8056 57.4944C33.7651 57.1885 33.7861 56.8776 33.8673 56.5799C33.9484 56.2823 34.0881 56.0039 34.2781 55.7611V55.9226C33.8832 55.514 33.573 55.031 33.3653 54.5015C33.2796 54.1842 33.2796 53.8498 33.3653 53.5326C33.4121 53.361 33.4933 53.2009 33.6042 53.062C33.715 52.9231 33.853 52.8085 34.0096 52.7251V52.9943C33.7436 52.8428 33.5222 52.6237 33.3676 52.3591C33.213 52.0945 33.1307 51.7937 33.1291 51.487C33.1072 51.1351 33.1854 50.7842 33.3546 50.475C33.5177 50.179 33.7693 49.9417 34.0741 49.7968C34.3533 49.6353 34.4714 49.4953 34.4499 49.2046C34.4339 48.8977 34.4777 48.5905 34.5788 48.3003C34.793 47.7863 35.1418 47.3399 35.5882 47.0084C35.9748 46.6854 36.3185 46.3732 36.6621 46.104C37.1755 45.6492 37.7743 45.3015 38.4233 45.0813C38.6024 45.0317 38.7858 44.9993 38.971 44.9844C39.0998 44.9844 39.1643 44.9844 39.1643 44.9844C39.1643 44.9844 38.8958 44.9844 38.4555 45.1674C37.8452 45.4257 37.2853 45.7902 36.8017 46.244L35.7278 47.1806C35.3177 47.4877 34.9985 47.9008 34.8043 48.3757C34.7213 48.6362 34.6885 48.9102 34.7077 49.1831C34.7192 49.3598 34.6781 49.5359 34.5895 49.6891C34.4821 49.8273 34.3467 49.941 34.1922 50.0229C33.9315 50.1537 33.7162 50.3604 33.5744 50.6158C33.4327 50.8713 33.371 51.1636 33.3976 51.4547C33.3966 51.7081 33.4626 51.9572 33.589 52.1766C33.7154 52.396 33.8976 52.5778 34.117 52.7036L34.3855 52.8435L34.1063 52.9727C33.8754 53.1183 33.7008 53.3383 33.611 53.5965C33.5213 53.8548 33.5217 54.1359 33.6123 54.3938C33.7995 54.8938 34.0843 55.3513 34.4499 55.7396L34.5144 55.8257L34.4499 55.9011C34.1008 56.338 33.9352 56.8941 33.9882 57.4514C34.0345 57.8802 34.215 58.2834 34.5036 58.6033C34.775 58.885 35.0953 59.1148 35.4487 59.2816Z" fill="#8F8F8F"/>
<path d="M60.6201 32.7842C60.2964 32.7549 59.9822 32.6597 59.6966 32.5043C59.3654 32.356 59.0691 32.1396 58.8267 31.8691C58.6751 31.6951 58.5614 31.4912 58.493 31.2706C58.4246 31.05 58.4029 30.8174 58.4294 30.5879C58.4445 30.4758 58.4771 30.3668 58.5261 30.2649L58.6012 30.4695C58.4037 30.3849 58.2277 30.2568 58.0864 30.0946C57.9451 29.9325 57.8421 29.7405 57.7851 29.5329C57.7355 29.369 57.7194 29.1968 57.7379 29.0266C57.7563 28.8564 57.8089 28.6917 57.8925 28.5424C58.1717 28.0364 58.5583 27.9503 58.5583 27.9826C58.5583 28.0149 58.2683 28.1763 58.075 28.6285C57.9714 28.8951 57.9714 29.1909 58.075 29.4575C58.1285 29.6212 58.2167 29.7714 58.3334 29.8977C58.4502 30.0241 58.5928 30.1236 58.7516 30.1896H58.8912L58.8267 30.3295C58.7955 30.4092 58.7739 30.4923 58.7623 30.5771C58.7414 30.7691 58.7591 30.9633 58.8145 31.1482C58.8698 31.3331 58.9616 31.505 59.0845 31.6537C59.2905 31.9034 59.542 32.1117 59.8254 32.2674C60.1066 32.413 60.3728 32.5861 60.6201 32.7842Z" fill="#8F8F8F"/>
<path d="M67.3211 28.891C67.4635 28.5511 67.5045 28.1771 67.4392 27.8144C67.387 27.6142 67.2875 27.4295 67.1492 27.2759C67.0109 27.1222 66.8379 27.0042 66.6446 26.9316C66.4008 26.8495 66.1386 26.8393 65.8892 26.9023C65.6398 26.9653 65.4137 27.0987 65.2378 27.2869L65.066 27.4806L64.9908 27.2223C64.9085 26.9138 64.7661 26.6248 64.572 26.3717C64.4831 26.2384 64.3656 26.1267 64.2281 26.0448C64.0906 25.9628 63.9366 25.9127 63.7773 25.898C63.2941 25.898 62.7894 26.361 62.9612 26.7486L62.682 26.8347C62.557 26.2528 62.2151 25.7406 61.7262 25.4028C61.3367 25.1394 60.8751 25.004 60.4054 25.0152C59.9722 25.0506 59.5496 25.1675 59.1597 25.3597C59.1597 25.3597 59.2456 25.2521 59.4389 25.1337C59.8103 24.9198 60.2333 24.8127 60.6614 24.8241C61.0896 24.8355 61.5063 24.9649 61.8658 25.1983C62.1391 25.3766 62.3746 25.6073 62.5588 25.877C62.7431 26.1467 62.8725 26.4502 62.9397 26.7701L62.6605 26.8562C62.6076 26.6997 62.6007 26.5312 62.6407 26.3708C62.6807 26.2105 62.7658 26.065 62.886 25.9519C63.0007 25.8353 63.138 25.7437 63.2895 25.6826C63.441 25.6215 63.6034 25.5922 63.7666 25.5966C63.9771 25.6087 64.1825 25.667 64.368 25.7675C64.5536 25.8679 64.7149 26.0081 64.8405 26.178C65.0508 26.4693 65.2039 26.7981 65.2915 27.1469H65.0552C65.2707 26.9218 65.5474 26.7651 65.8509 26.6962C66.1545 26.6273 66.4715 26.6492 66.7627 26.7593C66.9878 26.8486 67.1862 26.9946 67.3385 27.1832C67.4909 27.3718 67.5922 27.5966 67.6325 27.8359C67.7043 28.136 67.6701 28.4518 67.5359 28.7295C67.4177 28.8264 67.3318 28.9017 67.3211 28.891Z" fill="#8F8F8F"/>
<path d="M50.3755 48.9287C50.1929 48.8426 42.9765 46.6464 43.1268 54.0426C43.2772 61.4388 50.6439 59.7701 50.6439 59.5547C50.6439 59.3394 50.3755 48.9287 50.3755 48.9287Z" fill="#C78976"/>
<path d="M48.3564 56.7664C48.3564 56.7664 48.2276 56.8525 48.0128 56.9602C47.8616 57.0244 47.6991 57.0575 47.5349 57.0575C47.3707 57.0575 47.2082 57.0244 47.0571 56.9602C46.5762 56.6643 46.1813 56.2471 45.9118 55.7502C45.6423 55.2533 45.5077 54.6941 45.5214 54.1287C45.4893 53.4951 45.5994 52.8623 45.8436 52.277C45.9082 52.0428 46.0291 51.8281 46.1958 51.6516C46.3624 51.4752 46.5696 51.3424 46.7993 51.2649C46.9453 51.2234 47.1011 51.234 47.2402 51.2949C47.3793 51.3558 47.4929 51.4631 47.5618 51.5987C47.6584 51.8032 47.6155 51.954 47.6584 51.9647C47.7014 51.9755 47.8195 51.8355 47.7443 51.5341C47.7005 51.3553 47.5985 51.1962 47.4544 51.0819C47.2465 50.9315 46.9892 50.8661 46.7349 50.8989C46.4321 50.9667 46.1517 51.1111 45.9205 51.3184C45.6893 51.5258 45.5149 51.789 45.414 52.0832C45.1148 52.7294 44.9748 53.4384 45.006 54.1502C45.0919 55.6359 45.8758 57.0247 46.9497 57.3047C47.1482 57.3614 47.357 57.3715 47.56 57.3341C47.763 57.2968 47.9547 57.213 48.1202 57.0893C48.3457 56.9386 48.3887 56.7771 48.3564 56.7664Z" fill="#8B5D54"/>
<path d="M48.0128 80.5437L50.472 75.3438C50.472 75.3438 52.566 87.0356 57.1515 91.7726L62.596 97.7154L62.8323 95.0885L76.8571 81.8464L76.6745 77.6046L82.5486 85.4099L93.5021 95.2931L77.5551 183.929L76.4812 195.374L43.5455 190.927L34.7612 132.683C34.7612 132.683 31.9692 102.065 32.2162 102.474C32.4631 102.883 35.4378 90.4161 35.4378 90.4161L45.9832 84.764L48.0128 80.5437Z" fill="white"/>
<path d="M18.5136 92.9473C18.5136 92.9473 12.3603 97.9857 10.1588 109.172C7.95739 120.357 0 161.365 0 164.961C0 164.961 3.68339 182.294 8.2903 193.017C12.4354 202.706 17.2034 211.319 17.6545 210.878L28.2428 197.959L20.8009 161.677L21.4237 158.749L23.4212 153.366L26.7716 136.226L18.5136 92.9473Z" fill="#299BFF"/>
<path d="M22.4868 179.301L24.248 157.661L23.6359 152.375L20.2746 120.842L18.5135 92.9901L41.344 84.6573L43.5562 83.8498L47.9698 79.3389L49.3659 124.254C49.3659 124.254 50.0316 160.687 49.5914 163.658C49.1511 166.629 44.9737 209.015 30.2616 222.774C30.2616 222.774 24.3983 229.89 22.1002 228.351C19.8021 226.811 14.1213 201.199 14.1213 201.199L22.4868 179.301Z" fill="#299BFF"/>
<path d="M44.0288 83.3242C44.0288 83.3242 43.9429 83.4965 43.7281 83.8087L42.7831 85.1437L39.1534 90.1068H39.0997L35.964 91.2695L36.0929 91.0434C37.5856 98.375 39.6581 108.56 41.9455 119.832C44.0932 130.942 46.1336 140.987 47.5833 148.34L49.2264 156.953C49.3982 157.929 49.5378 158.715 49.6451 159.31C49.7053 159.583 49.7412 159.86 49.7525 160.139C49.6505 159.879 49.5785 159.608 49.5378 159.332C49.3982 158.751 49.2263 157.975 49.0116 156.996C48.5713 154.907 47.9377 151.979 47.1967 148.383C45.704 141.041 43.6529 131.007 41.3978 119.907C39.1749 108.624 37.156 98.4289 35.7063 91.0865V90.925H35.8352L38.9923 89.8484L38.9172 89.913L42.665 85.0468C43.0945 84.5192 43.4274 84.0886 43.6852 83.7656C43.7854 83.6078 43.9005 83.46 44.0288 83.3242Z" fill="#272727"/>
<path d="M77.7808 79.083L84.0952 84.9828L106.206 96.9222L99.763 124.375L97.5616 158.084L100.654 179.336L108.279 219.396C108.279 219.396 81.5071 226.674 78.3822 225.037C75.2572 223.401 75.6868 218.75 75.5794 218.427C75.472 218.104 70.7147 177.85 70.7147 177.85L69.7482 162.272C69.7482 162.272 69.3187 135.551 71.155 129.597C72.9913 123.643 75.6868 104.178 76.6532 98.7632C77.6197 93.3479 78.7258 89.709 79.3809 86.9745C79.7637 85.4632 80.0152 83.9215 80.1326 82.3666L77.7808 79.083Z" fill="#299BFF"/>
<path d="M20.103 224.088C20.0392 223.962 19.9922 223.828 19.9634 223.689L19.6198 222.494C19.3191 221.418 18.8895 219.857 18.3633 217.908L13.9067 201.221V201.156V201.092L22.24 179.204V179.28C22.5836 174.973 22.9488 170.527 23.3139 165.919C23.5501 163.066 23.7756 160.267 23.9904 157.597C22.6803 142.902 21.2413 129.939 20.3715 120.627C19.9204 115.976 19.5876 112.229 19.3728 109.656C19.2869 108.397 19.2117 107.406 19.158 106.696C19.158 106.383 19.158 106.125 19.158 105.931C19.1441 105.842 19.1441 105.751 19.158 105.662C19.1668 105.748 19.1668 105.835 19.158 105.92C19.158 106.125 19.2117 106.373 19.2439 106.685C19.3298 107.395 19.4265 108.386 19.5661 109.635C19.8453 112.251 20.2319 115.976 20.7258 120.595C21.7031 129.896 23.1958 142.848 24.5274 157.554C24.3126 160.224 24.0871 163.023 23.8616 165.876C23.4857 170.484 23.1206 174.973 22.7877 179.237V179.312C19.6627 187.43 16.7847 194.88 14.3685 201.145V201.016C16.1512 207.993 17.5901 213.72 18.664 217.747L19.8023 222.365C19.9204 222.871 20.0171 223.27 20.0923 223.571C20.1096 223.743 20.1132 223.915 20.103 224.088Z" fill="#272727"/>
<path d="M7.40991 159.377C8.06115 159.146 8.74856 159.032 9.43955 159.044C11.094 158.959 12.7526 159.074 14.3793 159.388C16.0035 159.702 17.5856 160.204 19.0937 160.885C19.7395 161.119 20.3392 161.465 20.8655 161.907C18.7039 161.134 16.503 160.477 14.272 159.937C12.0003 159.591 9.70744 159.404 7.40991 159.377Z" fill="#272727"/>
<path d="M69.7803 160.228C69.8137 159.95 69.8711 159.677 69.9521 159.409C70.1024 158.828 70.3065 158.064 70.5642 157.105C71.1334 155.038 71.9388 152.164 72.9267 148.633L80.9378 120.727C84.1594 109.832 86.9945 99.9705 89.0671 92.8865V93.0802L84.1272 87.9233L82.7634 84.4675C82.6346 84.1122 82.5272 83.8215 82.4305 83.5954C82.3888 83.4954 82.3599 83.3905 82.3446 83.2832C82.4091 83.368 82.4599 83.4625 82.495 83.5631L82.8923 84.4136C83.2359 85.2247 83.7192 86.3336 84.342 87.7403L89.3892 92.8003L89.4644 92.8865V92.9941C87.4348 100.089 84.6105 109.972 81.4962 120.889L73.367 148.74L70.8434 157.159L70.1239 159.442C70.028 159.711 69.9131 159.974 69.7803 160.228Z" fill="#272727"/>
<path d="M96.8957 110.966C96.8278 110.165 96.9079 109.358 97.132 108.587C97.989 104.773 100.127 101.372 103.189 98.951C103.791 98.4239 104.477 98.0018 105.218 97.7021C105.347 97.8529 102.147 99.7585 99.8489 103.548C98.4966 105.857 97.5009 108.358 96.8957 110.966Z" fill="#272727"/>
<g opacity="0.3">
<path d="M96.7347 169.852L89.7545 165.105C87.3196 163.282 84.6547 161.791 81.8293 160.669C79.6816 159.905 77.3191 159.592 75.1069 158.893C72.8395 158.092 70.9217 156.523 69.6838 154.457C69.6838 155.534 69.7375 157.45 69.7805 158.527C70.0167 160.508 71.8638 161.541 73.6572 162.402C75.4505 163.264 77.448 163.888 78.801 165.341C79.6172 166.213 80.1326 167.312 80.8629 168.248C82.5611 170.141 84.7397 171.536 87.1665 172.285C90.9254 173.711 94.8347 174.701 98.818 175.235C98.9817 175.281 99.1531 175.293 99.3213 175.269C99.4896 175.244 99.651 175.185 99.7952 175.095C99.8949 174.989 99.9719 174.864 100.022 174.727C100.072 174.59 100.093 174.444 100.085 174.299C100.128 172.361 98.3455 170.94 96.7347 169.852Z" fill="black"/>
</g>
<path d="M106.206 96.8916C106.206 96.8916 110.244 98.6142 111.876 105.989C113.508 113.364 122.668 158.107 122.497 162.693C122.325 167.279 120.209 170.725 116.129 172.2C112.064 173.76 107.648 174.158 103.371 173.352C97.9564 172.283 92.6126 170.881 87.3702 169.153C85.4787 168.522 83.6519 167.711 81.915 166.73C81.5285 163.432 81.7432 160.09 82.5486 156.869C83.8909 152.067 88.9918 145.78 88.9918 145.78L101.878 149.752L98.4741 134.314L102.533 101.887L106.206 96.8916Z" fill="#299BFF"/>
<path d="M101.9 149.754C102.732 149.937 103.527 150.261 104.251 150.712C106.068 151.679 107.732 152.909 109.191 154.362C110.642 155.821 111.875 157.481 112.853 159.293C113.298 160.022 113.625 160.818 113.82 161.65C112.427 159.159 110.739 156.846 108.794 154.76C106.71 152.814 104.394 151.132 101.9 149.754Z" fill="#272727"/>
<path d="M118.148 155.918C118.062 155.918 117.45 155.121 116.236 154.001C113.035 151.051 108.836 149.428 104.488 149.458C102.834 149.458 101.814 149.695 101.793 149.598C101.771 149.501 102.029 149.469 102.491 149.35C103.143 149.198 103.808 149.101 104.477 149.06C106.698 148.932 108.921 149.281 110.997 150.083C113.072 150.885 114.954 152.122 116.515 153.711C116.988 154.188 117.412 154.711 117.782 155.272C117.943 155.462 118.067 155.681 118.148 155.918Z" fill="#272727"/>
<path d="M98.4953 134.327C98.5332 134.414 98.5619 134.504 98.5812 134.596C98.6349 134.812 98.71 135.07 98.7852 135.393L99.5262 138.461C100.16 141.196 101.04 145.029 102.114 149.712L102.2 150.078L101.835 149.97L88.9485 146.041H89.1526C87.1948 147.205 85.5766 148.864 84.4597 150.853C83.2885 152.992 82.5307 155.333 82.2261 157.754C81.9988 159.261 81.8982 160.784 81.9254 162.308C81.9227 163.785 82.0304 165.261 82.2476 166.722L82.1294 166.539C84.1612 167.745 86.3468 168.668 88.6264 169.284C90.7741 169.941 92.9218 170.447 94.9837 170.931C97.0455 171.416 98.9356 171.9 100.686 172.417C102.309 172.856 103.965 173.166 105.637 173.343C108.031 173.601 110.449 173.521 112.821 173.106C113.648 172.945 114.281 172.783 114.711 172.676C114.925 172.607 115.144 172.553 115.366 172.514C115.171 172.626 114.961 172.709 114.743 172.762C114.125 172.978 113.493 173.154 112.853 173.289C110.472 173.795 108.027 173.933 105.604 173.698C103.908 173.545 102.227 173.254 100.579 172.826C98.8067 172.32 96.9059 171.868 94.8763 171.405C92.8467 170.942 90.6882 170.436 88.4331 169.79C86.0978 169.168 83.8578 168.23 81.7751 167.002L81.6784 166.937V166.819C81.4588 165.329 81.3475 163.825 81.3455 162.319C81.3179 160.766 81.4185 159.214 81.6462 157.679C81.9655 155.186 82.7487 152.776 83.955 150.573C85.1285 148.504 86.8249 146.781 88.8734 145.578L88.97 145.524H89.0774L101.964 149.55L101.695 149.798C100.697 145.093 99.8698 141.239 99.2899 138.504C99.0322 137.202 98.8174 136.168 98.6671 135.404C98.6134 135.081 98.5597 134.822 98.5167 134.596C98.4983 134.508 98.4911 134.417 98.4953 134.327Z" fill="#272727"/>
<path d="M62.9934 153.367C62.9934 153.367 63.3585 133.687 63.6055 132.911C63.8525 132.136 64.0136 131.673 65.7532 131.544C67.4929 131.415 79.574 130.963 80.5512 131.318C81.2493 131.587 81.3996 132.265 81.3996 133.148C81.3996 137.002 80.5942 149.868 80.3257 154.551C80.2955 155.016 80.0881 155.453 79.7463 155.769C79.4046 156.086 78.9546 156.258 78.4894 156.252L64.1639 156.047C63.8487 156.042 63.5483 155.912 63.3273 155.687C63.1064 155.461 62.9826 155.158 62.9827 154.842L62.9934 153.367Z" fill="#FF725E"/>
<path d="M66.6983 134.327H66.6447C66.0397 134.327 65.5493 134.819 65.5493 135.425V138.3C65.5493 138.906 66.0397 139.398 66.6447 139.398H66.6983C67.3033 139.398 67.7937 138.906 67.7937 138.3V135.425C67.7937 134.819 67.3033 134.327 66.6983 134.327Z" fill="#272727"/>
<path d="M81.1633 138.294C81.1633 138.294 82.3553 137.433 82.7848 138.294C83.2144 139.155 90.5167 149.717 90.5167 149.717C90.7222 151.604 90.6243 153.512 90.2268 155.369C89.6792 157.721 88.731 159.961 87.424 161.99L85.0507 159.837C85.0507 159.837 79.2196 160.816 78.1457 160.59C77.0718 160.364 70.9293 157.608 69.5547 155.982C68.5081 154.841 67.3457 153.813 66.0861 152.914L60.0295 148.802C59.6429 148.546 59.355 148.167 59.2133 147.725C59.1125 147.432 59.1093 147.114 59.2042 146.819C59.299 146.524 59.4869 146.267 59.7395 146.088C59.9822 145.875 60.2792 145.732 60.5976 145.677C60.916 145.622 61.2435 145.656 61.5436 145.776C61.5436 145.776 61.1248 143.741 62.5316 143.419C63.9383 143.096 77.8557 148.069 77.8557 148.069C78.3202 148.014 78.7444 147.778 79.037 147.413C79.3592 146.874 69.1144 144.064 68.8997 142.977C68.6849 141.89 69.544 140.706 71.2729 140.706C73.0018 140.706 80.9378 142.439 80.9378 142.439L81.1633 138.294Z" fill="#C78976"/>
<path d="M84.0842 147.975C84.0842 148.039 83.8479 148.265 83.3217 148.416C82.6161 148.588 81.8796 148.588 81.174 148.416C80.203 148.248 79.3008 147.803 78.5752 147.135C79.503 147.287 80.4131 147.532 81.2921 147.867C82.2142 148.024 83.1527 148.06 84.0842 147.975Z" fill="#8B5D54"/>
<path d="M84.224 143.036C84.224 143.187 83.4186 143.165 82.4951 143.036C81.5715 142.907 80.852 142.573 80.8735 142.423C80.895 142.272 81.6789 142.304 82.6024 142.487C83.526 142.67 84.2562 142.886 84.224 143.036Z" fill="#8B5D54"/>
<path d="M78.9831 153.724C78.0449 153.61 77.1227 153.389 76.234 153.067C71.8654 151.736 67.6886 149.84 63.8093 147.426C62.9797 146.971 62.2081 146.418 61.5112 145.778C62.3783 146.146 63.215 146.581 64.0133 147.081C65.5382 147.921 67.6645 149.04 70.07 150.139C72.4755 151.237 74.7199 152.098 76.3522 152.69C77.2562 152.961 78.1361 153.307 78.9831 153.724Z" fill="#8B5D54"/>
<path d="M76.1161 156.873C74.2082 156.817 72.3325 156.366 70.6071 155.548C68.8164 154.894 67.1763 153.883 65.7854 152.577C65.882 152.437 67.9331 153.858 70.8218 155.032C73.7106 156.205 76.1375 156.7 76.1161 156.873Z" fill="#8B5D54"/>
<path d="M88.8202 145.542C88.8202 145.542 89.0887 145.79 89.4216 146.328C89.894 147.102 90.2554 147.94 90.4954 148.815C91.3032 151.735 91.0832 154.845 89.8726 157.621C89.3065 159.156 88.6057 160.636 87.7785 162.046C87.0659 163.194 86.1656 164.213 85.1154 165.061C84.4226 165.639 83.6744 166.148 82.8817 166.579C82.6032 166.757 82.2989 166.891 81.9796 166.977C81.9152 166.88 83.1931 166.245 84.8576 164.759C85.8349 163.901 86.6719 162.895 87.3382 161.777C88.1288 160.378 88.8041 158.916 89.3571 157.406C90.515 154.73 90.7787 151.75 90.1089 148.912C89.7873 147.75 89.3558 146.622 88.8202 145.542Z" fill="#272727"/>
<g opacity="0.3">
<path d="M22.0145 167.562L17.1928 185.682L15.5283 197.492L22.487 179.308L23.0884 171.901L22.0145 167.562Z" fill="black"/>
</g>
<path d="M62.5962 97.7111C62.5962 97.7111 62.2633 97.3451 61.5223 96.796C60.7813 96.247 59.6753 95.601 58.3007 94.6428L58.6121 94.5136C58.494 95.7732 58.451 97.2482 58.451 98.8846C58.4881 100.681 58.4272 102.478 58.2685 104.268L58.1718 105.118L57.753 104.375C57.2161 103.406 56.6791 102.416 56.0348 101.415C53.723 97.728 51.6394 93.9025 49.7956 89.9596C49.2649 88.7449 48.8129 87.497 48.4425 86.2238C48.2935 85.7624 48.1962 85.2858 48.1526 84.8027C48.3606 85.239 48.5295 85.693 48.6573 86.1592C49.0975 87.3966 49.5993 88.6111 50.1607 89.7981C51.5568 92.8234 53.93 96.7745 56.5503 101.145C57.1516 102.157 57.7315 103.159 58.2685 104.128L57.753 104.225C57.957 102.351 57.9678 100.564 57.9893 98.9169C57.9974 97.4417 58.087 95.9681 58.2577 94.5029V94.1691L58.5262 94.3629C59.6118 95.0586 60.6586 95.8133 61.6619 96.6238C61.927 96.8607 62.1713 97.1201 62.3922 97.3989C62.5532 97.5927 62.6177 97.7111 62.5962 97.7111Z" fill="#272727"/>
<path d="M78.6292 87.6893C78.551 88.01 78.4004 88.3084 78.1889 88.5614C77.683 89.292 77.1268 89.9863 76.5244 90.6392C75.0425 92.3187 72.8625 94.5042 70.3818 96.8512C68.7925 98.3584 67.2676 99.7472 65.9575 100.921L65.7105 101.125L65.5709 100.856C64.7118 99.1659 64.003 97.7448 63.5198 96.7435C63.2355 96.2305 63.0052 95.6893 62.8325 95.1286C63.2037 95.5856 63.5208 96.0842 63.7775 96.6143C64.3252 97.5725 65.0984 98.9505 66.0004 100.619L65.6246 100.555L69.9952 96.4421C72.4651 94.1059 74.6881 91.9634 76.2344 90.3701C77.0076 89.5626 77.6305 88.9167 78.0171 88.4322C78.4037 87.9477 78.5755 87.614 78.6292 87.6893Z" fill="#272727"/>
<path d="M66.3867 126.33C65.9711 126.468 65.5358 126.537 65.098 126.535C64.5823 126.579 64.0631 126.561 63.5517 126.481C62.8395 126.408 62.1676 126.115 61.6294 125.641C61.3252 125.328 61.0897 124.955 60.9381 124.545C60.7864 124.135 60.722 123.698 60.7489 123.262C60.7489 122.358 60.7489 121.432 60.7489 120.441C60.8133 118.45 60.867 116.275 60.9314 113.982C61.071 109.417 61.2321 105.283 61.3717 102.29C61.4576 100.88 61.522 99.6954 61.5757 98.748C61.5706 98.3091 61.6211 97.8714 61.7261 97.4453C61.7884 97.8765 61.81 98.3127 61.7905 98.748C61.7905 99.7062 61.7905 100.901 61.7905 102.301C61.7905 105.294 61.6509 109.439 61.5113 114.003C61.4361 116.286 61.361 118.45 61.2858 120.463C61.2106 122.476 60.8026 124.371 61.8872 125.372C62.3624 125.803 62.9516 126.087 63.5839 126.19C64.0731 126.278 64.5688 126.325 65.0658 126.33C65.5057 126.304 65.9468 126.304 66.3867 126.33Z" fill="#272727"/>
<rect x="2.93848" y="121.95" width="114.875" height="42.106" rx="21.053" fill="#111111"/>
<rect x="3.79254" y="122.804" width="113.167" height="40.3979" rx="20.199" stroke="white" stroke-opacity="0.36" stroke-width="1.70813"/>
<rect x="9.77075" y="128.783" width="28.441" height="28.441" rx="14.2205" fill="#1AC057"/>
<ellipse cx="23.9912" cy="143.004" rx="12.6813" ry="12.6814" fill="white"/>
<path fill-rule="evenodd" clip-rule="evenodd" d="M9.77075 143.004C9.77075 135.15 16.1375 128.783 23.9912 128.783H24.0738C27.8344 128.794 31.4366 130.299 34.0879 132.965C36.7393 135.632 38.2226 139.243 38.2117 143.004C38.2117 150.857 31.8449 157.224 23.9912 157.224C16.1375 157.224 9.77075 150.857 9.77075 143.004ZM22.7516 148.478L24.2322 143.486L26.5392 142.832L27.0212 141.179L24.7487 141.867L27.159 133.673V133.542C27.1554 133.436 27.1098 133.336 27.0323 133.263C26.9548 133.191 26.8517 133.152 26.7458 133.156H23.6813C23.4426 133.149 23.2296 133.305 23.1648 133.535L20.307 143.245L18.0345 143.933L17.518 145.517L19.7905 144.829L17.759 151.75H29.8791C30.1186 151.759 30.333 151.602 30.3956 151.371L31.0842 148.995V148.864C31.0806 148.758 31.0351 148.658 30.9576 148.586C30.8801 148.513 30.777 148.475 30.671 148.478H22.7516Z" fill="#345D9D"/>
<rect x="27.9631" y="128.782" width="28.441" height="28.441" rx="14.2205" fill="#1AC057"/>
<circle cx="42.1836" cy="143.003" r="14.2205" fill="#0AC18E"/>
<path fill-rule="evenodd" clip-rule="evenodd" d="M46.6194 138.228C45.9047 136.607 44.2625 136.261 42.2521 136.597L41.6061 134.092L40.083 134.485L40.7182 136.983C40.5724 137.02 40.4253 137.054 40.2773 137.089C40.0187 137.151 39.7577 137.213 39.4983 137.286L38.863 134.803L37.3399 135.196L37.986 137.701C37.6575 137.795 34.9109 138.499 34.9109 138.499L35.3296 140.13C35.3296 140.13 36.4484 139.816 36.4376 139.841C37.0584 139.679 37.3508 139.989 37.4879 140.282L39.2637 147.147C39.2853 147.345 39.2492 147.684 38.8233 147.8C38.8486 147.814 37.7153 148.085 37.7153 148.085L37.8813 149.987C37.8813 149.987 40.6027 149.29 40.96 149.2L41.6133 151.734L43.1364 151.34L42.4831 148.789C42.9018 148.691 43.3097 148.59 43.7067 148.486L44.3563 151.023L45.8795 150.629L45.2262 148.099C47.5722 147.529 49.2289 146.049 48.8896 143.786C48.673 142.422 47.1824 141.303 45.9444 141.177C46.706 140.502 47.0922 139.517 46.6194 138.228ZM45.8867 144.201C46.1481 146.134 43.8677 146.604 42.5753 146.871C42.3691 146.913 42.188 146.95 42.0464 146.988L41.1513 143.635C41.2507 143.609 41.37 143.575 41.505 143.536L41.5051 143.536C42.773 143.174 45.4235 142.417 45.8867 144.201ZM41.2257 141.989C42.3111 141.769 44.2892 141.368 44.0099 139.636C43.4387 138.023 41.4547 138.61 40.3886 138.925C40.2354 138.97 40.1011 139.01 39.9927 139.036L40.8084 142.079C40.9204 142.05 41.063 142.022 41.2257 141.989Z" fill="white"/>
<rect x="46.1555" y="128.782" width="28.441" height="28.441" rx="14.2205" fill="#6B8CEF"/>
<path fill-rule="evenodd" clip-rule="evenodd" d="M60.3773 128.782V139.296L52.6003 142.772L60.3773 139.298V148.426L51.4945 143.266L51.4942 143.267L51.4943 143.266L51.4942 143.266L51.4944 143.266L60.3773 128.782ZM60.3796 128.782L69.2636 143.266L69.2639 143.266L69.2638 143.266L69.2639 143.267L69.2636 143.266L60.3796 148.426V139.298L68.1576 142.772L60.3796 139.296V128.782ZM60.3773 150.08V157.223L51.4883 144.921L60.3773 150.08ZM60.3796 157.223V150.078L69.2639 144.921L60.3796 157.223Z" fill="white"/>
<rect x="64.3477" y="128.782" width="28.441" height="28.441" rx="14.2205" fill="#50AF95"/>
<path fill-rule="evenodd" clip-rule="evenodd" d="Mnan nanL69.5549 130.681L64.369 141.574C64.3285 141.657 64.3468 141.757 64.4142 141.821L78.4203 155.242C78.5029 155.321 78.6334 155.321 78.7161 155.242L92.7221 141.821C92.7895 141.758 92.8079 141.658 92.7674 141.575L87.5814 130.682C87.5472 130.607 87.4725 130.559 87.3903 130.56H69.7477C69.6651 130.559 69.5896 130.606 69.5549 130.681Lnan nanZ" fill="#50AF95"/>
<path fill-rule="evenodd" clip-rule="evenodd" d="M80.3677 142.693C80.2671 142.7 79.7476 142.731 78.5888 142.731C77.667 142.731 77.0126 142.704 76.783 142.693C73.221 142.536 70.5622 141.916 70.5622 141.174C70.5622 140.431 73.221 139.812 76.783 139.653V142.075C77.016 142.092 77.6829 142.132 78.6047 142.132C79.7107 142.132 80.2646 142.085 80.3643 142.076V139.655C83.9188 139.813 86.5717 140.433 86.5717 141.174C86.5717 141.914 83.9197 142.535 80.3643 142.692L80.3677 142.693ZM80.3677 139.404V137.236H85.3282V133.931H71.8224V137.236H76.7822V139.403C72.7509 139.588 69.7192 140.387 69.7192 141.344C69.7192 142.301 72.7509 143.098 76.7822 143.285V150.231H80.3668V143.282C84.3889 143.097 87.4155 142.299 87.4155 141.343C87.4155 140.387 84.3914 139.589 80.3668 139.403L80.3677 139.404Z" fill="white"/>
<rect x="82.54" y="128.782" width="28.441" height="28.441" rx="14.2205" fill="#1AC057"/>
<path d="M110.555 146.443C108.656 154.061 100.939 158.698 93.3192 156.798C85.7024 154.898 81.0656 147.182 82.966 139.564C84.8647 131.945 92.5814 127.308 100.199 129.208C107.819 131.107 112.455 138.824 110.555 146.443Z" fill="#F7931A"/>
<path fill-rule="evenodd" clip-rule="evenodd" d="M103.029 140.977C103.312 139.085 101.871 138.067 99.9014 137.389L100.54 134.826L98.9801 134.437L98.358 136.932C97.9478 136.83 97.5265 136.734 97.1079 136.638L97.7345 134.126L96.1752 133.737L95.5357 136.3C95.1962 136.222 94.8629 136.146 94.5394 136.065L94.5411 136.057L92.3894 135.52L91.9743 137.187C91.9743 137.187 93.132 137.452 93.1075 137.468C93.7394 137.626 93.8537 138.044 93.8345 138.376L93.1066 141.296C93.1502 141.307 93.2066 141.323 93.2688 141.348L93.2159 141.335C93.1798 141.326 93.1423 141.316 93.104 141.307L92.0836 145.398C92.0063 145.59 91.8103 145.878 91.3686 145.768C91.3842 145.791 90.2345 145.485 90.2345 145.485L89.46 147.271L91.4904 147.777C91.7171 147.834 91.941 147.893 92.1627 147.95L92.1628 147.95C92.3105 147.989 92.457 148.027 92.6027 148.064L91.957 150.657L93.5155 151.046L94.155 148.481C94.5807 148.596 94.994 148.703 95.3984 148.803L94.7611 151.357L96.3214 151.745L96.9671 149.158C99.6276 149.661 101.628 149.458 102.47 147.052C103.149 145.114 102.437 143.997 101.037 143.268C102.056 143.033 102.824 142.362 103.029 140.977ZM99.4641 145.976C99.0217 147.753 96.2393 147.019 94.9662 146.682C94.8516 146.652 94.7493 146.625 94.662 146.603L95.5188 143.169C95.6251 143.195 95.755 143.224 95.9021 143.257C97.2189 143.553 99.9174 144.158 99.4641 145.976ZM96.1667 141.663C97.2281 141.947 99.5434 142.565 99.9467 140.949C100.359 139.296 98.1083 138.798 97.0093 138.555C96.8856 138.528 96.7766 138.503 96.6875 138.481L95.9107 141.596C95.9841 141.615 96.0702 141.638 96.1667 141.663Z" fill="white"/>
</g>
<defs>
<clipPath id="clip0_1_32739">
<rect width="121.95" height="174.844" fill="white"/>
</clipPath>
</defs>
</svg>
