<svg width="32" height="32" viewBox="0 0 32 32" fill="none" xmlns="http://www.w3.org/2000/svg">
<path d="M20.7463 23.9999L15.9589 31.9999C20.3963 31.9999 24.1653 30.4454 27.266 27.3366C30.3667 24.2279 31.917 20.4489 31.917 15.9999C31.917 11.5509 30.3667 7.77198 27.266 4.66319C24.1653 1.55441 20.3962 1.53599e-05 15.9588 0L20.7463 7.99994L25.5338 15.9999L11.1714 23.9999H20.7463Z" fill="#0088FF"/>
<path d="M11.1708 7.99994L15.9582 0C11.5208 -6.39997e-07 7.75174 1.55439 4.65102 4.66319C1.55034 7.77198 6.38329e-07 11.5509 0 15.9999C-6.38329e-07 20.4489 1.55034 24.2278 4.65102 27.3366C7.75171 30.4454 11.5208 31.9999 15.9583 31.9999L11.1708 23.9999L6.38335 15.9999L20.7458 7.99994H11.1708Z" fill="#0044EE"/>
<path d="M15.9582 0L11.1708 7.99994H20.7457L6.3833 15.9999L11.1708 23.9999L25.5332 15.9999L20.7457 7.99994L15.9582 0Z" fill="white"/>
<path d="M11.1714 24L15.9589 32.0001L20.7463 24H11.1714Z" fill="white"/>
</svg>
