<svg width="115" height="24" viewBox="0 0 115 24" fill="none" xmlns="http://www.w3.org/2000/svg">
<path d="M82.4976 23.6824V6.88037H87.1495V23.6824H82.4976Z" fill="white"/>
<path d="M84.8343 4.71463C84.1429 4.71463 83.5494 4.48493 83.0544 4.0255C82.5666 3.55877 82.3228 3.00089 82.3228 2.35184C82.3228 1.7101 82.5666 1.15952 83.0544 0.700086C83.5494 0.233362 84.1429 0 84.8343 0C85.526 0 86.1156 0.233362 86.6034 0.700086C87.0984 1.15952 87.3459 1.7101 87.3459 2.35184C87.3459 3.00089 87.0984 3.55877 86.6034 4.0255C86.1156 4.48493 85.526 4.71463 84.8343 4.71463Z" fill="white"/>
<path d="M89.646 23.6823V6.8803H94.1559V9.81191H94.3306C94.6363 8.76906 95.1495 7.98148 95.8701 7.44912C96.591 6.90948 97.421 6.63965 98.3599 6.63965C98.593 6.63965 98.8441 6.65422 99.1134 6.6834C99.3829 6.71256 99.6194 6.75269 99.8233 6.80374V10.9386C99.6048 10.873 99.3026 10.8146 98.9169 10.7636C98.5309 10.7125 98.178 10.687 97.8577 10.687C97.1732 10.687 96.5618 10.8365 96.0232 11.1355C95.4916 11.4272 95.0694 11.8356 94.7563 12.3607C94.4506 12.8857 94.2977 13.491 94.2977 14.1765V23.6823H89.646Z" fill="white"/>
<path fill-rule="evenodd" clip-rule="evenodd" d="M64.2656 1.27979V23.6825H68.852V20.9916H69.0594C69.2708 21.4583 69.5765 21.9214 69.9768 22.3808C70.3772 22.8329 70.8903 23.2085 71.5166 23.5075C72.1498 23.8065 72.9179 23.9559 73.8207 23.9559C75.0945 23.9559 76.2448 23.6278 77.2714 22.9715C78.305 22.3079 79.1205 21.3343 79.7173 20.0508C80.3215 18.76 80.6237 17.1776 80.6237 15.3034C80.6237 13.3781 80.3143 11.7774 79.6955 10.5012C79.0767 9.21772 78.2503 8.25876 77.2168 7.62432C76.183 6.98256 75.0545 6.66168 73.8315 6.66168C72.8923 6.66168 72.1062 6.82212 71.4728 7.143C70.8467 7.45658 70.3371 7.85037 69.944 8.3244C69.5583 8.79112 69.2633 9.25055 69.0594 9.70269H68.9176V1.27979H64.2656ZM69.2343 17.8959C68.9576 17.152 68.8194 16.2806 68.8194 15.2815C68.8194 14.2824 68.9576 13.4146 69.2343 12.6781C69.5108 11.9415 69.9076 11.3727 70.4246 10.9716C70.9486 10.5705 71.5892 10.37 72.3465 10.37C73.1108 10.37 73.755 10.5778 74.2792 10.9935C74.8035 11.4092 75.2002 11.9852 75.4695 12.7218C75.7388 13.4584 75.8734 14.3116 75.8734 15.2815C75.8734 16.2587 75.7352 17.1229 75.4585 17.874C75.1892 18.6178 74.7924 19.2012 74.2682 19.6242C73.7443 20.0399 73.1036 20.2477 72.3465 20.2477C71.5966 20.2477 70.9596 20.0435 70.4354 19.6351C69.9114 19.2195 69.5108 18.6397 69.2343 17.8959Z" fill="white"/>
<path fill-rule="evenodd" clip-rule="evenodd" d="M52.3533 23.9998C51.2831 23.9998 50.3293 23.8137 49.4922 23.4418C48.6551 23.0626 47.9926 22.5047 47.5048 21.7681C47.0242 21.0243 46.7842 20.0982 46.7842 18.9897C46.7842 18.0562 46.9552 17.2723 47.2974 16.6378C47.6395 16.0034 48.1055 15.4929 48.6951 15.1064C49.2847 14.7199 49.9546 14.4282 50.7042 14.2313C51.4613 14.0344 52.2548 13.8958 53.0847 13.8156C54.0603 13.7135 54.8466 13.6187 55.4434 13.5312C56.0405 13.4364 56.4736 13.2978 56.7429 13.1155C57.0125 12.9332 57.1471 12.6634 57.1471 12.3061V12.2404C57.1471 11.5476 56.9286 11.0116 56.4919 10.6324C56.0623 10.2532 55.4509 10.0636 54.6574 10.0636C53.82 10.0636 53.154 10.2496 52.659 10.6215C52.164 10.9861 51.8363 11.4455 51.6762 11.9998L47.3738 11.6497C47.5921 10.6288 48.0216 9.74638 48.6623 9.00252C49.3029 8.2514 50.1292 7.67528 51.141 7.27419C52.1602 6.86581 53.3397 6.66162 54.6792 6.66162C55.6109 6.66162 56.5029 6.77101 57.3546 6.98977C58.2135 7.20856 58.9744 7.54767 59.6369 8.0071C60.3065 8.46653 60.8343 9.05722 61.2203 9.77919C61.606 10.4939 61.7989 11.3507 61.7989 12.3498V23.6824H57.3872V21.3525H57.2561C56.9868 21.8775 56.6265 22.3406 56.1751 22.7417C55.7237 23.1355 55.1816 23.4454 54.5481 23.6715C53.9147 23.8903 53.1832 23.9998 52.3533 23.9998ZM53.6854 20.7836C54.3699 20.7836 54.9741 20.6487 55.4981 20.3789C56.0223 20.1018 56.4336 19.7299 56.7322 19.2632C57.0307 18.7964 57.1797 18.2677 57.1797 17.677V15.894C57.0343 15.9888 56.834 16.0763 56.5793 16.1565C56.3316 16.2295 56.0515 16.2987 55.7384 16.3644C55.4252 16.4227 55.1123 16.4774 54.7992 16.5284C54.4863 16.5722 54.2024 16.6123 53.9475 16.6488C53.4015 16.729 52.9247 16.8566 52.5169 17.0316C52.1094 17.2067 51.7927 17.4437 51.567 17.7426C51.3413 18.0344 51.2285 18.399 51.2285 18.8365C51.2285 19.471 51.4577 19.9559 51.9165 20.2914C52.3823 20.6196 52.9719 20.7836 53.6854 20.7836Z" fill="white"/>
<path d="M31.146 20.904V23.6824H45.2436V19.9632H37.2501V19.8429L44.9597 9.91043V6.88037H31.4299V10.5996H39.3577V10.7199L31.146 20.904Z" fill="white"/>
<path fill-rule="evenodd" clip-rule="evenodd" d="M102.693 23.4418C103.53 23.8137 104.484 23.9998 105.554 23.9998C106.384 23.9998 107.116 23.8903 107.749 23.6715C108.382 23.4455 108.925 23.1355 109.376 22.7417C109.827 22.3406 110.188 21.8775 110.457 21.3525H110.588V23.6825H115V12.3498C115 11.3507 114.807 10.4939 114.421 9.77919C114.035 9.05724 113.507 8.46653 112.838 8.0071C112.175 7.54767 111.414 7.20858 110.555 6.9898C109.704 6.77101 108.812 6.66162 107.88 6.66162C106.541 6.66162 105.361 6.86581 104.342 7.27419C103.33 7.67531 102.504 8.2514 101.863 9.00255C101.223 9.74638 100.793 10.6288 100.575 11.6497L104.877 11.9998C105.037 11.4455 105.365 10.9861 105.86 10.6215C106.355 10.2496 107.021 10.0636 107.858 10.0636C108.652 10.0636 109.263 10.2532 109.693 10.6324C110.13 11.0116 110.348 11.5476 110.348 12.2404V12.3061C110.348 12.6634 110.213 12.9332 109.944 13.1155C109.675 13.2979 109.241 13.4364 108.644 13.5312C108.048 13.6187 107.261 13.7135 106.286 13.8156C105.456 13.8958 104.662 14.0344 103.905 14.2313C103.155 14.4282 102.486 14.7199 101.896 15.1064C101.306 15.4929 100.84 16.0034 100.498 16.6378C100.156 17.2723 99.9849 18.0563 99.9849 18.9897C99.9849 20.0982 100.225 21.0243 100.706 21.7681C101.193 22.5047 101.856 23.0626 102.693 23.4418ZM108.699 20.3789C108.175 20.6487 107.571 20.7836 106.886 20.7836C106.173 20.7836 105.583 20.6196 105.117 20.2914C104.659 19.956 104.429 19.471 104.429 18.8366C104.429 18.399 104.542 18.0344 104.768 17.7427C104.994 17.4437 105.31 17.2067 105.718 17.0316C106.126 16.8566 106.602 16.729 107.148 16.6488C107.403 16.6123 107.687 16.5722 108 16.5285C108.313 16.4774 108.626 16.4227 108.939 16.3644C109.252 16.2987 109.532 16.2295 109.78 16.1565C110.035 16.0763 110.235 15.9888 110.381 15.894V17.677C110.381 18.2677 110.231 18.7964 109.933 19.2632C109.635 19.7299 109.223 20.1018 108.699 20.3789Z" fill="white"/>
<path d="M15.5732 17.9999L11.9795 24C15.3105 24 18.1397 22.8341 20.4673 20.5025C22.7948 18.1709 23.9586 15.3367 23.9586 11.9999C23.9586 8.66319 22.7948 5.82899 20.4673 3.4974C18.1397 1.16581 15.3104 1.152e-05 11.9794 0L15.5732 5.99997L19.167 11.9999L8.38574 17.9999H15.5732Z" fill="#0088FF"/>
<path d="M8.38546 5.99997L11.9792 0C8.64817 -4.79998e-07 5.8189 1.16579 3.49133 3.4974C1.16378 5.82899 4.79167e-07 8.66316 0 11.9999C-4.79166e-07 15.3367 1.16378 18.1709 3.49133 20.5025C5.81888 22.8341 8.64821 24 11.9792 24L8.38546 17.9999L4.79171 11.9999L15.573 5.99997H8.38546Z" fill="#0044EE"/>
<path d="M11.9794 0L8.38574 5.99997H15.5732L4.79199 11.9999L8.38574 17.9999L19.167 11.9999L15.5732 5.99997L11.9794 0Z" fill="white"/>
<path d="M8.38574 18L11.9795 24.0001L15.5732 18H8.38574Z" fill="white"/>
</svg>
