<svg width="100" height="21" viewBox="0 0 100 21" fill="none" xmlns="http://www.w3.org/2000/svg">
<path d="M71.7368 20.6114V5.98828H75.782V20.6114H71.7368Z" fill="#111111"/>
<path d="M73.7689 4.10324C73.1677 4.10324 72.6516 3.90333 72.2212 3.50347C71.797 3.09727 71.585 2.61174 71.585 2.04686C71.585 1.48834 71.797 1.00915 72.2212 0.609299C72.6516 0.203099 73.1677 0 73.7689 0C74.3704 0 74.8831 0.203099 75.3073 0.609299C75.7377 1.00915 75.9529 1.48834 75.9529 2.04686C75.9529 2.61174 75.7377 3.09727 75.3073 3.50347C74.8831 3.90333 74.3704 4.10324 73.7689 4.10324Z" fill="#111111"/>
<path d="M77.9531 20.6114V5.98825H81.8748V8.53969H82.0267C82.2925 7.63208 82.7387 6.94664 83.3654 6.48331C83.9923 6.01365 84.714 5.77881 85.5304 5.77881C85.7331 5.77881 85.9515 5.79149 86.1856 5.81689C86.42 5.84227 86.6256 5.87719 86.8029 5.92162V9.52028C86.6129 9.46315 86.3502 9.41238 86.0148 9.36795C85.6792 9.32352 85.3723 9.30132 85.0937 9.30132C84.4985 9.30132 83.9669 9.43143 83.4985 9.69164C83.0362 9.94551 82.6692 10.3009 82.3969 10.7579C82.131 11.2149 81.9981 11.7417 81.9981 12.3383V20.6114H77.9531Z" fill="#111111"/>
<path fill-rule="evenodd" clip-rule="evenodd" d="M55.8828 1.11377V20.6113H59.8709V18.2693H60.0514C60.2351 18.6755 60.5009 19.0785 60.8491 19.4784C61.1972 19.8719 61.6434 20.1988 62.188 20.459C62.7386 20.7192 63.4066 20.8493 64.1916 20.8493C65.2993 20.8493 66.2995 20.5637 67.1922 19.9925C68.0909 19.4149 68.8001 18.5676 69.3191 17.4506C69.8445 16.3272 70.1072 14.9499 70.1072 13.3188C70.1072 11.6432 69.8382 10.2501 69.3001 9.13937C68.762 8.02232 68.0434 7.18771 67.1447 6.63555C66.2457 6.07701 65.2645 5.79774 64.2009 5.79774C63.3843 5.79774 62.7007 5.93738 62.1499 6.21664C61.6055 6.48956 61.1624 6.83229 60.8205 7.24484C60.4851 7.65104 60.2286 8.05089 60.0514 8.44439H59.928V1.11377H55.8828ZM60.2034 15.5751C59.9628 14.9277 59.8426 14.1693 59.8426 13.2997C59.8426 12.4302 59.9628 11.675 60.2034 11.0339C60.4439 10.3929 60.7889 9.89781 61.2384 9.54874C61.6941 9.19967 62.2511 9.02513 62.9097 9.02513C63.5743 9.02513 64.1345 9.20602 64.5903 9.56779C65.0461 9.92956 65.3911 10.4309 65.6253 11.072C65.8595 11.713 65.9766 12.4556 65.9766 13.2997C65.9766 14.1502 65.8563 14.9023 65.6157 15.556C65.3816 16.2034 65.0366 16.7112 64.5807 17.0793C64.1251 17.4411 63.568 17.622 62.9097 17.622C62.2576 17.622 61.7036 17.4442 61.2478 17.0888C60.7922 16.727 60.4439 16.2225 60.2034 15.5751Z" fill="#111111"/>
<path fill-rule="evenodd" clip-rule="evenodd" d="M45.5248 20.8876C44.5942 20.8876 43.7648 20.7257 43.0369 20.402C42.309 20.0719 41.733 19.5864 41.3088 18.9454C40.8909 18.298 40.6821 17.4919 40.6821 16.5272C40.6821 15.7148 40.8309 15.0325 41.1284 14.4804C41.4259 13.9282 41.8311 13.4839 42.3438 13.1475C42.8565 12.8111 43.439 12.5573 44.0909 12.3859C44.7492 12.2145 45.4392 12.0939 46.1609 12.0241C47.0092 11.9353 47.693 11.8528 48.2119 11.7766C48.7311 11.6941 49.1078 11.5735 49.3419 11.4148C49.5763 11.2561 49.6934 11.0213 49.6934 10.7103V10.6532C49.6934 10.0503 49.5034 9.58375 49.1236 9.25371C48.75 8.92368 48.2184 8.75865 47.5284 8.75865C46.8003 8.75865 46.2211 8.92051 45.7907 9.2442C45.3603 9.56153 45.0753 9.96138 44.9361 10.4438L41.1948 10.1391C41.3846 9.25053 41.7582 8.48258 42.3153 7.83519C42.8723 7.18147 43.5909 6.68006 44.4707 6.33099C45.3569 5.97556 46.3825 5.79785 47.5473 5.79785C48.3575 5.79785 49.1332 5.89306 49.8738 6.08345C50.6207 6.27386 51.2823 6.569 51.8584 6.96885C52.4407 7.3687 52.8996 7.88279 53.2352 8.51113C53.5707 9.13312 53.7384 9.87887 53.7384 10.7484V20.6114H49.9021V18.5836H49.7882C49.554 19.0406 49.2407 19.4436 48.8482 19.7927C48.4557 20.1354 47.9842 20.4051 47.4334 20.6019C46.8825 20.7923 46.2465 20.8876 45.5248 20.8876ZM46.6832 18.0885C47.2784 18.0885 47.8038 17.9711 48.2594 17.7363C48.7153 17.4951 49.073 17.1714 49.3325 16.7652C49.5921 16.359 49.7217 15.8989 49.7217 15.3848V13.833C49.5953 13.9155 49.4211 13.9916 49.1996 14.0615C48.9842 14.1249 48.7407 14.1852 48.4684 14.2423C48.1961 14.2931 47.924 14.3407 47.6517 14.3851C47.3796 14.4232 47.1328 14.4581 46.9111 14.4899C46.4363 14.5597 46.0217 14.6708 45.6671 14.8231C45.3128 14.9754 45.0373 15.1817 44.8411 15.4419C44.6448 15.6958 44.5467 16.0131 44.5467 16.3939C44.5467 16.9461 44.7461 17.3682 45.145 17.6601C45.55 17.9457 46.0628 18.0885 46.6832 18.0885Z" fill="#111111"/>
<path d="M27.0835 18.1933V20.6114H39.3422V17.3746H32.3914V17.2698L39.0954 8.62541V5.98828H27.3304V9.22517H34.2241V9.3299L27.0835 18.1933Z" fill="#111111"/>
<path fill-rule="evenodd" clip-rule="evenodd" d="M89.2984 20.402C90.0263 20.7257 90.8556 20.8876 91.7861 20.8876C92.5077 20.8876 93.144 20.7924 93.6948 20.6019C94.2454 20.4052 94.7171 20.1354 95.1096 19.7927C95.5021 19.4436 95.8154 19.0406 96.0496 18.5836H96.1636V20.6114H99.9998V10.7484C99.9998 9.87889 99.8321 9.13312 99.4965 8.51113C99.1611 7.88281 98.7021 7.3687 98.1196 6.96885C97.5436 6.569 96.8821 6.27388 96.135 6.08347C95.3944 5.89306 94.619 5.79785 93.8088 5.79785C92.644 5.79785 91.6184 5.97556 90.7321 6.33099C89.8523 6.68008 89.1338 7.18147 88.5767 7.83521C88.0196 8.48258 87.6461 9.25055 87.4563 10.1391L91.1975 10.4438C91.3367 9.9614 91.6215 9.56155 92.0521 9.2442C92.4825 8.92051 93.0617 8.75867 93.7898 8.75867C94.4798 8.75867 95.0115 8.92368 95.385 9.25373C95.7648 9.58375 95.9546 10.0503 95.9546 10.6532V10.7103C95.9546 11.0213 95.8375 11.2562 95.6034 11.4148C95.3692 11.5735 94.9925 11.6941 94.4734 11.7766C93.9544 11.8528 93.2706 11.9353 92.4223 12.0241C91.7006 12.0939 91.0106 12.2145 90.3523 12.3859C89.7002 12.5573 89.1179 12.8111 88.6052 13.1475C88.0923 13.4839 87.6873 13.9282 87.3898 14.4804C87.0921 15.0325 86.9434 15.7148 86.9434 16.5272C86.9434 17.4919 87.1523 18.298 87.5702 18.9454C87.9942 19.5864 88.5702 20.0719 89.2984 20.402ZM94.5209 17.7363C94.065 17.9711 93.5396 18.0885 92.9446 18.0885C92.3242 18.0885 91.8115 17.9458 91.4063 17.6601C91.0075 17.3682 90.8081 16.9461 90.8081 16.394C90.8081 16.0131 90.9063 15.6958 91.1025 15.4419C91.2988 15.1817 91.5742 14.9754 91.9286 14.8231C92.2831 14.6708 92.6977 14.5597 93.1725 14.4899C93.394 14.4581 93.6409 14.4232 93.9131 14.3852C94.1854 14.3407 94.4575 14.2931 94.7298 14.2424C95.0019 14.1852 95.2457 14.1249 95.4609 14.0615C95.6825 13.9917 95.8565 13.9155 95.9831 13.833V15.3848C95.9831 15.8989 95.8534 16.359 95.5938 16.7652C95.3344 17.1714 94.9767 17.4951 94.5209 17.7363Z" fill="#111111"/>
<path d="M13.542 15.6657L10.417 20.8877C13.3135 20.8877 15.7737 19.873 17.7977 17.8438C19.8216 15.8145 20.8336 13.3479 20.8336 10.4438C20.8336 7.53975 19.8216 5.07309 17.7977 3.04386C15.7737 1.01463 13.3134 1.00261e-05 10.417 0L13.542 5.22189L16.667 10.4438L7.29199 15.6657H13.542Z" fill="#0088FF"/>
<path d="M7.29171 5.22189L10.4167 0C7.52014 -4.17752e-07 5.05992 1.01461 3.03594 3.04386C1.01198 5.07309 4.16667e-07 7.53973 0 10.4438C-4.16666e-07 13.3479 1.01198 15.8145 3.03594 17.8438C5.0599 19.873 7.52019 20.8877 10.4167 20.8877L7.29171 15.6657L4.16671 10.4438L13.5417 5.22189H7.29171Z" fill="#0044EE"/>
<path d="M10.4169 0L7.29199 5.22189H13.542L4.16699 10.4438L7.29199 15.6657L16.667 10.4438L13.542 5.22189L10.4169 0Z" fill="white"/>
<path d="M7.29199 15.6658L10.417 20.8878L13.542 15.6658H7.29199Z" fill="white"/>
</svg>
