<svg width="95" height="95" viewBox="0 0 95 95" fill="none" xmlns="http://www.w3.org/2000/svg">
<path d="M61.1157 70.5174L47.0123 94.0235C60.0846 94.0235 71.1876 89.456 80.322 80.3216C89.4564 71.1873 94.0235 60.0839 94.0235 47.0116C94.0235 33.9393 89.4564 22.8359 80.322 13.7016C71.1877 4.56722 60.0843 4.51311e-05 47.0121 0L61.1157 23.5058L75.2191 47.0116L32.9088 70.5174H61.1157Z" fill="#0088FF"/>
<path d="M32.9082 23.5058L47.0115 0C33.9392 -1.88046e-06 22.8359 4.56716 13.7015 13.7016C4.56718 22.8359 1.88046e-06 33.9392 0 47.0116C-1.88046e-06 60.0839 4.56717 71.1872 13.7015 80.3216C22.8358 89.456 33.9394 94.0235 47.0117 94.0235L32.9082 70.5174L18.8048 47.0116L61.1151 23.5058H32.9082Z" fill="#0044EE"/>
<path d="M47.0118 0L32.9085 23.5058H61.1154L18.8051 47.0116L32.9085 70.5174L75.2188 47.0116L61.1154 23.5058L47.0118 0Z" fill="white"/>
<path d="M32.9088 70.5173L47.0123 94.0235L61.1157 70.5173H32.9088Z" fill="white"/>
</svg>
